Asap-Italic.ufo
<glyph name="exclam" format="2">
  <advance width="294"/>
  <unicode hex="0021"/>
  <outline>
    <contour>
      <point x="126" y="202" type="curve" smooth="yes"/>
      <point x="137" y="202" type="line" smooth="yes"/>
      <point x="158" y="202"/>
      <point x="168" y="210"/>
      <point x="170" y="224" type="curve" smooth="yes"/>
      <point x="195" y="376"/>
      <point x="245" y="667"/>
      <point x="245" y="680" type="curve"/>
      <point x="245" y="694"/>
      <point x="237" y="702"/>
      <point x="208" y="702" type="curve" smooth="yes"/>
      <point x="188" y="702" type="line" smooth="yes"/>
      <point x="160" y="702"/>
      <point x="148" y="694"/>
      <point x="146" y="680" type="curve" smooth="yes"/>
      <point x="98" y="224" type="line"/>
      <point x="98" y="210"/>
      <point x="104" y="202"/>
    </contour>
    <contour>
      <point x="103" y="-2" type="curve" smooth="yes"/>
      <point x="120" y="-2" type="line" smooth="yes"/>
      <point x="146" y="-2"/>
      <point x="160" y="6"/>
      <point x="162" y="20" type="curve" smooth="yes"/>
      <point x="169" y="86" type="line"/>
      <point x="169" y="100"/>
      <point x="160" y="108"/>
      <point x="131" y="108" type="curve" smooth="yes"/>
      <point x="114" y="108" type="line" smooth="yes"/>
      <point x="84" y="108"/>
      <point x="73" y="100"/>
      <point x="72" y="86" type="curve" smooth="yes"/>
      <point x="65" y="20" type="line"/>
      <point x="65" y="6"/>
      <point x="73" y="-2"/>
    </contour>
  </outline>
</glyph>
<glyph name="quotedbl" format="2">
  <advance width="319"/>
  <unicode hex="0022"/>
  <outline>
    <contour>
      <point x="244" y="472" type="curve"/>
      <point x="245" y="472" type="line"/>
      <point x="258" y="472"/>
      <point x="267" y="476"/>
      <point x="269" y="484" type="curve"/>
      <point x="283" y="549"/>
      <point x="312" y="675"/>
      <point x="312" y="680" type="curve" smooth="yes"/>
      <point x="312" y="701"/>
      <point x="289" y="702"/>
      <point x="275" y="702" type="curve" smooth="yes"/>
      <point x="265" y="702" type="line" smooth="yes"/>
      <point x="237" y="702"/>
      <point x="223" y="694"/>
      <point x="223" y="680" type="curve" smooth="yes"/>
      <point x="223" y="675" type="line"/>
      <point x="223" y="484" type="line" smooth="yes"/>
      <point x="223" y="475"/>
      <point x="230" y="472"/>
    </contour>
    <contour>
      <point x="116" y="472" type="curve"/>
      <point x="117" y="472" type="line"/>
      <point x="130" y="472"/>
      <point x="139" y="476"/>
      <point x="141" y="484" type="curve"/>
      <point x="155" y="549"/>
      <point x="184" y="675"/>
      <point x="184" y="680" type="curve" smooth="yes"/>
      <point x="184" y="701"/>
      <point x="161" y="702"/>
      <point x="147" y="702" type="curve" smooth="yes"/>
      <point x="137" y="702" type="line" smooth="yes"/>
      <point x="109" y="702"/>
      <point x="95" y="694"/>
      <point x="95" y="680" type="curve" smooth="yes"/>
      <point x="95" y="675" type="line"/>
      <point x="95" y="484" type="line" smooth="yes"/>
      <point x="95" y="475"/>
      <point x="102" y="472"/>
    </contour>
  </outline>
</glyph>
<glyph name="numbersign" format="2">
  <advance width="534"/>
  <unicode hex="0023"/>
  <outline>
    <contour>
      <point x="68" y="-2" type="curve" smooth="yes"/>
      <point x="72" y="-2" type="line" smooth="yes"/>
      <point x="107" y="-2"/>
      <point x="114" y="6"/>
      <point x="118" y="20" type="curve" smooth="yes"/>
      <point x="168" y="196" type="line"/>
      <point x="286" y="196" type="line"/>
      <point x="243" y="41"/>
      <point x="235" y="25"/>
      <point x="235" y="15" type="curve"/>
      <point x="235" y="4"/>
      <point x="241" y="-2"/>
      <point x="261" y="-2" type="curve" smooth="yes"/>
      <point x="265" y="-2" type="line" smooth="yes"/>
      <point x="299" y="-2"/>
      <point x="306" y="6"/>
      <point x="311" y="20" type="curve"/>
      <point x="360" y="196" type="line"/>
      <point x="452" y="196" type="line" smooth="yes"/>
      <point x="465" y="196"/>
      <point x="476" y="205"/>
      <point x="477" y="241" type="curve"/>
      <point x="477" y="243" type="line"/>
      <point x="477" y="263"/>
      <point x="475" y="273"/>
      <point x="460" y="273" type="curve" smooth="yes"/>
      <point x="384" y="273" type="line"/>
      <point x="425" y="420" type="line"/>
      <point x="509" y="420" type="line" smooth="yes"/>
      <point x="522" y="420"/>
      <point x="534" y="429"/>
      <point x="534" y="465" type="curve"/>
      <point x="534" y="467" type="line"/>
      <point x="534" y="487"/>
      <point x="532" y="497"/>
      <point x="517" y="497" type="curve" smooth="yes"/>
      <point x="448" y="497" type="line"/>
      <point x="484" y="625"/>
      <point x="497" y="659"/>
      <point x="497" y="671" type="curve"/>
      <point x="497" y="680"/>
      <point x="491" y="686"/>
      <point x="471" y="686" type="curve" smooth="yes"/>
      <point x="466" y="686" type="line" smooth="yes"/>
      <point x="428" y="686"/>
      <point x="423" y="678"/>
      <point x="419" y="664" type="curve" smooth="yes"/>
      <point x="372" y="497" type="line"/>
      <point x="253" y="497" type="line"/>
      <point x="290" y="625"/>
      <point x="303" y="659"/>
      <point x="304" y="671" type="curve"/>
      <point x="304" y="680"/>
      <point x="298" y="686"/>
      <point x="278" y="686" type="curve" smooth="yes"/>
      <point x="274" y="686" type="line" smooth="yes"/>
      <point x="236" y="686"/>
      <point x="231" y="678"/>
      <point x="227" y="664" type="curve" smooth="yes"/>
      <point x="179" y="497" type="line"/>
      <point x="84" y="497" type="line" smooth="yes"/>
      <point x="70" y="497"/>
      <point x="59" y="488"/>
      <point x="59" y="452" type="curve"/>
      <point x="59" y="450" type="line"/>
      <point x="59" y="429"/>
      <point x="61" y="420"/>
      <point x="76" y="420" type="curve" smooth="yes"/>
      <point x="158" y="420" type="line"/>
      <point x="116" y="273" type="line"/>
      <point x="25" y="273" type="line" smooth="yes"/>
      <point x="11" y="273"/>
      <point x="0" y="264"/>
      <point x="0" y="228" type="curve"/>
      <point x="0" y="226" type="line"/>
      <point x="0" y="205"/>
      <point x="2" y="196"/>
      <point x="17" y="196" type="curve" smooth="yes"/>
      <point x="93" y="196" type="line"/>
      <point x="50" y="41"/>
      <point x="42" y="25"/>
      <point x="42" y="15" type="curve"/>
      <point x="42" y="4"/>
      <point x="48" y="-2"/>
    </contour>
    <contour>
      <point x="191" y="273" type="line"/>
      <point x="233" y="420" type="line"/>
      <point x="351" y="420" type="line"/>
      <point x="309" y="273" type="line"/>
    </contour>
  </outline>
</glyph>
<glyph name="dollar" format="2">
  <advance width="440"/>
  <unicode hex="0024"/>
  <outline>
    <contour>
      <point x="208" y="-68" type="curve"/>
      <point x="209" y="-68" type="line"/>
      <point x="222" y="-68"/>
      <point x="230" y="-62"/>
      <point x="231" y="-48" type="curve" smooth="yes"/>
      <point x="235" y="-4" type="line"/>
      <point x="361" y="7"/>
      <point x="448" y="89"/>
      <point x="448" y="218" type="curve" smooth="yes"/>
      <point x="448" y="334"/>
      <point x="358" y="372"/>
      <point x="278" y="403" type="curve"/>
      <point x="303" y="630" type="line"/>
      <point x="354" y="629"/>
      <point x="384" y="612"/>
      <point x="404" y="601" type="curve" smooth="yes"/>
      <point x="413" y="596"/>
      <point x="419" y="592"/>
      <point x="424" y="592" type="curve" smooth="yes"/>
      <point x="434" y="592"/>
      <point x="462" y="633"/>
      <point x="462" y="646" type="curve" smooth="yes"/>
      <point x="462" y="655"/>
      <point x="456" y="663"/>
      <point x="446" y="671" type="curve" smooth="yes"/>
      <point x="416" y="692"/>
      <point x="353" y="705"/>
      <point x="311" y="706" type="curve"/>
      <point x="312" y="716"/>
      <point x="314" y="732"/>
      <point x="314" y="735" type="curve" smooth="yes"/>
      <point x="314" y="748"/>
      <point x="310" y="755"/>
      <point x="298" y="755" type="curve"/>
      <point x="296" y="755" type="line" smooth="yes"/>
      <point x="280" y="755"/>
      <point x="276" y="749"/>
      <point x="274" y="735" type="curve" smooth="yes"/>
      <point x="270" y="704" type="line"/>
      <point x="146" y="691"/>
      <point x="65" y="611"/>
      <point x="65" y="498" type="curve" smooth="yes"/>
      <point x="65" y="389"/>
      <point x="151" y="356"/>
      <point x="230" y="324" type="curve"/>
      <point x="203" y="70" type="line"/>
      <point x="136" y="71"/>
      <point x="92" y="96"/>
      <point x="69" y="110" type="curve" smooth="yes"/>
      <point x="59" y="117"/>
      <point x="53" y="121"/>
      <point x="50" y="121" type="curve" smooth="yes"/>
      <point x="43" y="121"/>
      <point x="34" y="111"/>
      <point x="34" y="56" type="curve" smooth="yes"/>
      <point x="34" y="47"/>
      <point x="39" y="39"/>
      <point x="46" y="32" type="curve" smooth="yes"/>
      <point x="76" y="5"/>
      <point x="154" y="-4"/>
      <point x="195" y="-6" type="curve"/>
      <point x="194" y="-20"/>
      <point x="191" y="-46"/>
      <point x="191" y="-48" type="curve" smooth="yes"/>
      <point x="191" y="-62"/>
      <point x="194" y="-68"/>
    </contour>
    <contour>
      <point x="243" y="73" type="curve"/>
      <point x="268" y="308" type="line"/>
      <point x="318" y="285"/>
      <point x="357" y="258"/>
      <point x="357" y="204" type="curve" smooth="yes"/>
      <point x="357" y="134"/>
      <point x="308" y="85"/>
    </contour>
    <contour>
      <point x="240" y="418" type="line"/>
      <point x="192" y="439"/>
      <point x="155" y="462"/>
      <point x="155" y="508" type="curve" smooth="yes"/>
      <point x="155" y="578"/>
      <point x="202" y="616"/>
      <point x="262" y="627" type="curve"/>
    </contour>
  </outline>
</glyph>
<glyph name="ampersand" format="2">
  <advance width="624"/>
  <unicode hex="0026"/>
  <outline>
    <contour>
      <point x="235" y="-6" type="curve" smooth="yes"/>
      <point x="308" y="-6"/>
      <point x="365" y="16"/>
      <point x="400" y="36" type="curve"/>
      <point x="423" y="0"/>
      <point x="465" y="-6"/>
      <point x="496" y="-6" type="curve" smooth="yes"/>
      <point x="536" y="-6"/>
      <point x="560" y="9"/>
      <point x="566" y="28" type="curve" smooth="yes"/>
      <point x="568" y="34"/>
      <point x="569" y="53"/>
      <point x="569" y="64" type="curve" smooth="yes"/>
      <point x="569" y="71"/>
      <point x="565" y="73"/>
      <point x="562" y="73" type="curve" smooth="yes"/>
      <point x="555" y="73"/>
      <point x="548" y="66"/>
      <point x="517" y="66" type="curve" smooth="yes"/>
      <point x="491" y="66"/>
      <point x="469" y="77"/>
      <point x="469" y="123" type="curve" smooth="yes"/>
      <point x="469" y="141"/>
      <point x="484" y="273"/>
      <point x="490" y="336" type="curve"/>
      <point x="554" y="336" type="line" smooth="yes"/>
      <point x="590" y="336"/>
      <point x="599" y="379"/>
      <point x="599" y="388" type="curve" smooth="yes"/>
      <point x="599" y="389" type="line" smooth="yes"/>
      <point x="599" y="403"/>
      <point x="595" y="408"/>
      <point x="583" y="408" type="curve" smooth="yes"/>
      <point x="498" y="408" type="line"/>
      <point x="509" y="513" type="line"/>
      <point x="509" y="528"/>
      <point x="499" y="535"/>
      <point x="471" y="535" type="curve" smooth="yes"/>
      <point x="467" y="535" type="line" smooth="yes"/>
      <point x="441" y="535"/>
      <point x="428" y="529"/>
      <point x="426" y="513" type="curve" smooth="yes"/>
      <point x="414" y="408" type="line"/>
      <point x="297" y="408" type="line" smooth="yes"/>
      <point x="207" y="408"/>
      <point x="174" y="469"/>
      <point x="174" y="518" type="curve" smooth="yes"/>
      <point x="174" y="551"/>
      <point x="191" y="634"/>
      <point x="306" y="634" type="curve" smooth="yes"/>
      <point x="342" y="634"/>
      <point x="355" y="628"/>
      <point x="364" y="628" type="curve" smooth="yes"/>
      <point x="375" y="628"/>
      <point x="391" y="664"/>
      <point x="391" y="679" type="curve" smooth="yes"/>
      <point x="391" y="704"/>
      <point x="338" y="706"/>
      <point x="312" y="706" type="curve" smooth="yes"/>
      <point x="193" y="706"/>
      <point x="91" y="645"/>
      <point x="91" y="520" type="curve" smooth="yes"/>
      <point x="91" y="456"/>
      <point x="130" y="411"/>
      <point x="180" y="391" type="curve"/>
      <point x="179" y="387" type="line"/>
      <point x="113" y="370"/>
      <point x="32" y="297"/>
      <point x="32" y="175" type="curve" smooth="yes"/>
      <point x="32" y="42"/>
      <point x="142" y="-6"/>
    </contour>
    <contour>
      <point x="251" y="66" type="curve" smooth="yes"/>
      <point x="195" y="66"/>
      <point x="120" y="91"/>
      <point x="120" y="184" type="curve" smooth="yes"/>
      <point x="120" y="302"/>
      <point x="193" y="336"/>
      <point x="285" y="336" type="curve" smooth="yes"/>
      <point x="406" y="336" type="line"/>
      <point x="406" y="336"/>
      <point x="394" y="229"/>
      <point x="388" y="159" type="curve" smooth="yes"/>
      <point x="385" y="122"/>
      <point x="386" y="100"/>
      <point x="399" y="67" type="curve"/>
      <point x="400" y="114" type="line"/>
      <point x="370" y="91"/>
      <point x="309" y="66"/>
    </contour>
  </outline>
</glyph>
<glyph name="parenright" format="2">
  <advance width="301"/>
  <unicode hex="0029"/>
  <outline>
    <contour>
      <point x="-11" y="-211" type="curve" smooth="yes"/>
      <point x="-4" y="-211"/>
      <point x="3" y="-208"/>
      <point x="10" y="-201" type="curve"/>
      <point x="149" y="-84"/>
      <point x="250" y="134"/>
      <point x="250" y="376" type="curve" smooth="yes"/>
      <point x="250" y="543"/>
      <point x="198" y="686"/>
      <point x="113" y="773" type="curve" smooth="yes"/>
      <point x="106" y="780"/>
      <point x="99" y="784"/>
      <point x="92" y="784" type="curve" smooth="yes"/>
      <point x="74" y="784"/>
      <point x="61" y="762"/>
      <point x="61" y="753" type="curve" smooth="yes"/>
      <point x="61" y="748"/>
      <point x="63" y="742"/>
      <point x="68" y="736" type="curve" smooth="yes"/>
      <point x="131" y="648"/>
      <point x="169" y="523"/>
      <point x="169" y="379" type="curve" smooth="yes"/>
      <point x="169" y="193"/>
      <point x="104" y="-29"/>
      <point x="-31" y="-170" type="curve" smooth="yes"/>
      <point x="-37" y="-176"/>
      <point x="-40" y="-180"/>
      <point x="-40" y="-186" type="curve" smooth="yes"/>
      <point x="-40" y="-198"/>
      <point x="-25" y="-211"/>
    </contour>
  </outline>
</glyph>
<glyph name="asterisk" format="2">
  <advance width="373"/>
  <unicode hex="002A"/>
  <outline>
    <contour>
      <point x="111" y="414" type="curve" smooth="yes"/>
      <point x="116" y="414"/>
      <point x="121" y="417"/>
      <point x="127" y="423" type="curve"/>
      <point x="211" y="524" type="line"/>
      <point x="273" y="423" type="line" smooth="yes"/>
      <point x="276" y="417"/>
      <point x="281" y="414"/>
      <point x="287" y="414" type="curve" smooth="yes"/>
      <point x="297" y="414"/>
      <point x="311" y="427"/>
      <point x="311" y="436" type="curve" smooth="yes"/>
      <point x="311" y="439"/>
      <point x="309" y="443"/>
      <point x="307" y="447" type="curve" smooth="yes"/>
      <point x="246" y="546" type="line"/>
      <point x="348" y="578" type="line"/>
      <point x="360" y="581"/>
      <point x="364" y="587"/>
      <point x="364" y="596" type="curve" smooth="yes"/>
      <point x="364" y="610"/>
      <point x="355" y="617"/>
      <point x="348" y="617" type="curve" smooth="yes"/>
      <point x="345" y="617"/>
      <point x="342" y="617"/>
      <point x="339" y="616" type="curve" smooth="yes"/>
      <point x="237" y="584" type="line"/>
      <point x="248" y="689" type="line"/>
      <point x="248" y="703"/>
      <point x="244" y="709"/>
      <point x="230" y="709" type="curve" smooth="yes"/>
      <point x="216" y="709"/>
      <point x="209" y="703"/>
      <point x="208" y="689" type="curve" smooth="yes"/>
      <point x="197" y="584" type="line"/>
      <point x="101" y="616" type="line" smooth="yes"/>
      <point x="98" y="617"/>
      <point x="95" y="617"/>
      <point x="92" y="617" type="curve" smooth="yes"/>
      <point x="83" y="617"/>
      <point x="72" y="607"/>
      <point x="72" y="591" type="curve" smooth="yes"/>
      <point x="72" y="585"/>
      <point x="76" y="581"/>
      <point x="84" y="578" type="curve" smooth="yes"/>
      <point x="179" y="546" type="line"/>
      <point x="97" y="447" type="line" smooth="yes"/>
      <point x="92" y="441"/>
      <point x="91" y="436"/>
      <point x="91" y="432" type="curve" smooth="yes"/>
      <point x="91" y="424"/>
      <point x="103" y="414"/>
    </contour>
  </outline>
</glyph>
<glyph name="plus" format="2">
  <advance width="560"/>
  <unicode hex="002B"/>
  <outline>
    <contour>
      <point x="308" y="463" type="curve" smooth="yes"/>
      <point x="301" y="463" type="line" smooth="yes"/>
      <point x="277" y="463"/>
      <point x="270" y="457"/>
      <point x="269" y="443" type="curve" smooth="yes"/>
      <point x="250" y="264" type="line"/>
      <point x="71" y="264" type="line" smooth="yes"/>
      <point x="57" y="264"/>
      <point x="47" y="255"/>
      <point x="47" y="227" type="curve" smooth="yes"/>
      <point x="47" y="207"/>
      <point x="49" y="197"/>
      <point x="64" y="197" type="curve" smooth="yes"/>
      <point x="243" y="197" type="line"/>
      <point x="224" y="18" type="line"/>
      <point x="224" y="4"/>
      <point x="230" y="-2"/>
      <point x="252" y="-2" type="curve" smooth="yes"/>
      <point x="259" y="-2" type="line" smooth="yes"/>
      <point x="278" y="-2"/>
      <point x="289" y="4"/>
      <point x="291" y="18" type="curve" smooth="yes"/>
      <point x="310" y="197" type="line"/>
      <point x="488" y="197" type="line" smooth="yes"/>
      <point x="502" y="197"/>
      <point x="512" y="206"/>
      <point x="512" y="234" type="curve" smooth="yes"/>
      <point x="512" y="254"/>
      <point x="510" y="264"/>
      <point x="495" y="264" type="curve" smooth="yes"/>
      <point x="317" y="264" type="line"/>
      <point x="336" y="443" type="line"/>
      <point x="336" y="457"/>
      <point x="329" y="463"/>
    </contour>
  </outline>
</glyph>
<glyph name="hyphen" format="2">
  <advance width="320"/>
  <unicode hex="002D"/>
  <outline>
    <contour>
      <point x="57" y="229" type="curve" smooth="yes"/>
      <point x="251" y="229" type="line" smooth="yes"/>
      <point x="275" y="229"/>
      <point x="276" y="263"/>
      <point x="276" y="274" type="curve"/>
      <point x="276" y="276" type="line"/>
      <point x="276" y="291"/>
      <point x="272" y="301"/>
      <point x="259" y="301" type="curve" smooth="yes"/>
      <point x="65" y="301" type="line" smooth="yes"/>
      <point x="42" y="301"/>
      <point x="40" y="270"/>
      <point x="40" y="258" type="curve"/>
      <point x="40" y="256" type="line"/>
      <point x="40" y="240"/>
      <point x="43" y="229"/>
    </contour>
  </outline>
</glyph>
<glyph name="period" format="2">
  <advance width="198"/>
  <unicode hex="002E"/>
  <outline>
    <contour>
      <point x="63" y="-2" type="curve" smooth="yes"/>
      <point x="80" y="-2" type="line" smooth="yes"/>
      <point x="108" y="-2"/>
      <point x="120" y="6"/>
      <point x="122" y="20" type="curve" smooth="yes"/>
      <point x="129" y="86" type="line"/>
      <point x="129" y="100"/>
      <point x="120" y="108"/>
      <point x="91" y="108" type="curve" smooth="yes"/>
      <point x="74" y="108" type="line" smooth="yes"/>
      <point x="45" y="108"/>
      <point x="33" y="100"/>
      <point x="32" y="86" type="curve" smooth="yes"/>
      <point x="25" y="20" type="line"/>
      <point x="25" y="6"/>
      <point x="34" y="-2"/>
    </contour>
  </outline>
</glyph>
<glyph name="slash" format="2">
  <advance width="370"/>
  <unicode hex="002F"/>
  <outline>
    <contour>
      <point x="-41" y="-79" type="curve" smooth="yes"/>
      <point x="-18" y="-79" type="line" smooth="yes"/>
      <point x="-4" y="-79"/>
      <point x="4" y="-72"/>
      <point x="11" y="-59" type="curve" smooth="yes"/>
      <point x="407" y="682" type="line" smooth="yes"/>
      <point x="409" y="686"/>
      <point x="410" y="689"/>
      <point x="410" y="692" type="curve" smooth="yes"/>
      <point x="410" y="698"/>
      <point x="405" y="702"/>
      <point x="396" y="702" type="curve" smooth="yes"/>
      <point x="372" y="702" type="line" smooth="yes"/>
      <point x="357" y="702"/>
      <point x="350" y="694"/>
      <point x="343" y="682" type="curve" smooth="yes"/>
      <point x="-52" y="-59" type="line" smooth="yes"/>
      <point x="-54" y="-63"/>
      <point x="-55" y="-67"/>
      <point x="-55" y="-69" type="curve" smooth="yes"/>
      <point x="-55" y="-75"/>
      <point x="-51" y="-79"/>
    </contour>
  </outline>
</glyph>
<glyph name="one" format="2">
  <advance width="535"/>
  <unicode hex="0031"/>
  <outline>
    <contour>
      <point x="25" y="0" type="curve" smooth="yes"/>
      <point x="432" y="0" type="line" smooth="yes"/>
      <point x="455" y="0"/>
      <point x="457" y="30"/>
      <point x="457" y="43" type="curve"/>
      <point x="457" y="45" type="line"/>
      <point x="457" y="61"/>
      <point x="454" y="72"/>
      <point x="440" y="72" type="curve" smooth="yes"/>
      <point x="291" y="72" type="line"/>
      <point x="355" y="681" type="line"/>
      <point x="355" y="693"/>
      <point x="342" y="702"/>
      <point x="326" y="702" type="curve"/>
      <point x="89" y="651" type="line" smooth="yes"/>
      <point x="72" y="647"/>
      <point x="68" y="640"/>
      <point x="68" y="621" type="curve" smooth="yes"/>
      <point x="68" y="603"/>
      <point x="72" y="581"/>
      <point x="84" y="581" type="curve"/>
      <point x="264" y="611" type="line"/>
      <point x="207" y="72" type="line"/>
      <point x="33" y="72" type="line" smooth="yes"/>
      <point x="10" y="72"/>
      <point x="8" y="42"/>
      <point x="8" y="29" type="curve"/>
      <point x="8" y="27" type="line"/>
      <point x="8" y="11"/>
      <point x="11" y="0"/>
    </contour>
  </outline>
</glyph>
<glyph name="two" format="2">
  <advance width="535"/>
  <unicode hex="0032"/>
  <outline>
    <contour>
      <point x="42" y="0" type="curve" smooth="yes"/>
      <point x="416" y="0" type="line" smooth="yes"/>
      <point x="438" y="0"/>
      <point x="441" y="28"/>
      <point x="441" y="41" type="curve"/>
      <point x="441" y="45" type="line"/>
      <point x="441" y="61"/>
      <point x="438" y="72"/>
      <point x="424" y="72" type="curve" smooth="yes"/>
      <point x="136" y="72" type="line"/>
      <point x="406" y="370" type="line" smooth="yes"/>
      <point x="464" y="434"/>
      <point x="487" y="484"/>
      <point x="487" y="556" type="curve" smooth="yes"/>
      <point x="487" y="646"/>
      <point x="413" y="706"/>
      <point x="291" y="706" type="curve" smooth="yes"/>
      <point x="229" y="706"/>
      <point x="103" y="674"/>
      <point x="103" y="631" type="curve" smooth="yes"/>
      <point x="103" y="615"/>
      <point x="120" y="583"/>
      <point x="130" y="583" type="curve" smooth="yes"/>
      <point x="147" y="583"/>
      <point x="194" y="634"/>
      <point x="285" y="634" type="curve" smooth="yes"/>
      <point x="357" y="634"/>
      <point x="400" y="599"/>
      <point x="400" y="543" type="curve" smooth="yes"/>
      <point x="400" y="503"/>
      <point x="380" y="455"/>
      <point x="333" y="403" type="curve" smooth="yes"/>
      <point x="24" y="61" type="line" smooth="yes"/>
      <point x="22" y="59"/>
      <point x="22" y="56"/>
      <point x="22" y="52" type="curve" smooth="yes"/>
      <point x="22" y="34"/>
      <point x="32" y="0"/>
    </contour>
  </outline>
</glyph>
<glyph name="three" format="2">
  <advance width="535"/>
  <unicode hex="0033"/>
  <outline>
    <contour>
      <point x="208" y="-6" type="curve" smooth="yes"/>
      <point x="309" y="-6"/>
      <point x="454" y="55"/>
      <point x="454" y="228" type="curve" smooth="yes"/>
      <point x="454" y="318"/>
      <point x="400" y="372"/>
      <point x="346" y="387" type="curve"/>
      <point x="347" y="391" type="line"/>
      <point x="411" y="415"/>
      <point x="465" y="469"/>
      <point x="465" y="554" type="curve" smooth="yes"/>
      <point x="465" y="656"/>
      <point x="391" y="706"/>
      <point x="281" y="706" type="curve" smooth="yes"/>
      <point x="219" y="706"/>
      <point x="96" y="682"/>
      <point x="96" y="652" type="curve" smooth="yes"/>
      <point x="96" y="636"/>
      <point x="113" y="601"/>
      <point x="124" y="601" type="curve" smooth="yes"/>
      <point x="141" y="601"/>
      <point x="180" y="634"/>
      <point x="271" y="634" type="curve" smooth="yes"/>
      <point x="359" y="634"/>
      <point x="380" y="586"/>
      <point x="380" y="548" type="curve" smooth="yes"/>
      <point x="380" y="503"/>
      <point x="344" y="407"/>
      <point x="233" y="407" type="curve" smooth="yes"/>
      <point x="204" y="407" type="line" smooth="yes"/>
      <point x="182" y="407"/>
      <point x="179" y="379"/>
      <point x="179" y="366" type="curve" smooth="yes"/>
      <point x="179" y="363" type="line" smooth="yes"/>
      <point x="179" y="347"/>
      <point x="182" y="336"/>
      <point x="196" y="336" type="curve" smooth="yes"/>
      <point x="230" y="336" type="line" smooth="yes"/>
      <point x="312" y="336"/>
      <point x="367" y="311"/>
      <point x="367" y="228" type="curve" smooth="yes"/>
      <point x="367" y="99"/>
      <point x="272" y="66"/>
      <point x="208" y="66" type="curve" smooth="yes"/>
      <point x="116" y="66"/>
      <point x="62" y="103"/>
      <point x="55" y="103" type="curve" smooth="yes"/>
      <point x="48" y="103"/>
      <point x="40" y="98"/>
      <point x="40" y="44" type="curve" smooth="yes"/>
      <point x="40" y="0"/>
      <point x="181" y="-6"/>
    </contour>
  </outline>
</glyph>
<glyph name="four" format="2">
  <advance width="535"/>
  <unicode hex="0034"/>
  <outline>
    <contour>
      <point x="339" y="-2" type="curve" smooth="yes"/>
      <point x="362" y="-2" type="line" smooth="yes"/>
      <point x="380" y="-2"/>
      <point x="392" y="6"/>
      <point x="394" y="20" type="curve" smooth="yes"/>
      <point x="409" y="167" type="line"/>
      <point x="477" y="167" type="line" smooth="yes"/>
      <point x="500" y="167"/>
      <point x="502" y="197"/>
      <point x="502" y="210" type="curve"/>
      <point x="502" y="212" type="line"/>
      <point x="502" y="228"/>
      <point x="499" y="239"/>
      <point x="485" y="239" type="curve" smooth="yes"/>
      <point x="417" y="239" type="line"/>
      <point x="463" y="680" type="line"/>
      <point x="463" y="693"/>
      <point x="458" y="702"/>
      <point x="435" y="702" type="curve" smooth="yes"/>
      <point x="419" y="702" type="line" smooth="yes"/>
      <point x="405" y="702"/>
      <point x="392" y="697"/>
      <point x="384" y="688" type="curve" smooth="yes"/>
      <point x="7" y="229" type="line" smooth="yes"/>
      <point x="5" y="227"/>
      <point x="4" y="220"/>
      <point x="4" y="212" type="curve" smooth="yes"/>
      <point x="4" y="193"/>
      <point x="12" y="167"/>
      <point x="22" y="167" type="curve" smooth="yes"/>
      <point x="326" y="167" type="line"/>
      <point x="311" y="20" type="line"/>
      <point x="311" y="5"/>
      <point x="317" y="-2"/>
    </contour>
    <contour>
      <point x="105" y="239" type="line"/>
      <point x="363" y="559" type="line"/>
      <point x="367" y="557" type="line"/>
      <point x="363" y="523"/>
      <point x="360" y="489"/>
      <point x="356" y="455" type="curve"/>
      <point x="334" y="239" type="line"/>
    </contour>
  </outline>
</glyph>
<glyph name="five" format="2">
  <advance width="535"/>
  <unicode hex="0035"/>
  <outline>
    <contour>
      <point x="196" y="-6" type="curve" smooth="yes"/>
      <point x="310" y="-6"/>
      <point x="460" y="44"/>
      <point x="460" y="241" type="curve" smooth="yes"/>
      <point x="460" y="380"/>
      <point x="340" y="422"/>
      <point x="239" y="422" type="curve" smooth="yes"/>
      <point x="187" y="422" type="line"/>
      <point x="222" y="628" type="line"/>
      <point x="440" y="628" type="line" smooth="yes"/>
      <point x="462" y="628"/>
      <point x="465" y="658"/>
      <point x="465" y="671" type="curve"/>
      <point x="465" y="673" type="line"/>
      <point x="465" y="689"/>
      <point x="462" y="700"/>
      <point x="448" y="700" type="curve" smooth="yes"/>
      <point x="181" y="700" type="line" smooth="yes"/>
      <point x="160" y="700"/>
      <point x="148" y="691"/>
      <point x="145" y="670" type="curve" smooth="yes"/>
      <point x="98" y="377"/>
      <point x="97" y="375"/>
      <point x="97" y="372" type="curve" smooth="yes"/>
      <point x="97" y="357"/>
      <point x="104" y="350"/>
      <point x="123" y="350" type="curve" smooth="yes"/>
      <point x="208" y="350" type="line" smooth="yes"/>
      <point x="316" y="350"/>
      <point x="374" y="309"/>
      <point x="374" y="232" type="curve" smooth="yes"/>
      <point x="374" y="117"/>
      <point x="283" y="66"/>
      <point x="203" y="66" type="curve" smooth="yes"/>
      <point x="118" y="66"/>
      <point x="64" y="103"/>
      <point x="57" y="103" type="curve" smooth="yes"/>
      <point x="50" y="103"/>
      <point x="42" y="98"/>
      <point x="42" y="44" type="curve" smooth="yes"/>
      <point x="42" y="0"/>
      <point x="169" y="-6"/>
    </contour>
  </outline>
</glyph>
<glyph name="seven" format="2">
  <advance width="535"/>
  <unicode hex="0037"/>
  <outline>
    <contour>
      <point x="103" y="-2" type="curve" smooth="yes"/>
      <point x="115" y="-2" type="line" smooth="yes"/>
      <point x="135" y="-2"/>
      <point x="150" y="4"/>
      <point x="156" y="14" type="curve" smooth="yes"/>
      <point x="518" y="638" type="line"/>
      <point x="520" y="643"/>
      <point x="521" y="648"/>
      <point x="521" y="655" type="curve" smooth="yes"/>
      <point x="521" y="675"/>
      <point x="513" y="700"/>
      <point x="506" y="700" type="curve" smooth="yes"/>
      <point x="111" y="700" type="line" smooth="yes"/>
      <point x="90" y="700"/>
      <point x="86" y="674"/>
      <point x="86" y="660" type="curve" smooth="yes"/>
      <point x="86" y="655" type="line" smooth="yes"/>
      <point x="86" y="639"/>
      <point x="89" y="628"/>
      <point x="103" y="628" type="curve" smooth="yes"/>
      <point x="419" y="628" type="line"/>
      <point x="67" y="28" type="line" smooth="yes"/>
      <point x="63" y="21"/>
      <point x="62" y="17"/>
      <point x="62" y="13" type="curve" smooth="yes"/>
      <point x="62" y="1"/>
      <point x="76" y="-2"/>
    </contour>
  </outline>
</glyph>
<glyph name="semicolon" format="2">
  <advance width="198"/>
  <unicode hex="003B"/>
  <outline>
    <contour>
      <point x="113" y="415" type="curve" smooth="yes"/>
      <point x="130" y="415" type="line" smooth="yes"/>
      <point x="158" y="415"/>
      <point x="170" y="423"/>
      <point x="172" y="437" type="curve" smooth="yes"/>
      <point x="179" y="503" type="line"/>
      <point x="179" y="517"/>
      <point x="170" y="525"/>
      <point x="141" y="525" type="curve" smooth="yes"/>
      <point x="124" y="525" type="line" smooth="yes"/>
      <point x="95" y="525"/>
      <point x="83" y="517"/>
      <point x="82" y="503" type="curve" smooth="yes"/>
      <point x="75" y="437" type="line"/>
      <point x="75" y="423"/>
      <point x="84" y="415"/>
    </contour>
    <component base="comma" xOffset="-16"/>
  </outline>
</glyph>
<glyph name="less" format="2">
  <advance width="560"/>
  <unicode hex="003C"/>
  <outline>
    <contour>
      <point x="454" y="10" type="line" smooth="yes"/>
      <point x="474" y="0"/>
      <point x="493" y="17"/>
      <point x="493" y="39" type="curve"/>
      <point x="493" y="47" type="line"/>
      <point x="493" y="66"/>
      <point x="486" y="76"/>
      <point x="473" y="82" type="curve" smooth="yes"/>
      <point x="133" y="228" type="line"/>
      <point x="504" y="373" type="line" smooth="yes"/>
      <point x="520" y="379"/>
      <point x="532" y="388"/>
      <point x="533" y="416" type="curve"/>
      <point x="533" y="422" type="line"/>
      <point x="533" y="443"/>
      <point x="525" y="454"/>
      <point x="499" y="445" type="curve" smooth="yes"/>
      <point x="70" y="271" type="line" smooth="yes"/>
      <point x="55" y="264"/>
      <point x="40" y="250"/>
      <point x="40" y="221" type="curve"/>
      <point x="40" y="215" type="line"/>
      <point x="40" y="200"/>
      <point x="46" y="191"/>
      <point x="61" y="184" type="curve" smooth="yes"/>
    </contour>
  </outline>
</glyph>
<glyph name="equal" format="2">
  <advance width="560"/>
  <unicode hex="003D"/>
  <outline>
    <contour>
      <point x="71" y="271" type="curve" smooth="yes"/>
      <point x="499" y="271" type="line" smooth="yes"/>
      <point x="515" y="271"/>
      <point x="528" y="280"/>
      <point x="529" y="307" type="curve"/>
      <point x="529" y="314" type="line"/>
      <point x="529" y="325"/>
      <point x="522" y="338"/>
      <point x="507" y="338" type="curve" smooth="yes"/>
      <point x="79" y="338" type="line" smooth="yes"/>
      <point x="63" y="338"/>
      <point x="50" y="329"/>
      <point x="49" y="302" type="curve"/>
      <point x="49" y="295" type="line"/>
      <point x="49" y="284"/>
      <point x="56" y="271"/>
    </contour>
    <contour>
      <point x="54" y="108" type="curve" smooth="yes"/>
      <point x="482" y="108" type="line" smooth="yes"/>
      <point x="498" y="108"/>
      <point x="511" y="117"/>
      <point x="512" y="144" type="curve"/>
      <point x="512" y="151" type="line"/>
      <point x="512" y="162"/>
      <point x="505" y="175"/>
      <point x="490" y="175" type="curve" smooth="yes"/>
      <point x="62" y="175" type="line" smooth="yes"/>
      <point x="46" y="175"/>
      <point x="33" y="166"/>
      <point x="32" y="139" type="curve"/>
      <point x="32" y="132" type="line"/>
      <point x="32" y="121"/>
      <point x="39" y="108"/>
    </contour>
  </outline>
</glyph>
<glyph name="greater" format="2">
  <advance width="560"/>
  <unicode hex="003E"/>
  <outline>
    <contour>
      <point x="59" y="9" type="curve" smooth="yes"/>
      <point x="488" y="183" type="line" smooth="yes"/>
      <point x="502" y="189"/>
      <point x="518" y="207"/>
      <point x="518" y="233" type="curve"/>
      <point x="518" y="239" type="line"/>
      <point x="518" y="254"/>
      <point x="512" y="263"/>
      <point x="497" y="270" type="curve" smooth="yes"/>
      <point x="104" y="444" type="line" smooth="yes"/>
      <point x="84" y="454"/>
      <point x="65" y="441"/>
      <point x="65" y="410" type="curve"/>
      <point x="65" y="407" type="line"/>
      <point x="65" y="388"/>
      <point x="72" y="378"/>
      <point x="85" y="372" type="curve" smooth="yes"/>
      <point x="425" y="226" type="line"/>
      <point x="54" y="81" type="line" smooth="yes"/>
      <point x="38" y="75"/>
      <point x="25" y="64"/>
      <point x="25" y="37" type="curve"/>
      <point x="25" y="32" type="line"/>
      <point x="25" y="11"/>
      <point x="33" y="0"/>
    </contour>
  </outline>
</glyph>
<glyph name="question" format="2">
  <advance width="445"/>
  <unicode hex="003F"/>
  <outline>
    <contour>
      <point x="163" y="202" type="curve" smooth="yes"/>
      <point x="178" y="202" type="line" smooth="yes"/>
      <point x="201" y="202"/>
      <point x="210" y="209"/>
      <point x="213" y="222" type="curve" smooth="yes"/>
      <point x="226" y="277"/>
      <point x="276" y="321"/>
      <point x="326" y="366" type="curve" smooth="yes"/>
      <point x="385" y="420"/>
      <point x="445" y="476"/>
      <point x="445" y="556" type="curve" smooth="yes"/>
      <point x="445" y="638"/>
      <point x="381" y="706"/>
      <point x="257" y="706" type="curve" smooth="yes"/>
      <point x="181" y="706"/>
      <point x="79" y="682"/>
      <point x="79" y="647" type="curve" smooth="yes"/>
      <point x="79" y="631"/>
      <point x="95" y="598"/>
      <point x="105" y="598" type="curve" smooth="yes"/>
      <point x="120" y="598"/>
      <point x="170" y="632"/>
      <point x="233" y="632" type="curve" smooth="yes"/>
      <point x="310" y="632"/>
      <point x="349" y="603"/>
      <point x="349" y="543" type="curve" smooth="yes"/>
      <point x="349" y="484"/>
      <point x="302" y="442"/>
      <point x="238" y="384" type="curve" smooth="yes"/>
      <point x="178" y="330"/>
      <point x="135" y="266"/>
      <point x="135" y="223" type="curve" smooth="yes"/>
      <point x="135" y="210"/>
      <point x="143" y="202"/>
    </contour>
    <contour>
      <point x="141" y="-2" type="curve" smooth="yes"/>
      <point x="158" y="-2" type="line" smooth="yes"/>
      <point x="184" y="-2"/>
      <point x="199" y="6"/>
      <point x="201" y="20" type="curve" smooth="yes"/>
      <point x="208" y="86" type="line"/>
      <point x="208" y="100"/>
      <point x="199" y="108"/>
      <point x="170" y="108" type="curve" smooth="yes"/>
      <point x="153" y="108" type="line" smooth="yes"/>
      <point x="125" y="108"/>
      <point x="112" y="100"/>
      <point x="111" y="86" type="curve" smooth="yes"/>
      <point x="104" y="20" type="line"/>
      <point x="104" y="6"/>
      <point x="112" y="-2"/>
    </contour>
  </outline>
</glyph>
<glyph name="A" format="2">
  <advance width="613"/>
  <unicode hex="0041"/>
  <anchor x="279" y="0" name="bottom"/>
  <anchor x="539" y="0" name="ogonek"/>
  <anchor x="342" y="700" name="top"/>
  <outline>
    <contour>
      <point x="18" y="-2" type="curve" smooth="yes"/>
      <point x="23" y="-2" type="line" smooth="yes"/>
      <point x="43" y="-2"/>
      <point x="59" y="2"/>
      <point x="64" y="14" type="curve" smooth="yes"/>
      <point x="138" y="178" type="line"/>
      <point x="432" y="178" type="line"/>
      <point x="474" y="14" type="line" smooth="yes"/>
      <point x="477" y="2"/>
      <point x="493" y="-2"/>
      <point x="513" y="-2" type="curve" smooth="yes"/>
      <point x="521" y="-2" type="line" smooth="yes"/>
      <point x="555" y="-2"/>
      <point x="565" y="7"/>
      <point x="565" y="18" type="curve" smooth="yes"/>
      <point x="565" y="21"/>
      <point x="565" y="24"/>
      <point x="564" y="28" type="curve" smooth="yes"/>
      <point x="396" y="686" type="line" smooth="yes"/>
      <point x="393" y="698"/>
      <point x="377" y="702"/>
      <point x="357" y="702" type="curve" smooth="yes"/>
      <point x="328" y="702" type="line" smooth="yes"/>
      <point x="307" y="702"/>
      <point x="292" y="698"/>
      <point x="287" y="686" type="curve" smooth="yes"/>
      <point x="-18" y="29" type="line" smooth="yes"/>
      <point x="-21" y="23"/>
      <point x="-23" y="18"/>
      <point x="-23" y="14" type="curve" smooth="yes"/>
      <point x="-23" y="3"/>
      <point x="-10" y="-2"/>
    </contour>
    <contour>
      <point x="174" y="254" type="line"/>
      <point x="311" y="552" type="line" smooth="yes"/>
      <point x="319" y="570"/>
      <point x="326" y="591"/>
      <point x="332" y="610" type="curve"/>
      <point x="334" y="610" type="line"/>
      <point x="334" y="591"/>
      <point x="335" y="571"/>
      <point x="340" y="552" type="curve" smooth="yes"/>
      <point x="413" y="254" type="line"/>
    </contour>
  </outline>
</glyph>
<glyph name="B" format="2">
  <advance width="593"/>
  <unicode hex="0042"/>
  <anchor x="270" y="0" name="bottom"/>
  <anchor x="343" y="700" name="top"/>
  <outline>
    <contour>
      <point x="78" y="0" type="curve" smooth="yes"/>
      <point x="255" y="0" type="line" smooth="yes"/>
      <point x="424" y="0"/>
      <point x="541" y="67"/>
      <point x="541" y="219" type="curve" smooth="yes"/>
      <point x="541" y="336"/>
      <point x="414" y="367"/>
      <point x="414" y="367" type="curve"/>
      <point x="415" y="371" type="line"/>
      <point x="483" y="389"/>
      <point x="545" y="469"/>
      <point x="545" y="544" type="curve" smooth="yes"/>
      <point x="545" y="637"/>
      <point x="474" y="700"/>
      <point x="335" y="700" type="curve" smooth="yes"/>
      <point x="151" y="700" type="line" smooth="yes"/>
      <point x="130" y="700"/>
      <point x="120" y="691"/>
      <point x="118" y="668" type="curve" smooth="yes"/>
      <point x="51" y="31" type="line" smooth="yes"/>
      <point x="49" y="7"/>
      <point x="59" y="0"/>
    </contour>
    <contour>
      <point x="144" y="76" type="line"/>
      <point x="170" y="322" type="line"/>
      <point x="304" y="322" type="line" smooth="yes"/>
      <point x="400" y="322"/>
      <point x="450" y="284"/>
      <point x="450" y="220" type="curve" smooth="yes"/>
      <point x="450" y="132"/>
      <point x="388" y="76"/>
      <point x="295" y="76" type="curve" smooth="yes"/>
    </contour>
    <contour>
      <point x="178" y="398" type="line"/>
      <point x="201" y="624" type="line"/>
      <point x="318" y="624" type="line" smooth="yes"/>
      <point x="410" y="624"/>
      <point x="453" y="594"/>
      <point x="453" y="532" type="curve" smooth="yes"/>
      <point x="453" y="459"/>
      <point x="389" y="398"/>
      <point x="299" y="398" type="curve" smooth="yes"/>
    </contour>
  </outline>
</glyph>
<glyph name="C" format="2">
  <advance width="619"/>
  <unicode hex="0043"/>
  <anchor x="310" y="0" name="bottom"/>
  <anchor x="389" y="700" name="top"/>
  <outline>
    <contour>
      <point x="326" y="-6" type="curve" smooth="yes"/>
      <point x="376" y="-6"/>
      <point x="483" y="5"/>
      <point x="512" y="39" type="curve" smooth="yes"/>
      <point x="524" y="55"/>
      <point x="526" y="94"/>
      <point x="526" y="107" type="curve" smooth="yes"/>
      <point x="526" y="118"/>
      <point x="521" y="118"/>
      <point x="519" y="118" type="curve" smooth="yes"/>
      <point x="510" y="118"/>
      <point x="443" y="70"/>
      <point x="334" y="70" type="curve" smooth="yes"/>
      <point x="195" y="70"/>
      <point x="128" y="138"/>
      <point x="128" y="286" type="curve" smooth="yes"/>
      <point x="128" y="481"/>
      <point x="200" y="630"/>
      <point x="392" y="630" type="curve" smooth="yes"/>
      <point x="488" y="630"/>
      <point x="539" y="586"/>
      <point x="550" y="586" type="curve" smooth="yes"/>
      <point x="563" y="586"/>
      <point x="590" y="629"/>
      <point x="590" y="645" type="curve" smooth="yes"/>
      <point x="590" y="654"/>
      <point x="579" y="665"/>
      <point x="561" y="674" type="curve" smooth="yes"/>
      <point x="528" y="692"/>
      <point x="470" y="706"/>
      <point x="407" y="706" type="curve" smooth="yes"/>
      <point x="125" y="706"/>
      <point x="38" y="501"/>
      <point x="38" y="274" type="curve" smooth="yes"/>
      <point x="38" y="83"/>
      <point x="131" y="-6"/>
    </contour>
  </outline>
</glyph>
<glyph name="D" format="2">
  <advance width="695"/>
  <unicode hex="0044"/>
  <anchor x="291" y="0" name="bottom"/>
  <anchor x="348" y="350" name="center"/>
  <anchor x="348" y="700" name="top"/>
  <outline>
    <contour>
      <point x="77" y="0" type="curve" smooth="yes"/>
      <point x="292" y="0" type="line" smooth="yes"/>
      <point x="471" y="0"/>
      <point x="643" y="105"/>
      <point x="643" y="415" type="curve" smooth="yes"/>
      <point x="643" y="624"/>
      <point x="522" y="700"/>
      <point x="365" y="700" type="curve" smooth="yes"/>
      <point x="150" y="700" type="line" smooth="yes"/>
      <point x="129" y="700"/>
      <point x="119" y="691"/>
      <point x="117" y="670" type="curve"/>
      <point x="50" y="24" type="line"/>
      <point x="50" y="7"/>
      <point x="58" y="0"/>
    </contour>
    <contour>
      <point x="143" y="76" type="line"/>
      <point x="200" y="624" type="line"/>
      <point x="350" y="624" type="line" smooth="yes"/>
      <point x="464" y="624"/>
      <point x="552" y="567"/>
      <point x="552" y="401" type="curve" smooth="yes"/>
      <point x="552" y="163"/>
      <point x="423" y="76"/>
      <point x="293" y="76" type="curve" smooth="yes"/>
    </contour>
  </outline>
</glyph>
<glyph name="E" format="2">
  <advance width="546"/>
  <unicode hex="0045"/>
  <anchor x="251" y="0" name="bottom"/>
  <anchor x="426" y="0" name="ogonek"/>
  <anchor x="323" y="700" name="top"/>
  <outline>
    <contour>
      <point x="72" y="0" type="curve" smooth="yes"/>
      <point x="426" y="0" type="line" smooth="yes"/>
      <point x="449" y="0"/>
      <point x="451" y="27"/>
      <point x="451" y="49" type="curve" smooth="yes"/>
      <point x="451" y="54" type="line" smooth="yes"/>
      <point x="451" y="69"/>
      <point x="446" y="76"/>
      <point x="434" y="76" type="curve" smooth="yes"/>
      <point x="138" y="76" type="line"/>
      <point x="163" y="320" type="line"/>
      <point x="427" y="320" type="line" smooth="yes"/>
      <point x="450" y="320"/>
      <point x="452" y="346"/>
      <point x="452" y="368" type="curve" smooth="yes"/>
      <point x="452" y="374" type="line" smooth="yes"/>
      <point x="452" y="389"/>
      <point x="447" y="396"/>
      <point x="435" y="396" type="curve" smooth="yes"/>
      <point x="171" y="396" type="line"/>
      <point x="195" y="624" type="line"/>
      <point x="490" y="624" type="line" smooth="yes"/>
      <point x="513" y="624"/>
      <point x="515" y="650"/>
      <point x="515" y="673" type="curve" smooth="yes"/>
      <point x="515" y="678" type="line" smooth="yes"/>
      <point x="515" y="693"/>
      <point x="510" y="700"/>
      <point x="498" y="700" type="curve" smooth="yes"/>
      <point x="145" y="700" type="line" smooth="yes"/>
      <point x="124" y="700"/>
      <point x="114" y="691"/>
      <point x="112" y="670" type="curve" smooth="yes"/>
      <point x="45" y="24" type="line" smooth="yes"/>
      <point x="45" y="7"/>
      <point x="53" y="0"/>
    </contour>
  </outline>
</glyph>
<glyph name="F" format="2">
  <advance width="503"/>
  <unicode hex="0046"/>
  <anchor x="91" y="0" name="bottom"/>
  <anchor x="298" y="700" name="top"/>
  <outline>
    <contour>
      <point x="87" y="-2" type="curve" smooth="yes"/>
      <point x="95" y="-2" type="line" smooth="yes"/>
      <point x="120" y="-2"/>
      <point x="135" y="6"/>
      <point x="137" y="20" type="curve" smooth="yes"/>
      <point x="168" y="320" type="line"/>
      <point x="419" y="320" type="line" smooth="yes"/>
      <point x="442" y="320"/>
      <point x="444" y="345"/>
      <point x="444" y="367" type="curve" smooth="yes"/>
      <point x="444" y="374" type="line" smooth="yes"/>
      <point x="444" y="389"/>
      <point x="439" y="396"/>
      <point x="427" y="396" type="curve" smooth="yes"/>
      <point x="176" y="396" type="line"/>
      <point x="200" y="624" type="line"/>
      <point x="459" y="624" type="line" smooth="yes"/>
      <point x="481" y="624"/>
      <point x="484" y="649"/>
      <point x="484" y="671" type="curve" smooth="yes"/>
      <point x="484" y="678" type="line" smooth="yes"/>
      <point x="484" y="693"/>
      <point x="479" y="700"/>
      <point x="467" y="700" type="curve" smooth="yes"/>
      <point x="150" y="700" type="line" smooth="yes"/>
      <point x="129" y="700"/>
      <point x="119" y="691"/>
      <point x="117" y="670" type="curve" smooth="yes"/>
      <point x="49" y="20" type="line" smooth="yes"/>
      <point x="49" y="6"/>
      <point x="57" y="-2"/>
    </contour>
  </outline>
</glyph>
<glyph name="G" format="2">
  <advance width="672"/>
  <unicode hex="0047"/>
  <anchor x="336" y="0" name="bottom"/>
  <anchor x="396" y="700" name="top"/>
  <outline>
    <contour>
      <point x="328" y="-6" type="curve" smooth="yes"/>
      <point x="442" y="-6"/>
      <point x="553" y="10"/>
      <point x="559" y="66" type="curve" smooth="yes"/>
      <point x="587" y="337" type="line" smooth="yes"/>
      <point x="587" y="353"/>
      <point x="579" y="361"/>
      <point x="560" y="361" type="curve" smooth="yes"/>
      <point x="384" y="361" type="line" smooth="yes"/>
      <point x="364" y="361"/>
      <point x="359" y="341"/>
      <point x="359" y="321" type="curve" smooth="yes"/>
      <point x="359" y="307" type="line" smooth="yes"/>
      <point x="359" y="292"/>
      <point x="364" y="285"/>
      <point x="376" y="285" type="curve" smooth="yes"/>
      <point x="494" y="285" type="line"/>
      <point x="468" y="45" type="line"/>
      <point x="485" y="87" type="line"/>
      <point x="465" y="79"/>
      <point x="404" y="70"/>
      <point x="342" y="70" type="curve" smooth="yes"/>
      <point x="190" y="70"/>
      <point x="144" y="165"/>
      <point x="144" y="288" type="curve" smooth="yes"/>
      <point x="144" y="501"/>
      <point x="228" y="630"/>
      <point x="404" y="630" type="curve" smooth="yes"/>
      <point x="506" y="630"/>
      <point x="551" y="586"/>
      <point x="562" y="586" type="curve" smooth="yes"/>
      <point x="575" y="586"/>
      <point x="602" y="629"/>
      <point x="602" y="645" type="curve" smooth="yes"/>
      <point x="602" y="672"/>
      <point x="515" y="706"/>
      <point x="418" y="706" type="curve" smooth="yes"/>
      <point x="196" y="706"/>
      <point x="52" y="572"/>
      <point x="52" y="275" type="curve" smooth="yes"/>
      <point x="52" y="84"/>
      <point x="149" y="-6"/>
    </contour>
  </outline>
</glyph>
<glyph name="I" format="2">
  <advance width="282"/>
  <unicode hex="0049"/>
  <anchor x="101" y="0" name="bottom"/>
  <anchor x="128" y="0" name="ogonek"/>
  <anchor x="180" y="700" name="top"/>
  <outline>
    <contour>
      <point x="100" y="-2" type="curve" smooth="yes"/>
      <point x="108" y="-2" type="line" smooth="yes"/>
      <point x="134" y="-2"/>
      <point x="148" y="6"/>
      <point x="150" y="20" type="curve" smooth="yes"/>
      <point x="219" y="680" type="line"/>
      <point x="219" y="694"/>
      <point x="210" y="702"/>
      <point x="181" y="702" type="curve" smooth="yes"/>
      <point x="173" y="702" type="line" smooth="yes"/>
      <point x="145" y="702"/>
      <point x="132" y="694"/>
      <point x="131" y="680" type="curve" smooth="yes"/>
      <point x="62" y="20" type="line"/>
      <point x="62" y="6"/>
      <point x="70" y="-2"/>
    </contour>
  </outline>
</glyph>
<glyph name="J" format="2">
  <advance width="402"/>
  <unicode hex="004A"/>
  <anchor x="308" y="702" name="top"/>
  <outline>
    <contour>
      <point x="77" y="-6" type="curve" smooth="yes"/>
      <point x="224" y="-6"/>
      <point x="291" y="79"/>
      <point x="304" y="205" type="curve" smooth="yes"/>
      <point x="354" y="680" type="line"/>
      <point x="354" y="694"/>
      <point x="345" y="702"/>
      <point x="316" y="702" type="curve" smooth="yes"/>
      <point x="308" y="702" type="line" smooth="yes"/>
      <point x="279" y="702"/>
      <point x="267" y="694"/>
      <point x="266" y="680" type="curve" smooth="yes"/>
      <point x="215" y="201" type="line" smooth="yes"/>
      <point x="206" y="115"/>
      <point x="163" y="76"/>
      <point x="70" y="76" type="curve" smooth="yes"/>
      <point x="30" y="76"/>
      <point x="13" y="85"/>
      <point x="4" y="85" type="curve" smooth="yes"/>
      <point x="-5" y="85"/>
      <point x="-11" y="70"/>
      <point x="-11" y="26" type="curve" smooth="yes"/>
      <point x="-11" y="1"/>
      <point x="34" y="-6"/>
    </contour>
  </outline>
</glyph>
<glyph name="K" format="2">
  <advance width="576"/>
  <unicode hex="004B"/>
  <anchor x="260" y="0" name="bottom"/>
  <anchor x="315" y="700" name="top"/>
  <outline>
    <contour>
      <point x="82" y="-2" type="curve" smooth="yes"/>
      <point x="90" y="-2" type="line" smooth="yes"/>
      <point x="115" y="-2"/>
      <point x="130" y="6"/>
      <point x="132" y="20" type="curve" smooth="yes"/>
      <point x="165" y="333" type="line"/>
      <point x="169" y="333" type="line"/>
      <point x="421" y="11" type="line" smooth="yes"/>
      <point x="430" y="0"/>
      <point x="446" y="-2"/>
      <point x="475" y="-2" type="curve" smooth="yes"/>
      <point x="482" y="-2" type="line" smooth="yes"/>
      <point x="513" y="-2"/>
      <point x="526" y="1"/>
      <point x="527" y="12" type="curve" smooth="yes"/>
      <point x="527" y="16"/>
      <point x="526" y="20"/>
      <point x="520" y="28" type="curve" smooth="yes"/>
      <point x="259" y="360" type="line"/>
      <point x="537" y="669" type="line" smooth="yes"/>
      <point x="545" y="677"/>
      <point x="549" y="684"/>
      <point x="549" y="690" type="curve" smooth="yes"/>
      <point x="549" y="696"/>
      <point x="538" y="702"/>
      <point x="515" y="702" type="curve" smooth="yes"/>
      <point x="505" y="702" type="line" smooth="yes"/>
      <point x="483" y="702"/>
      <point x="460" y="699"/>
      <point x="450" y="688" type="curve" smooth="yes"/>
      <point x="173" y="374" type="line"/>
      <point x="169" y="374" type="line"/>
      <point x="201" y="680" type="line"/>
      <point x="201" y="694"/>
      <point x="192" y="702"/>
      <point x="163" y="702" type="curve" smooth="yes"/>
      <point x="155" y="702" type="line" smooth="yes"/>
      <point x="127" y="702"/>
      <point x="114" y="694"/>
      <point x="113" y="680" type="curve" smooth="yes"/>
      <point x="44" y="20" type="line"/>
      <point x="44" y="6"/>
      <point x="52" y="-2"/>
    </contour>
  </outline>
</glyph>
<glyph name="L" format="2">
  <advance width="484"/>
  <unicode hex="004C"/>
  <anchor x="242" y="0" name="bottom"/>
  <anchor x="292" y="700" name="caron"/>
  <anchor x="168" y="702" name="top"/>
  <outline>
    <contour>
      <point x="77" y="0" type="curve" smooth="yes"/>
      <point x="426" y="0" type="line" smooth="yes"/>
      <point x="449" y="0"/>
      <point x="451" y="26"/>
      <point x="451" y="48" type="curve" smooth="yes"/>
      <point x="451" y="54" type="line" smooth="yes"/>
      <point x="451" y="69"/>
      <point x="446" y="76"/>
      <point x="434" y="76" type="curve" smooth="yes"/>
      <point x="143" y="76" type="line"/>
      <point x="206" y="680" type="line"/>
      <point x="206" y="694"/>
      <point x="197" y="702"/>
      <point x="168" y="702" type="curve" smooth="yes"/>
      <point x="160" y="702" type="line" smooth="yes"/>
      <point x="132" y="702"/>
      <point x="119" y="694"/>
      <point x="118" y="680" type="curve" smooth="yes"/>
      <point x="50" y="30" type="line"/>
      <point x="50" y="9"/>
      <point x="55" y="0"/>
    </contour>
  </outline>
</glyph>
<glyph name="M" format="2">
  <advance width="843"/>
  <unicode hex="004D"/>
  <outline>
    <contour>
      <point x="385" y="195" type="curve" smooth="yes"/>
      <point x="425" y="195" type="line" smooth="yes"/>
      <point x="436" y="195"/>
      <point x="443" y="199"/>
      <point x="449" y="208" type="curve" smooth="yes"/>
      <point x="660" y="520" type="line" smooth="yes"/>
      <point x="669" y="533"/>
      <point x="676" y="544"/>
      <point x="683" y="556" type="curve"/>
      <point x="687" y="554" type="line"/>
      <point x="684" y="540"/>
      <point x="681" y="513"/>
      <point x="680" y="501" type="curve" smooth="yes"/>
      <point x="630" y="20" type="line" smooth="yes"/>
      <point x="630" y="6"/>
      <point x="638" y="-2"/>
      <point x="668" y="-2" type="curve" smooth="yes"/>
      <point x="675" y="-2" type="line" smooth="yes"/>
      <point x="701" y="-2"/>
      <point x="715" y="6"/>
      <point x="717" y="20" type="curve" smooth="yes"/>
      <point x="786" y="680" type="line"/>
      <point x="786" y="694"/>
      <point x="777" y="702"/>
      <point x="748" y="702" type="curve" smooth="yes"/>
      <point x="715" y="702" type="line" smooth="yes"/>
      <point x="691" y="702"/>
      <point x="679" y="695"/>
      <point x="672" y="684" type="curve" smooth="yes"/>
      <point x="448" y="350" type="line" smooth="yes"/>
      <point x="438" y="335"/>
      <point x="426" y="316"/>
      <point x="416" y="293" type="curve"/>
      <point x="412" y="316"/>
      <point x="404" y="339"/>
      <point x="396" y="356" type="curve" smooth="yes"/>
      <point x="242" y="684" type="line" smooth="yes"/>
      <point x="237" y="695"/>
      <point x="225" y="702"/>
      <point x="201" y="702" type="curve" smooth="yes"/>
      <point x="165" y="702" type="line" smooth="yes"/>
      <point x="137" y="702"/>
      <point x="124" y="694"/>
      <point x="123" y="680" type="curve" smooth="yes"/>
      <point x="54" y="20" type="line"/>
      <point x="54" y="6"/>
      <point x="62" y="-2"/>
      <point x="92" y="-2" type="curve" smooth="yes"/>
      <point x="99" y="-2" type="line" smooth="yes"/>
      <point x="125" y="-2"/>
      <point x="139" y="6"/>
      <point x="141" y="20" type="curve" smooth="yes"/>
      <point x="193" y="514" type="line" smooth="yes"/>
      <point x="195" y="530"/>
      <point x="197" y="547"/>
      <point x="196" y="563" type="curve"/>
      <point x="200" y="564" type="line"/>
      <point x="205" y="550"/>
      <point x="211" y="537"/>
      <point x="217" y="524" type="curve" smooth="yes"/>
      <point x="365" y="208" type="line" smooth="yes"/>
      <point x="369" y="199"/>
      <point x="375" y="195"/>
    </contour>
  </outline>
</glyph>
<glyph name="N" format="2">
  <advance width="719"/>
  <unicode hex="004E"/>
  <anchor x="336" y="0" name="bottom"/>
  <anchor x="391" y="700" name="top"/>
  <outline>
    <contour>
      <point x="90" y="-2" type="curve" smooth="yes"/>
      <point x="97" y="-2" type="line" smooth="yes"/>
      <point x="123" y="-2"/>
      <point x="137" y="6"/>
      <point x="139" y="20" type="curve" smooth="yes"/>
      <point x="189" y="494" type="line" smooth="yes"/>
      <point x="192" y="518"/>
      <point x="193" y="540"/>
      <point x="193" y="560" type="curve"/>
      <point x="200" y="561" type="line"/>
      <point x="205" y="539"/>
      <point x="211" y="522"/>
      <point x="222" y="501" type="curve" smooth="yes"/>
      <point x="501" y="12" type="line" smooth="yes"/>
      <point x="506" y="3"/>
      <point x="516" y="-2"/>
      <point x="535" y="-2" type="curve" smooth="yes"/>
      <point x="555" y="-2" type="line" smooth="yes"/>
      <point x="581" y="-2"/>
      <point x="595" y="6"/>
      <point x="597" y="20" type="curve" smooth="yes"/>
      <point x="666" y="680" type="line"/>
      <point x="666" y="694"/>
      <point x="657" y="702"/>
      <point x="628" y="702" type="curve" smooth="yes"/>
      <point x="621" y="702" type="line" smooth="yes"/>
      <point x="593" y="702"/>
      <point x="580" y="694"/>
      <point x="579" y="680" type="curve" smooth="yes"/>
      <point x="530" y="212" type="line" smooth="yes"/>
      <point x="527" y="188"/>
      <point x="526" y="166"/>
      <point x="526" y="146" type="curve"/>
      <point x="519" y="145" type="line"/>
      <point x="514" y="167"/>
      <point x="508" y="184"/>
      <point x="497" y="205" type="curve" smooth="yes"/>
      <point x="224" y="683" type="line" smooth="yes"/>
      <point x="216" y="697"/>
      <point x="206" y="702"/>
      <point x="184" y="702" type="curve" smooth="yes"/>
      <point x="163" y="702" type="line" smooth="yes"/>
      <point x="135" y="702"/>
      <point x="122" y="694"/>
      <point x="121" y="680" type="curve" smooth="yes"/>
      <point x="52" y="20" type="line"/>
      <point x="52" y="6"/>
      <point x="60" y="-2"/>
    </contour>
  </outline>
</glyph>
<glyph name="O" format="2">
  <advance width="731"/>
  <unicode hex="004F"/>
  <anchor x="327" y="0" name="bottom"/>
  <anchor x="503" y="682" name="horn"/>
  <anchor x="403" y="0" name="ogonek"/>
  <anchor x="402" y="700" name="top"/>
  <outline>
    <contour>
      <point x="327" y="-6" type="curve" smooth="yes"/>
      <point x="541" y="-6"/>
      <point x="678" y="142"/>
      <point x="678" y="420" type="curve" smooth="yes"/>
      <point x="678" y="609"/>
      <point x="582" y="706"/>
      <point x="402" y="706" type="curve" smooth="yes"/>
      <point x="139" y="706"/>
      <point x="53" y="492"/>
      <point x="53" y="282" type="curve" smooth="yes"/>
      <point x="53" y="93"/>
      <point x="148" y="-6"/>
    </contour>
    <contour>
      <point x="335" y="70" type="curve" smooth="yes"/>
      <point x="210" y="70"/>
      <point x="144" y="146"/>
      <point x="144" y="291" type="curve" smooth="yes"/>
      <point x="144" y="515"/>
      <point x="242" y="630"/>
      <point x="394" y="630" type="curve" smooth="yes"/>
      <point x="519" y="630"/>
      <point x="586" y="556"/>
      <point x="586" y="410" type="curve" smooth="yes"/>
      <point x="586" y="189"/>
      <point x="485" y="70"/>
    </contour>
  </outline>
</glyph>
<glyph name="P" format="2">
  <advance width="570"/>
  <unicode hex="0050"/>
  <anchor x="92" y="0" name="bottom"/>
  <anchor x="331" y="700" name="top"/>
  <outline>
    <contour>
      <point x="88" y="-2" type="curve" smooth="yes"/>
      <point x="96" y="-2" type="line" smooth="yes"/>
      <point x="122" y="-2"/>
      <point x="136" y="6"/>
      <point x="138" y="20" type="curve" smooth="yes"/>
      <point x="167" y="298" type="line"/>
      <point x="322" y="298" type="line" smooth="yes"/>
      <point x="374" y="298"/>
      <point x="559" y="323"/>
      <point x="559" y="533" type="curve" smooth="yes"/>
      <point x="559" y="676"/>
      <point x="435" y="700"/>
      <point x="354" y="700" type="curve" smooth="yes"/>
      <point x="151" y="700" type="line" smooth="yes"/>
      <point x="130" y="700"/>
      <point x="120" y="691"/>
      <point x="118" y="670" type="curve" smooth="yes"/>
      <point x="50" y="20" type="line"/>
      <point x="50" y="6"/>
      <point x="58" y="-2"/>
    </contour>
    <contour>
      <point x="175" y="374" type="line"/>
      <point x="201" y="624" type="line"/>
      <point x="343" y="624" type="line" smooth="yes"/>
      <point x="398" y="624"/>
      <point x="467" y="605"/>
      <point x="467" y="521" type="curve" smooth="yes"/>
      <point x="467" y="397"/>
      <point x="370" y="374"/>
      <point x="331" y="374" type="curve" smooth="yes"/>
    </contour>
  </outline>
</glyph>
<glyph name="Q" format="2">
  <advance width="731"/>
  <unicode hex="0051"/>
  <outline>
    <contour>
      <point x="629" y="-157" type="curve" smooth="yes"/>
      <point x="640" y="-157"/>
      <point x="650" y="-147"/>
      <point x="650" y="-82" type="curve" smooth="yes"/>
      <point x="650" y="-71"/>
      <point x="648" y="-66"/>
      <point x="638" y="-62" type="curve"/>
      <point x="444" y="1" type="line"/>
      <point x="444" y="5" type="line"/>
      <point x="590" y="43"/>
      <point x="685" y="187"/>
      <point x="685" y="417" type="curve" smooth="yes"/>
      <point x="685" y="606"/>
      <point x="590" y="706"/>
      <point x="410" y="706" type="curve" smooth="yes"/>
      <point x="196" y="706"/>
      <point x="60" y="557"/>
      <point x="60" y="278" type="curve" smooth="yes"/>
      <point x="60" y="138"/>
      <point x="112" y="47"/>
      <point x="217" y="6" type="curve" smooth="yes"/>
      <point x="248" y="-6"/>
      <point x="612" y="-157"/>
    </contour>
    <contour>
      <point x="343" y="67" type="curve" smooth="yes"/>
      <point x="220" y="67"/>
      <point x="152" y="145"/>
      <point x="152" y="290" type="curve" smooth="yes"/>
      <point x="152" y="509"/>
      <point x="254" y="630"/>
      <point x="402" y="630" type="curve" smooth="yes"/>
      <point x="526" y="630"/>
      <point x="593" y="550"/>
      <point x="593" y="404" type="curve" smooth="yes"/>
      <point x="593" y="187"/>
      <point x="492" y="67"/>
    </contour>
  </outline>
</glyph>
<glyph name="R" format="2">
  <advance width="610"/>
  <unicode hex="0052"/>
  <anchor x="275" y="0" name="bottom"/>
  <anchor x="305" y="700" name="top"/>
  <outline>
    <contour>
      <point x="88" y="-2" type="curve" smooth="yes"/>
      <point x="96" y="-2" type="line" smooth="yes"/>
      <point x="121" y="-2"/>
      <point x="136" y="6"/>
      <point x="138" y="20" type="curve" smooth="yes"/>
      <point x="168" y="308" type="line"/>
      <point x="258" y="308" type="line" smooth="yes"/>
      <point x="336" y="308"/>
      <point x="375" y="288"/>
      <point x="397" y="210" type="curve" smooth="yes"/>
      <point x="452" y="14" type="line" smooth="yes"/>
      <point x="455" y="2"/>
      <point x="471" y="-2"/>
      <point x="491" y="-2" type="curve" smooth="yes"/>
      <point x="501" y="-2" type="line" smooth="yes"/>
      <point x="534" y="-2"/>
      <point x="545" y="5"/>
      <point x="545" y="17" type="curve" smooth="yes"/>
      <point x="545" y="20"/>
      <point x="544" y="24"/>
      <point x="543" y="28" type="curve" smooth="yes"/>
      <point x="485" y="225" type="line" smooth="yes"/>
      <point x="465" y="291"/>
      <point x="447" y="336"/>
      <point x="409" y="350" type="curve"/>
      <point x="409" y="354" type="line"/>
      <point x="488" y="384"/>
      <point x="543" y="448"/>
      <point x="543" y="548" type="curve" smooth="yes"/>
      <point x="543" y="656"/>
      <point x="464" y="700"/>
      <point x="319" y="700" type="curve" smooth="yes"/>
      <point x="151" y="700" type="line" smooth="yes"/>
      <point x="130" y="700"/>
      <point x="120" y="691"/>
      <point x="118" y="670" type="curve" smooth="yes"/>
      <point x="50" y="20" type="line"/>
      <point x="50" y="6"/>
      <point x="58" y="-2"/>
    </contour>
    <contour>
      <point x="176" y="384" type="line"/>
      <point x="201" y="624" type="line"/>
      <point x="326" y="624" type="line" smooth="yes"/>
      <point x="401" y="624"/>
      <point x="450" y="593"/>
      <point x="450" y="525" type="curve" smooth="yes"/>
      <point x="450" y="451"/>
      <point x="388" y="384"/>
      <point x="308" y="384" type="curve" smooth="yes"/>
    </contour>
  </outline>
</glyph>
<glyph name="T" format="2">
  <advance width="549"/>
  <unicode hex="0054"/>
  <anchor x="227" y="-2" name="bottom"/>
  <anchor x="275" y="350" name="center"/>
  <anchor x="305" y="700" name="top"/>
  <outline>
    <contour>
      <point x="234" y="-2" type="curve" smooth="yes"/>
      <point x="242" y="-2" type="line" smooth="yes"/>
      <point x="267" y="-2"/>
      <point x="282" y="6"/>
      <point x="284" y="20" type="curve" smooth="yes"/>
      <point x="347" y="624" type="line"/>
      <point x="537" y="624" type="line" smooth="yes"/>
      <point x="560" y="624"/>
      <point x="562" y="649"/>
      <point x="562" y="671" type="curve" smooth="yes"/>
      <point x="562" y="678" type="line" smooth="yes"/>
      <point x="562" y="693"/>
      <point x="557" y="700"/>
      <point x="545" y="700" type="curve" smooth="yes"/>
      <point x="73" y="700" type="line" smooth="yes"/>
      <point x="52" y="700"/>
      <point x="48" y="674"/>
      <point x="48" y="658" type="curve" smooth="yes"/>
      <point x="48" y="646" type="line" smooth="yes"/>
      <point x="48" y="631"/>
      <point x="53" y="624"/>
      <point x="65" y="624" type="curve" smooth="yes"/>
      <point x="259" y="624" type="line"/>
      <point x="196" y="20" type="line"/>
      <point x="196" y="6"/>
      <point x="204" y="-2"/>
    </contour>
  </outline>
</glyph>
<glyph name="U" format="2">
  <advance width="712"/>
  <unicode hex="0055"/>
  <anchor x="317" y="0" name="bottom"/>
  <anchor x="615" y="702" name="horn"/>
  <anchor x="400" y="0" name="ogonek"/>
  <anchor x="386" y="700" name="top"/>
  <outline>
    <contour>
      <point x="315" y="-6" type="curve" smooth="yes"/>
      <point x="491" y="-6"/>
      <point x="597" y="80"/>
      <point x="612" y="224" type="curve" smooth="yes"/>
      <point x="660" y="680" type="line"/>
      <point x="660" y="694"/>
      <point x="652" y="702"/>
      <point x="623" y="702" type="curve" smooth="yes"/>
      <point x="615" y="702" type="line" smooth="yes"/>
      <point x="587" y="702"/>
      <point x="573" y="694"/>
      <point x="572" y="680" type="curve" smooth="yes"/>
      <point x="524" y="221" type="line" smooth="yes"/>
      <point x="515" y="133"/>
      <point x="430" y="70"/>
      <point x="323" y="70" type="curve" smooth="yes"/>
      <point x="216" y="70"/>
      <point x="144" y="125"/>
      <point x="155" y="233" type="curve" smooth="yes"/>
      <point x="202" y="680" type="line"/>
      <point x="202" y="694"/>
      <point x="194" y="702"/>
      <point x="165" y="702" type="curve" smooth="yes"/>
      <point x="157" y="702" type="line" smooth="yes"/>
      <point x="129" y="702"/>
      <point x="115" y="694"/>
      <point x="114" y="680" type="curve"/>
      <point x="67" y="224" type="line" smooth="yes"/>
      <point x="54" y="93"/>
      <point x="154" y="-6"/>
    </contour>
  </outline>
</glyph>
<glyph name="V" format="2">
  <advance width="617"/>
  <unicode hex="0056"/>
  <outline>
    <contour>
      <point x="256" y="-2" type="curve" smooth="yes"/>
      <point x="287" y="-2" type="line" smooth="yes"/>
      <point x="307" y="-2"/>
      <point x="323" y="2"/>
      <point x="328" y="14" type="curve" smooth="yes"/>
      <point x="626" y="671" type="line" smooth="yes"/>
      <point x="629" y="677"/>
      <point x="631" y="682"/>
      <point x="631" y="686" type="curve" smooth="yes"/>
      <point x="631" y="696"/>
      <point x="618" y="702"/>
      <point x="589" y="702" type="curve" smooth="yes"/>
      <point x="583" y="702" type="line" smooth="yes"/>
      <point x="563" y="702"/>
      <point x="547" y="698"/>
      <point x="542" y="686" type="curve" smooth="yes"/>
      <point x="301" y="153" type="line"/>
      <point x="285" y="100" type="line"/>
      <point x="282" y="100" type="line"/>
      <point x="277" y="152" type="line"/>
      <point x="148" y="686" type="line" smooth="yes"/>
      <point x="145" y="698"/>
      <point x="129" y="702"/>
      <point x="109" y="702" type="curve" smooth="yes"/>
      <point x="100" y="702" type="line" smooth="yes"/>
      <point x="66" y="702"/>
      <point x="55" y="693"/>
      <point x="55" y="681" type="curve" smooth="yes"/>
      <point x="55" y="678"/>
      <point x="56" y="673"/>
      <point x="57" y="669" type="curve" smooth="yes"/>
      <point x="217" y="14" type="line"/>
      <point x="220" y="2"/>
      <point x="236" y="-2"/>
    </contour>
  </outline>
</glyph>
<glyph name="W" format="2">
  <advance width="882"/>
  <unicode hex="0057"/>
  <anchor x="481" y="700" name="top"/>
  <outline>
    <contour>
      <point x="193" y="-2" type="curve" smooth="yes"/>
      <point x="234" y="-2" type="line" smooth="yes"/>
      <point x="252" y="-2"/>
      <point x="270" y="2"/>
      <point x="275" y="14" type="curve" smooth="yes"/>
      <point x="426" y="421" type="line"/>
      <point x="461" y="551" type="line"/>
      <point x="468" y="421" type="line"/>
      <point x="534" y="14" type="line" smooth="yes"/>
      <point x="536" y="2"/>
      <point x="553" y="-2"/>
      <point x="573" y="-2" type="curve" smooth="yes"/>
      <point x="614" y="-2" type="line" smooth="yes"/>
      <point x="634" y="-2"/>
      <point x="651" y="2"/>
      <point x="655" y="14" type="curve" smooth="yes"/>
      <point x="897" y="668" type="line" smooth="yes"/>
      <point x="901" y="679"/>
      <point x="902" y="683"/>
      <point x="902" y="686" type="curve" smooth="yes"/>
      <point x="902" y="696"/>
      <point x="889" y="702"/>
      <point x="860" y="702" type="curve" smooth="yes"/>
      <point x="854" y="702" type="line" smooth="yes"/>
      <point x="834" y="702"/>
      <point x="817" y="698"/>
      <point x="813" y="686" type="curve" smooth="yes"/>
      <point x="641" y="201" type="line"/>
      <point x="629" y="168"/>
      <point x="618" y="134"/>
      <point x="606" y="101" type="curve"/>
      <point x="604" y="132"/>
      <point x="601" y="162"/>
      <point x="599" y="193" type="curve"/>
      <point x="527" y="685" type="line" smooth="yes"/>
      <point x="525" y="698"/>
      <point x="509" y="702"/>
      <point x="489" y="702" type="curve" smooth="yes"/>
      <point x="473" y="702" type="line" smooth="yes"/>
      <point x="448" y="702"/>
      <point x="437" y="698"/>
      <point x="433" y="685" type="curve" smooth="yes"/>
      <point x="261" y="199" type="line"/>
      <point x="249" y="166"/>
      <point x="238" y="134"/>
      <point x="226" y="101" type="curve"/>
      <point x="223" y="132"/>
      <point x="221" y="163"/>
      <point x="218" y="194" type="curve"/>
      <point x="142" y="686" type="line" smooth="yes"/>
      <point x="140" y="698"/>
      <point x="123" y="702"/>
      <point x="103" y="702" type="curve" smooth="yes"/>
      <point x="94" y="702" type="line" smooth="yes"/>
      <point x="62" y="702"/>
      <point x="50" y="697"/>
      <point x="50" y="684" type="curve" smooth="yes"/>
      <point x="50" y="679"/>
      <point x="52" y="666"/>
      <point x="54" y="652" type="curve" smooth="yes"/>
      <point x="154" y="14" type="line" smooth="yes"/>
      <point x="156" y="2"/>
      <point x="173" y="-2"/>
    </contour>
  </outline>
</glyph>
<glyph name="X" format="2">
  <advance width="611"/>
  <unicode hex="0058"/>
  <outline>
    <contour>
      <point x="27" y="-2" type="curve" smooth="yes"/>
      <point x="35" y="-2" type="line" smooth="yes"/>
      <point x="53" y="-2"/>
      <point x="71" y="1"/>
      <point x="79" y="12" type="curve" smooth="yes"/>
      <point x="294" y="288" type="line"/>
      <point x="449" y="13" type="line" smooth="yes"/>
      <point x="456" y="1"/>
      <point x="470" y="-2"/>
      <point x="491" y="-2" type="curve" smooth="yes"/>
      <point x="507" y="-2" type="line" smooth="yes"/>
      <point x="543" y="-2"/>
      <point x="554" y="5"/>
      <point x="554" y="17" type="curve" smooth="yes"/>
      <point x="554" y="21"/>
      <point x="551" y="27"/>
      <point x="548" y="33" type="curve" smooth="yes"/>
      <point x="359" y="370" type="line"/>
      <point x="590" y="667" type="line" smooth="yes"/>
      <point x="595" y="674"/>
      <point x="600" y="681"/>
      <point x="600" y="686" type="curve" smooth="yes"/>
      <point x="600" y="697"/>
      <point x="587" y="702"/>
      <point x="555" y="702" type="curve" smooth="yes"/>
      <point x="549" y="702" type="line" smooth="yes"/>
      <point x="531" y="702"/>
      <point x="513" y="699"/>
      <point x="505" y="688" type="curve" smooth="yes"/>
      <point x="315" y="446" type="line"/>
      <point x="180" y="687" type="line" smooth="yes"/>
      <point x="173" y="699"/>
      <point x="159" y="702"/>
      <point x="138" y="702" type="curve" smooth="yes"/>
      <point x="124" y="702" type="line" smooth="yes"/>
      <point x="88" y="702"/>
      <point x="77" y="695"/>
      <point x="77" y="683" type="curve" smooth="yes"/>
      <point x="77" y="678"/>
      <point x="79" y="673"/>
      <point x="83" y="667" type="curve" smooth="yes"/>
      <point x="251" y="365" type="line"/>
      <point x="-7" y="33" type="line" smooth="yes"/>
      <point x="-13" y="26"/>
      <point x="-17" y="19"/>
      <point x="-17" y="14" type="curve" smooth="yes"/>
      <point x="-17" y="3"/>
      <point x="-4" y="-2"/>
    </contour>
  </outline>
</glyph>
<glyph name="Y" format="2">
  <advance width="559"/>
  <unicode hex="0059"/>
  <anchor x="241" y="0" name="bottom"/>
  <anchor x="320" y="700" name="top"/>
  <outline>
    <contour>
      <point x="238" y="-2" type="curve" smooth="yes"/>
      <point x="246" y="-2" type="line" smooth="yes"/>
      <point x="272" y="-2"/>
      <point x="286" y="6"/>
      <point x="288" y="20" type="curve" smooth="yes"/>
      <point x="323" y="356" type="line"/>
      <point x="566" y="667" type="line" smooth="yes"/>
      <point x="571" y="674"/>
      <point x="576" y="681"/>
      <point x="576" y="686" type="curve" smooth="yes"/>
      <point x="576" y="696"/>
      <point x="565" y="701"/>
      <point x="540" y="702" type="curve"/>
      <point x="531" y="702" type="line"/>
      <point x="511" y="702"/>
      <point x="493" y="699"/>
      <point x="485" y="688" type="curve" smooth="yes"/>
      <point x="291" y="441" type="line"/>
      <point x="153" y="687" type="line" smooth="yes"/>
      <point x="146" y="699"/>
      <point x="132" y="702"/>
      <point x="111" y="702" type="curve" smooth="yes"/>
      <point x="100" y="702" type="line" smooth="yes"/>
      <point x="64" y="702"/>
      <point x="53" y="695"/>
      <point x="53" y="683" type="curve" smooth="yes"/>
      <point x="53" y="678"/>
      <point x="55" y="673"/>
      <point x="59" y="667" type="curve" smooth="yes"/>
      <point x="235" y="359" type="line"/>
      <point x="200" y="20" type="line"/>
      <point x="200" y="6"/>
      <point x="208" y="-2"/>
    </contour>
  </outline>
</glyph>
<glyph name="Z" format="2">
  <advance width="616"/>
  <unicode hex="005A"/>
  <anchor x="285" y="0" name="bottom"/>
  <anchor x="338" y="700" name="top"/>
  <outline>
    <contour>
      <point x="25" y="0" type="curve" smooth="yes"/>
      <point x="513" y="0" type="line" smooth="yes"/>
      <point x="535" y="0"/>
      <point x="538" y="23"/>
      <point x="538" y="44" type="curve" smooth="yes"/>
      <point x="538" y="54" type="line" smooth="yes"/>
      <point x="538" y="69"/>
      <point x="533" y="76"/>
      <point x="521" y="76" type="curve" smooth="yes"/>
      <point x="129" y="76" type="line"/>
      <point x="597" y="635" type="line" smooth="yes"/>
      <point x="601" y="639"/>
      <point x="602" y="645"/>
      <point x="602" y="652" type="curve" smooth="yes"/>
      <point x="602" y="673"/>
      <point x="591" y="700"/>
      <point x="585" y="700" type="curve" smooth="yes"/>
      <point x="126" y="700" type="line" smooth="yes"/>
      <point x="106" y="700"/>
      <point x="101" y="678"/>
      <point x="101" y="660" type="curve" smooth="yes"/>
      <point x="101" y="646" type="line" smooth="yes"/>
      <point x="101" y="631"/>
      <point x="106" y="624"/>
      <point x="118" y="624" type="curve" smooth="yes"/>
      <point x="479" y="624" type="line"/>
      <point x="11" y="65" type="line" smooth="yes"/>
      <point x="7" y="61"/>
      <point x="6" y="54"/>
      <point x="6" y="48" type="curve" smooth="yes"/>
      <point x="6" y="28"/>
      <point x="16" y="0"/>
    </contour>
  </outline>
</glyph>
<glyph name="bracketleft" format="2">
  <advance width="291"/>
  <unicode hex="005B"/>
  <outline>
    <contour>
      <point x="72" y="-138" type="curve" smooth="yes"/>
      <point x="193" y="-138" type="line" smooth="yes"/>
      <point x="213" y="-138"/>
      <point x="217" y="-113"/>
      <point x="217" y="-97" type="curve" smooth="yes"/>
      <point x="217" y="-96" type="line" smooth="yes"/>
      <point x="217" y="-82"/>
      <point x="211" y="-76"/>
      <point x="199" y="-76" type="curve" smooth="yes"/>
      <point x="122" y="-76" type="line"/>
      <point x="204" y="706" type="line"/>
      <point x="282" y="706" type="line" smooth="yes"/>
      <point x="302" y="706"/>
      <point x="306" y="730"/>
      <point x="306" y="746" type="curve"/>
      <point x="306" y="748" type="line"/>
      <point x="306" y="762"/>
      <point x="300" y="768"/>
      <point x="288" y="768" type="curve" smooth="yes"/>
      <point x="167" y="768" type="line" smooth="yes"/>
      <point x="146" y="768"/>
      <point x="136" y="759"/>
      <point x="134" y="738" type="curve" smooth="yes"/>
      <point x="104" y="456"/>
      <point x="45" y="-86"/>
      <point x="45" y="-108" type="curve" smooth="yes"/>
      <point x="45" y="-129"/>
      <point x="50" y="-138"/>
    </contour>
  </outline>
</glyph>
<glyph name="bracketright" format="2">
  <advance width="291"/>
  <unicode hex="005D"/>
  <outline>
    <contour>
      <point x="1" y="-138" type="curve" smooth="yes"/>
      <point x="122" y="-138" type="line" smooth="yes"/>
      <point x="143" y="-138"/>
      <point x="153" y="-129"/>
      <point x="155" y="-108" type="curve" smooth="yes"/>
      <point x="185" y="174"/>
      <point x="244" y="728"/>
      <point x="244" y="738" type="curve" smooth="yes"/>
      <point x="244" y="759"/>
      <point x="239" y="768"/>
      <point x="217" y="768" type="curve" smooth="yes"/>
      <point x="96" y="768" type="line" smooth="yes"/>
      <point x="76" y="768"/>
      <point x="72" y="744"/>
      <point x="72" y="728" type="curve"/>
      <point x="72" y="726" type="line"/>
      <point x="72" y="712"/>
      <point x="78" y="706"/>
      <point x="90" y="706" type="curve" smooth="yes"/>
      <point x="167" y="706" type="line"/>
      <point x="85" y="-76" type="line"/>
      <point x="7" y="-76" type="line" smooth="yes"/>
      <point x="-13" y="-76"/>
      <point x="-17" y="-100"/>
      <point x="-17" y="-116" type="curve"/>
      <point x="-17" y="-118" type="line"/>
      <point x="-17" y="-132"/>
      <point x="-11" y="-138"/>
    </contour>
  </outline>
</glyph>
<glyph name="asciicircum" format="2">
  <advance width="450"/>
  <unicode hex="005E"/>
  <outline>
    <contour>
      <point x="89" y="320" type="curve" smooth="yes"/>
      <point x="93" y="320" type="line" smooth="yes"/>
      <point x="109" y="320"/>
      <point x="121" y="327"/>
      <point x="130" y="343" type="curve" smooth="yes"/>
      <point x="282" y="638" type="line"/>
      <point x="253" y="641" type="line"/>
      <point x="343" y="343" type="line" smooth="yes"/>
      <point x="348" y="327"/>
      <point x="357" y="320"/>
      <point x="375" y="320" type="curve" smooth="yes"/>
      <point x="379" y="320" type="line" smooth="yes"/>
      <point x="396" y="320"/>
      <point x="407" y="328"/>
      <point x="409" y="341" type="curve" smooth="yes"/>
      <point x="409" y="345"/>
      <point x="409" y="350"/>
      <point x="407" y="355" type="curve" smooth="yes"/>
      <point x="315" y="664" type="line"/>
      <point x="309" y="680"/>
      <point x="300" y="684"/>
      <point x="283" y="684" type="curve" smooth="yes"/>
      <point x="263" y="684" type="line" smooth="yes"/>
      <point x="245" y="684"/>
      <point x="235" y="679"/>
      <point x="227" y="664" type="curve" smooth="yes"/>
      <point x="69" y="355" type="line" smooth="yes"/>
      <point x="66" y="348"/>
      <point x="65" y="343"/>
      <point x="65" y="337" type="curve" smooth="yes"/>
      <point x="65" y="326"/>
      <point x="73" y="320"/>
    </contour>
  </outline>
</glyph>
<glyph name="underscore" format="2">
  <advance width="534"/>
  <unicode hex="005F"/>
  <outline>
    <contour>
      <point x="-43" y="-138" type="curve" smooth="yes"/>
      <point x="492" y="-138" type="line" smooth="yes"/>
      <point x="506" y="-138"/>
      <point x="515" y="-132"/>
      <point x="515" y="-111" type="curve" smooth="yes"/>
      <point x="515" y="-110" type="line" smooth="yes"/>
      <point x="515" y="-96"/>
      <point x="511" y="-90"/>
      <point x="497" y="-90" type="curve" smooth="yes"/>
      <point x="-38" y="-90" type="line" smooth="yes"/>
      <point x="-52" y="-90"/>
      <point x="-61" y="-96"/>
      <point x="-61" y="-117" type="curve" smooth="yes"/>
      <point x="-61" y="-118" type="line" smooth="yes"/>
      <point x="-61" y="-132"/>
      <point x="-57" y="-138"/>
    </contour>
  </outline>
</glyph>
<glyph name="grave" format="2">
  <advance width="256"/>
  <unicode hex="0060"/>
  <anchor x="189" y="523" name="_top"/>
  <outline>
    <contour>
      <point x="215" y="585" type="curve" smooth="yes"/>
      <point x="230" y="585"/>
      <point x="238" y="588"/>
      <point x="238" y="594" type="curve" smooth="yes"/>
      <point x="238" y="603"/>
      <point x="229" y="622"/>
      <point x="180" y="706" type="curve" smooth="yes"/>
      <point x="169" y="725"/>
      <point x="150" y="732"/>
      <point x="118" y="732" type="curve" smooth="yes"/>
      <point x="87" y="732"/>
      <point x="71" y="729"/>
      <point x="70" y="720" type="curve"/>
      <point x="70" y="708"/>
      <point x="79" y="700"/>
      <point x="164" y="603" type="curve" smooth="yes"/>
      <point x="174" y="591"/>
      <point x="195" y="585"/>
    </contour>
  </outline>
</glyph>
<glyph name="b" format="2">
  <advance width="569"/>
  <unicode hex="0062"/>
  <outline>
    <contour>
      <point x="246" y="-6" type="curve" smooth="yes"/>
      <point x="407" y="-6"/>
      <point x="511" y="130"/>
      <point x="511" y="316" type="curve" smooth="yes"/>
      <point x="511" y="490"/>
      <point x="397" y="529"/>
      <point x="324" y="529" type="curve" smooth="yes"/>
      <point x="265" y="529"/>
      <point x="207" y="499"/>
      <point x="165" y="425" type="curve"/>
      <point x="197" y="730" type="line"/>
      <point x="197" y="745"/>
      <point x="187" y="752"/>
      <point x="159" y="752" type="curve" smooth="yes"/>
      <point x="155" y="752" type="line" smooth="yes"/>
      <point x="129" y="752"/>
      <point x="115" y="746"/>
      <point x="113" y="730" type="curve" smooth="yes"/>
      <point x="38" y="20" type="line"/>
      <point x="38" y="6"/>
      <point x="43" y="-2"/>
      <point x="63" y="-2" type="curve" smooth="yes"/>
      <point x="71" y="-2" type="line" smooth="yes"/>
      <point x="96" y="-2"/>
      <point x="109" y="30"/>
      <point x="115" y="57" type="curve" smooth="yes"/>
      <point x="120" y="76" type="line"/>
      <point x="103" y="58" type="line"/>
      <point x="120" y="38"/>
      <point x="171" y="-6"/>
    </contour>
    <contour>
      <point x="238" y="67" type="curve" smooth="yes"/>
      <point x="185" y="67"/>
      <point x="148" y="90"/>
      <point x="129" y="106" type="curve"/>
      <point x="132" y="121"/>
      <point x="135" y="138"/>
      <point x="137" y="156" type="curve" smooth="yes"/>
      <point x="151" y="290" type="line"/>
      <point x="193" y="420"/>
      <point x="260" y="456"/>
      <point x="305" y="456" type="curve" smooth="yes"/>
      <point x="371" y="456"/>
      <point x="424" y="424"/>
      <point x="424" y="310" type="curve" smooth="yes"/>
      <point x="424" y="190"/>
      <point x="387" y="67"/>
    </contour>
  </outline>
</glyph>
<glyph name="d" format="2">
  <advance width="565"/>
  <unicode hex="0064"/>
  <anchor x="261" y="0" name="bottom"/>
  <anchor x="519" y="752" name="caron"/>
  <anchor x="464" y="630" name="center"/>
  <outline>
    <contour>
      <point x="229" y="-6" type="curve" smooth="yes"/>
      <point x="297" y="-6"/>
      <point x="363" y="32"/>
      <point x="405" y="134" type="curve"/>
      <point x="390" y="141" type="line"/>
      <point x="390" y="92" type="line" smooth="yes"/>
      <point x="390" y="24"/>
      <point x="423" y="-6"/>
      <point x="480" y="-6" type="curve" smooth="yes"/>
      <point x="498" y="-6"/>
      <point x="535" y="2"/>
      <point x="540" y="27" type="curve" smooth="yes"/>
      <point x="544" y="49"/>
      <point x="544" y="63"/>
      <point x="544" y="64" type="curve" smooth="yes"/>
      <point x="544" y="70"/>
      <point x="541" y="71"/>
      <point x="538" y="71" type="curve" smooth="yes"/>
      <point x="532" y="71"/>
      <point x="523" y="66"/>
      <point x="511" y="66" type="curve" smooth="yes"/>
      <point x="495" y="66"/>
      <point x="475" y="66"/>
      <point x="475" y="107" type="curve" smooth="yes"/>
      <point x="475" y="137"/>
      <point x="539" y="730"/>
      <point x="539" y="730" type="curve"/>
      <point x="539" y="745"/>
      <point x="529" y="752"/>
      <point x="501" y="752" type="curve" smooth="yes"/>
      <point x="497" y="752" type="line" smooth="yes"/>
      <point x="471" y="752"/>
      <point x="457" y="746"/>
      <point x="455" y="730" type="curve"/>
      <point x="428" y="484" type="line"/>
      <point x="403" y="505"/>
      <point x="362" y="529"/>
      <point x="292" y="529" type="curve" smooth="yes"/>
      <point x="140" y="529"/>
      <point x="41" y="396"/>
      <point x="41" y="210" type="curve" smooth="yes"/>
      <point x="41" y="36"/>
      <point x="156" y="-6"/>
    </contour>
    <contour>
      <point x="248" y="67" type="curve" smooth="yes"/>
      <point x="173" y="67"/>
      <point x="129" y="102"/>
      <point x="129" y="216" type="curve" smooth="yes"/>
      <point x="129" y="336"/>
      <point x="166" y="456"/>
      <point x="304" y="456" type="curve" smooth="yes"/>
      <point x="365" y="456"/>
      <point x="401" y="434"/>
      <point x="421" y="418" type="curve"/>
      <point x="402" y="234" type="line"/>
      <point x="360" y="103"/>
      <point x="293" y="67"/>
    </contour>
  </outline>
</glyph>
<glyph name="f" format="2">
  <advance width="325"/>
  <unicode hex="0066"/>
  <outline>
    <contour>
      <point x="110" y="-2" type="curve" smooth="yes"/>
      <point x="114" y="-2" type="line" smooth="yes"/>
      <point x="140" y="-2"/>
      <point x="154" y="5"/>
      <point x="156" y="20" type="curve" smooth="yes"/>
      <point x="201" y="451" type="line"/>
      <point x="267" y="451" type="line" smooth="yes"/>
      <point x="292" y="451"/>
      <point x="312" y="479"/>
      <point x="312" y="501" type="curve" smooth="yes"/>
      <point x="312" y="504" type="line" smooth="yes"/>
      <point x="312" y="518"/>
      <point x="308" y="523"/>
      <point x="296" y="523" type="curve" smooth="yes"/>
      <point x="209" y="523" type="line"/>
      <point x="218" y="614" type="line" smooth="yes"/>
      <point x="224" y="674"/>
      <point x="247" y="684"/>
      <point x="278" y="684" type="curve" smooth="yes"/>
      <point x="308" y="684"/>
      <point x="319" y="677"/>
      <point x="323" y="677" type="curve" smooth="yes"/>
      <point x="335" y="677"/>
      <point x="349" y="714"/>
      <point x="349" y="725" type="curve" smooth="yes"/>
      <point x="349" y="755"/>
      <point x="295" y="756"/>
      <point x="278" y="756" type="curve" smooth="yes"/>
      <point x="225" y="756"/>
      <point x="146" y="740"/>
      <point x="135" y="624" type="curve" smooth="yes"/>
      <point x="125" y="523" type="line"/>
      <point x="85" y="523" type="line" smooth="yes"/>
      <point x="63" y="523"/>
      <point x="60" y="495"/>
      <point x="60" y="482" type="curve" smooth="yes"/>
      <point x="60" y="478" type="line" smooth="yes"/>
      <point x="60" y="462"/>
      <point x="63" y="451"/>
      <point x="77" y="451" type="curve" smooth="yes"/>
      <point x="117" y="451" type="line"/>
      <point x="72" y="20" type="line"/>
      <point x="72" y="5"/>
      <point x="82" y="-2"/>
    </contour>
  </outline>
</glyph>
<glyph name="h" format="2">
  <advance width="565"/>
  <unicode hex="0068"/>
  <anchor x="271" y="0" name="bottom"/>
  <anchor x="198" y="630" name="center"/>
  <anchor x="179" y="730" name="top"/>
  <outline>
    <contour>
      <point x="464" y="-6" type="curve" smooth="yes"/>
      <point x="482" y="-6"/>
      <point x="519" y="2"/>
      <point x="524" y="27" type="curve" smooth="yes"/>
      <point x="528" y="49"/>
      <point x="528" y="63"/>
      <point x="528" y="64" type="curve" smooth="yes"/>
      <point x="528" y="70"/>
      <point x="525" y="71"/>
      <point x="522" y="71" type="curve" smooth="yes"/>
      <point x="516" y="71"/>
      <point x="507" y="66"/>
      <point x="495" y="66" type="curve" smooth="yes"/>
      <point x="479" y="66"/>
      <point x="459" y="66"/>
      <point x="459" y="107" type="curve" smooth="yes"/>
      <point x="459" y="128"/>
      <point x="488" y="382"/>
      <point x="488" y="399" type="curve" smooth="yes"/>
      <point x="488" y="473"/>
      <point x="453" y="529"/>
      <point x="356" y="529" type="curve" smooth="yes"/>
      <point x="296" y="529"/>
      <point x="234" y="503"/>
      <point x="181" y="432" type="curve"/>
      <point x="213" y="730" type="line"/>
      <point x="213" y="745"/>
      <point x="203" y="752"/>
      <point x="175" y="752" type="curve" smooth="yes"/>
      <point x="171" y="752" type="line" smooth="yes"/>
      <point x="145" y="752"/>
      <point x="131" y="746"/>
      <point x="129" y="730" type="curve" smooth="yes"/>
      <point x="54" y="19" type="line"/>
      <point x="54" y="7"/>
      <point x="65" y="-2"/>
      <point x="92" y="-2" type="curve" smooth="yes"/>
      <point x="96" y="-2" type="line" smooth="yes"/>
      <point x="120" y="-2"/>
      <point x="136" y="6"/>
      <point x="138" y="20" type="curve" smooth="yes"/>
      <point x="167" y="297" type="line"/>
      <point x="211" y="425"/>
      <point x="282" y="456"/>
      <point x="326" y="456" type="curve" smooth="yes"/>
      <point x="377" y="456"/>
      <point x="407" y="426"/>
      <point x="402" y="371" type="curve" smooth="yes"/>
      <point x="389" y="251" type="line" smooth="yes"/>
      <point x="382" y="183"/>
      <point x="374" y="109"/>
      <point x="374" y="92" type="curve" smooth="yes"/>
      <point x="374" y="24"/>
      <point x="407" y="-6"/>
    </contour>
  </outline>
</glyph>
<glyph name="l" format="2">
  <advance width="297"/>
  <unicode hex="006C"/>
  <anchor x="149" y="0" name="bottom"/>
  <anchor x="208" y="752" name="caron"/>
  <anchor x="279" y="335" name="center"/>
  <anchor x="184" y="720" name="top"/>
  <outline>
    <contour>
      <point x="166" y="-6" type="curve" smooth="yes"/>
      <point x="184" y="-6"/>
      <point x="221" y="2"/>
      <point x="226" y="27" type="curve" smooth="yes"/>
      <point x="230" y="49"/>
      <point x="230" y="63"/>
      <point x="230" y="64" type="curve" smooth="yes"/>
      <point x="230" y="70"/>
      <point x="227" y="71"/>
      <point x="224" y="71" type="curve" smooth="yes"/>
      <point x="218" y="71"/>
      <point x="209" y="66"/>
      <point x="197" y="66" type="curve" smooth="yes"/>
      <point x="163" y="66"/>
      <point x="157" y="83"/>
      <point x="161" y="122" type="curve" smooth="yes"/>
      <point x="225" y="723" type="line" smooth="yes"/>
      <point x="227" y="743"/>
      <point x="219" y="752"/>
      <point x="187" y="752" type="curve" smooth="yes"/>
      <point x="183" y="752" type="line" smooth="yes"/>
      <point x="157" y="752"/>
      <point x="143" y="746"/>
      <point x="141" y="730" type="curve" smooth="yes"/>
      <point x="77" y="105" type="line" smooth="yes"/>
      <point x="69" y="27"/>
      <point x="109" y="-6"/>
    </contour>
  </outline>
</glyph>
<glyph name="m" format="2">
  <advance width="848"/>
  <unicode hex="006D"/>
  <outline>
    <contour>
      <point x="739" y="-6" type="curve" smooth="yes"/>
      <point x="757" y="-6"/>
      <point x="794" y="2"/>
      <point x="799" y="27" type="curve" smooth="yes"/>
      <point x="803" y="49"/>
      <point x="803" y="63"/>
      <point x="803" y="64" type="curve" smooth="yes"/>
      <point x="803" y="70"/>
      <point x="800" y="71"/>
      <point x="797" y="71" type="curve" smooth="yes"/>
      <point x="791" y="71"/>
      <point x="782" y="66"/>
      <point x="770" y="66" type="curve" smooth="yes"/>
      <point x="754" y="66"/>
      <point x="734" y="66"/>
      <point x="734" y="107" type="curve" smooth="yes"/>
      <point x="734" y="128"/>
      <point x="763" y="382"/>
      <point x="763" y="399" type="curve" smooth="yes"/>
      <point x="763" y="473"/>
      <point x="728" y="529"/>
      <point x="631" y="529" type="curve" smooth="yes"/>
      <point x="569" y="529"/>
      <point x="505" y="496"/>
      <point x="460" y="421" type="curve"/>
      <point x="453" y="484"/>
      <point x="416" y="529"/>
      <point x="329" y="529" type="curve" smooth="yes"/>
      <point x="261" y="529"/>
      <point x="190" y="490"/>
      <point x="145" y="398" type="curve"/>
      <point x="158" y="377" type="line"/>
      <point x="161" y="400"/>
      <point x="162" y="429"/>
      <point x="162" y="447" type="curve" smooth="yes"/>
      <point x="162" y="475"/>
      <point x="156" y="514"/>
      <point x="136" y="514" type="curve" smooth="yes"/>
      <point x="129" y="514"/>
      <point x="80" y="513"/>
      <point x="80" y="491" type="curve" smooth="yes"/>
      <point x="80" y="485"/>
      <point x="81" y="481"/>
      <point x="81" y="457" type="curve" smooth="yes"/>
      <point x="81" y="446"/>
      <point x="79" y="417"/>
      <point x="75" y="379" type="curve" smooth="yes"/>
      <point x="37" y="19" type="line" smooth="yes"/>
      <point x="36" y="7"/>
      <point x="48" y="-2"/>
      <point x="75" y="-2" type="curve" smooth="yes"/>
      <point x="79" y="-2" type="line" smooth="yes"/>
      <point x="105" y="-2"/>
      <point x="119" y="6"/>
      <point x="121" y="20" type="curve"/>
      <point x="151" y="307" type="line"/>
      <point x="195" y="426"/>
      <point x="258" y="456"/>
      <point x="299" y="456" type="curve" smooth="yes"/>
      <point x="350" y="456"/>
      <point x="381" y="426"/>
      <point x="375" y="373" type="curve" smooth="yes"/>
      <point x="338" y="19" type="line" smooth="yes"/>
      <point x="338" y="7"/>
      <point x="349" y="-2"/>
      <point x="376" y="-2" type="curve" smooth="yes"/>
      <point x="380" y="-2" type="line" smooth="yes"/>
      <point x="406" y="-2"/>
      <point x="421" y="6"/>
      <point x="422" y="20" type="curve"/>
      <point x="456" y="343" type="line"/>
      <point x="438" y="260" type="line"/>
      <point x="481" y="417"/>
      <point x="555" y="456"/>
      <point x="601" y="456" type="curve" smooth="yes"/>
      <point x="652" y="456"/>
      <point x="677" y="430"/>
      <point x="677" y="379" type="curve" smooth="yes"/>
      <point x="677" y="360"/>
      <point x="649" y="125"/>
      <point x="649" y="92" type="curve" smooth="yes"/>
      <point x="649" y="24"/>
      <point x="682" y="-6"/>
    </contour>
  </outline>
</glyph>
<glyph name="n" format="2">
  <advance width="557"/>
  <unicode hex="006E"/>
  <anchor x="239" y="0" name="bottom"/>
  <anchor x="289" y="523" name="top"/>
  <outline>
    <contour>
      <point x="339" y="529" type="curve" smooth="yes"/>
      <point x="271" y="529"/>
      <point x="200" y="495"/>
      <point x="142" y="399" type="curve"/>
      <point x="155" y="377" type="line"/>
      <point x="159" y="392"/>
      <point x="162" y="420"/>
      <point x="162" y="447" type="curve" smooth="yes"/>
      <point x="162" y="482"/>
      <point x="156" y="514"/>
      <point x="136" y="514" type="curve" smooth="yes"/>
      <point x="129" y="514"/>
      <point x="80" y="513"/>
      <point x="80" y="491" type="curve" smooth="yes"/>
      <point x="80" y="485"/>
      <point x="81" y="481"/>
      <point x="81" y="457" type="curve" smooth="yes"/>
      <point x="81" y="444"/>
      <point x="77" y="403"/>
      <point x="72" y="351" type="curve"/>
      <point x="37" y="19" type="line" smooth="yes"/>
      <point x="36" y="7"/>
      <point x="48" y="-2"/>
      <point x="75" y="-2" type="curve" smooth="yes"/>
      <point x="79" y="-2" type="line" smooth="yes"/>
      <point x="105" y="-2"/>
      <point x="119" y="6"/>
      <point x="121" y="20" type="curve"/>
      <point x="150" y="295" type="line"/>
      <point x="193" y="424"/>
      <point x="265" y="456"/>
      <point x="309" y="456" type="curve" smooth="yes"/>
      <point x="360" y="456"/>
      <point x="385" y="430"/>
      <point x="385" y="379" type="curve" smooth="yes"/>
      <point x="385" y="365"/>
      <point x="369" y="230"/>
      <point x="361" y="149" type="curve" smooth="yes"/>
      <point x="359" y="122"/>
      <point x="357" y="100"/>
      <point x="357" y="92" type="curve" smooth="yes"/>
      <point x="357" y="24"/>
      <point x="390" y="-6"/>
      <point x="447" y="-6" type="curve" smooth="yes"/>
      <point x="465" y="-6"/>
      <point x="502" y="2"/>
      <point x="507" y="27" type="curve" smooth="yes"/>
      <point x="511" y="49"/>
      <point x="511" y="63"/>
      <point x="511" y="64" type="curve" smooth="yes"/>
      <point x="511" y="70"/>
      <point x="508" y="71"/>
      <point x="505" y="71" type="curve" smooth="yes"/>
      <point x="499" y="71"/>
      <point x="490" y="66"/>
      <point x="478" y="66" type="curve" smooth="yes"/>
      <point x="462" y="66"/>
      <point x="442" y="66"/>
      <point x="442" y="107" type="curve" smooth="yes"/>
      <point x="442" y="128"/>
      <point x="471" y="382"/>
      <point x="471" y="399" type="curve" smooth="yes"/>
      <point x="471" y="473"/>
      <point x="436" y="529"/>
    </contour>
  </outline>
</glyph>
<glyph name="o" format="2">
  <advance width="569"/>
  <unicode hex="006F"/>
  <anchor x="251" y="0" name="bottom"/>
  <anchor x="393" y="505" name="horn"/>
  <anchor x="313" y="0" name="ogonek"/>
  <anchor x="305" y="523" name="top"/>
  <outline>
    <contour>
      <point x="252" y="-6" type="curve" smooth="yes"/>
      <point x="412" y="-6"/>
      <point x="510" y="105"/>
      <point x="510" y="312" type="curve" smooth="yes"/>
      <point x="510" y="453"/>
      <point x="440" y="529"/>
      <point x="309" y="529" type="curve" smooth="yes"/>
      <point x="121" y="529"/>
      <point x="45" y="375"/>
      <point x="45" y="209" type="curve" smooth="yes"/>
      <point x="45" y="69"/>
      <point x="116" y="-6"/>
    </contour>
    <contour>
      <point x="257" y="66" type="curve" smooth="yes"/>
      <point x="172" y="66"/>
      <point x="131" y="113"/>
      <point x="131" y="212" type="curve" smooth="yes"/>
      <point x="131" y="362"/>
      <point x="188" y="457"/>
      <point x="298" y="457" type="curve" smooth="yes"/>
      <point x="383" y="457"/>
      <point x="423" y="410"/>
      <point x="423" y="310" type="curve" smooth="yes"/>
      <point x="423" y="151"/>
      <point x="364" y="66"/>
    </contour>
  </outline>
</glyph>
<glyph name="s" format="2">
  <advance width="413"/>
  <unicode hex="0073"/>
  <anchor x="187" y="0" name="bottom"/>
  <anchor x="227" y="523" name="top"/>
  <outline>
    <contour>
      <point x="167" y="-6" type="curve" smooth="yes"/>
      <point x="282" y="-6"/>
      <point x="356" y="67"/>
      <point x="356" y="165" type="curve" smooth="yes"/>
      <point x="356" y="254"/>
      <point x="294" y="278"/>
      <point x="234" y="301" type="curve" smooth="yes"/>
      <point x="190" y="318"/>
      <point x="141" y="338"/>
      <point x="141" y="389" type="curve" smooth="yes"/>
      <point x="141" y="432"/>
      <point x="176" y="457"/>
      <point x="234" y="457" type="curve" smooth="yes"/>
      <point x="290" y="457"/>
      <point x="314" y="433"/>
      <point x="324" y="433" type="curve" smooth="yes"/>
      <point x="336" y="433"/>
      <point x="359" y="465"/>
      <point x="359" y="483" type="curve" smooth="yes"/>
      <point x="359" y="515"/>
      <point x="282" y="529"/>
      <point x="232" y="529" type="curve" smooth="yes"/>
      <point x="135" y="529"/>
      <point x="53" y="475"/>
      <point x="53" y="375" type="curve" smooth="yes"/>
      <point x="53" y="282"/>
      <point x="123" y="254"/>
      <point x="180" y="234" type="curve" smooth="yes"/>
      <point x="228" y="217"/>
      <point x="270" y="201"/>
      <point x="270" y="150" type="curve" smooth="yes"/>
      <point x="270" y="96"/>
      <point x="223" y="66"/>
      <point x="162" y="66" type="curve" smooth="yes"/>
      <point x="92" y="66"/>
      <point x="53" y="105"/>
      <point x="43" y="105" type="curve" smooth="yes"/>
      <point x="36" y="105"/>
      <point x="27" y="83"/>
      <point x="27" y="64" type="curve" smooth="yes"/>
      <point x="27" y="1"/>
      <point x="132" y="-6"/>
    </contour>
  </outline>
</glyph>
<glyph name="u" format="2">
  <advance width="557"/>
  <unicode hex="0075"/>
  <anchor x="231" y="0" name="bottom"/>
  <anchor x="444" y="525" name="horn"/>
  <anchor x="487" y="0" name="ogonek"/>
  <anchor x="299" y="523" name="top"/>
  <outline>
    <contour>
      <point x="189" y="-6" type="curve" smooth="yes"/>
      <point x="257" y="-6"/>
      <point x="329" y="30"/>
      <point x="385" y="132" type="curve"/>
      <point x="367" y="141" type="line"/>
      <point x="367" y="92" type="line" smooth="yes"/>
      <point x="367" y="24"/>
      <point x="400" y="-6"/>
      <point x="457" y="-6" type="curve" smooth="yes"/>
      <point x="475" y="-6"/>
      <point x="512" y="2"/>
      <point x="517" y="27" type="curve" smooth="yes"/>
      <point x="521" y="49"/>
      <point x="521" y="63"/>
      <point x="521" y="64" type="curve" smooth="yes"/>
      <point x="521" y="70"/>
      <point x="518" y="71"/>
      <point x="515" y="71" type="curve" smooth="yes"/>
      <point x="509" y="71"/>
      <point x="500" y="66"/>
      <point x="488" y="66" type="curve" smooth="yes"/>
      <point x="472" y="66"/>
      <point x="452" y="66"/>
      <point x="452" y="107" type="curve" smooth="yes"/>
      <point x="452" y="121"/>
      <point x="461" y="212"/>
      <point x="470" y="303" type="curve" smooth="yes"/>
      <point x="476" y="366"/>
      <point x="485" y="452"/>
      <point x="491" y="503" type="curve"/>
      <point x="491" y="518"/>
      <point x="481" y="525"/>
      <point x="453" y="525" type="curve" smooth="yes"/>
      <point x="449" y="525" type="line" smooth="yes"/>
      <point x="423" y="525"/>
      <point x="409" y="519"/>
      <point x="407" y="503" type="curve"/>
      <point x="379" y="237" type="line"/>
      <point x="336" y="100"/>
      <point x="263" y="67"/>
      <point x="219" y="67" type="curve" smooth="yes"/>
      <point x="152" y="67"/>
      <point x="138" y="103"/>
      <point x="145" y="173" type="curve" smooth="yes"/>
      <point x="179" y="503" type="line" smooth="yes"/>
      <point x="179" y="518"/>
      <point x="169" y="525"/>
      <point x="141" y="525" type="curve" smooth="yes"/>
      <point x="137" y="525" type="line" smooth="yes"/>
      <point x="111" y="525"/>
      <point x="97" y="519"/>
      <point x="95" y="503" type="curve" smooth="yes"/>
      <point x="60" y="161" type="line" smooth="yes"/>
      <point x="50" y="56"/>
      <point x="82" y="-6"/>
    </contour>
  </outline>
</glyph>
<glyph name="v" format="2">
  <advance width="485"/>
  <unicode hex="0076"/>
  <outline>
    <contour>
      <point x="191" y="-2" type="curve" smooth="yes"/>
      <point x="226" y="-2" type="line" smooth="yes"/>
      <point x="246" y="-2"/>
      <point x="262" y="2"/>
      <point x="267" y="14" type="curve" smooth="yes"/>
      <point x="479" y="494" type="line" smooth="yes"/>
      <point x="482" y="501"/>
      <point x="483" y="505"/>
      <point x="483" y="510" type="curve" smooth="yes"/>
      <point x="483" y="520"/>
      <point x="470" y="525"/>
      <point x="442" y="525" type="curve"/>
      <point x="441" y="525" type="line"/>
      <point x="426" y="525"/>
      <point x="405" y="521"/>
      <point x="400" y="509" type="curve" smooth="yes"/>
      <point x="285" y="245" type="line"/>
      <point x="265" y="200"/>
      <point x="246" y="149"/>
      <point x="228" y="104" type="curve"/>
      <point x="223" y="104" type="line"/>
      <point x="212" y="151"/>
      <point x="202" y="198"/>
      <point x="191" y="245" type="curve"/>
      <point x="132" y="509" type="line" smooth="yes"/>
      <point x="129" y="521"/>
      <point x="113" y="525"/>
      <point x="93" y="525" type="curve" smooth="yes"/>
      <point x="85" y="525" type="line" smooth="yes"/>
      <point x="55" y="525"/>
      <point x="41" y="518"/>
      <point x="40" y="508" type="curve" smooth="yes"/>
      <point x="40" y="507"/>
      <point x="40" y="506"/>
      <point x="42" y="497" type="curve"/>
      <point x="152" y="14" type="line"/>
      <point x="155" y="2"/>
      <point x="171" y="-2"/>
    </contour>
  </outline>
</glyph>
<glyph name="w" format="2">
  <advance width="747"/>
  <unicode hex="0077"/>
  <anchor x="394" y="523" name="top"/>
  <outline>
    <contour>
      <point x="175" y="-2" type="curve" smooth="yes"/>
      <point x="208" y="-2" type="line" smooth="yes"/>
      <point x="228" y="-2"/>
      <point x="245" y="2"/>
      <point x="249" y="14" type="curve" smooth="yes"/>
      <point x="371" y="347" type="line"/>
      <point x="374" y="357"/>
      <point x="377" y="367"/>
      <point x="380" y="377" type="curve"/>
      <point x="384" y="377" type="line"/>
      <point x="385" y="368"/>
      <point x="385" y="359"/>
      <point x="386" y="350" type="curve"/>
      <point x="435" y="14" type="line" smooth="yes"/>
      <point x="437" y="2"/>
      <point x="453" y="-2"/>
      <point x="473" y="-2" type="curve" smooth="yes"/>
      <point x="506" y="-2" type="line" smooth="yes"/>
      <point x="526" y="-2"/>
      <point x="542" y="2"/>
      <point x="547" y="14" type="curve" smooth="yes"/>
      <point x="732" y="494" type="line" smooth="yes"/>
      <point x="735" y="501"/>
      <point x="736" y="505"/>
      <point x="736" y="510" type="curve" smooth="yes"/>
      <point x="736" y="520"/>
      <point x="723" y="525"/>
      <point x="696" y="525" type="curve"/>
      <point x="694" y="525" type="line"/>
      <point x="674" y="525"/>
      <point x="655" y="521"/>
      <point x="651" y="509" type="curve" smooth="yes"/>
      <point x="527" y="171" type="line"/>
      <point x="521" y="150"/>
      <point x="514" y="130"/>
      <point x="508" y="109" type="curve"/>
      <point x="504" y="109" type="line"/>
      <point x="501" y="130"/>
      <point x="498" y="152"/>
      <point x="495" y="173" type="curve"/>
      <point x="441" y="508" type="line" smooth="yes"/>
      <point x="439" y="521"/>
      <point x="424" y="525"/>
      <point x="404" y="525" type="curve" smooth="yes"/>
      <point x="393" y="525" type="line" smooth="yes"/>
      <point x="373" y="525"/>
      <point x="357" y="521"/>
      <point x="352" y="508" type="curve" smooth="yes"/>
      <point x="232" y="179" type="line"/>
      <point x="224" y="156"/>
      <point x="215" y="132"/>
      <point x="207" y="109" type="curve"/>
      <point x="203" y="109" type="line"/>
      <point x="201" y="132"/>
      <point x="198" y="155"/>
      <point x="196" y="178" type="curve"/>
      <point x="144" y="509" type="line" smooth="yes"/>
      <point x="142" y="521"/>
      <point x="125" y="525"/>
      <point x="105" y="525" type="curve" smooth="yes"/>
      <point x="96" y="525" type="line" smooth="yes"/>
      <point x="66" y="525"/>
      <point x="51" y="518"/>
      <point x="51" y="508" type="curve" smooth="yes"/>
      <point x="51" y="505"/>
      <point x="52" y="496"/>
      <point x="54" y="486" type="curve" smooth="yes"/>
      <point x="136" y="14" type="line" smooth="yes"/>
      <point x="138" y="2"/>
      <point x="155" y="-2"/>
    </contour>
  </outline>
</glyph>
<glyph name="x" format="2">
  <advance width="485"/>
  <unicode hex="0078"/>
  <outline>
    <contour>
      <point x="37" y="-2" type="curve" smooth="yes"/>
      <point x="41" y="-2" type="line" smooth="yes"/>
      <point x="59" y="-2"/>
      <point x="76" y="1"/>
      <point x="85" y="12" type="curve" smooth="yes"/>
      <point x="219" y="180" type="line"/>
      <point x="223" y="185"/>
      <point x="226" y="189"/>
      <point x="230" y="194" type="curve"/>
      <point x="234" y="194" type="line"/>
      <point x="236" y="190"/>
      <point x="238" y="186"/>
      <point x="240" y="182" type="curve"/>
      <point x="337" y="13" type="line" smooth="yes"/>
      <point x="344" y="1"/>
      <point x="358" y="-2"/>
      <point x="379" y="-2" type="curve" smooth="yes"/>
      <point x="390" y="-2" type="line" smooth="yes"/>
      <point x="424" y="-2"/>
      <point x="436" y="4"/>
      <point x="438" y="15" type="curve"/>
      <point x="438" y="20"/>
      <point x="436" y="26"/>
      <point x="431" y="33" type="curve"/>
      <point x="294" y="270" type="line"/>
      <point x="469" y="490" type="line" smooth="yes"/>
      <point x="475" y="498"/>
      <point x="478" y="504"/>
      <point x="478" y="510" type="curve" smooth="yes"/>
      <point x="478" y="520"/>
      <point x="465" y="525"/>
      <point x="434" y="525" type="curve" smooth="yes"/>
      <point x="430" y="525" type="line" smooth="yes"/>
      <point x="412" y="525"/>
      <point x="394" y="522"/>
      <point x="386" y="511" type="curve" smooth="yes"/>
      <point x="275" y="372" type="line"/>
      <point x="269" y="363"/>
      <point x="262" y="355"/>
      <point x="256" y="346" type="curve"/>
      <point x="251" y="346" type="line"/>
      <point x="246" y="355"/>
      <point x="241" y="364"/>
      <point x="236" y="373" type="curve"/>
      <point x="157" y="510" type="line" smooth="yes"/>
      <point x="150" y="522"/>
      <point x="136" y="525"/>
      <point x="115" y="525" type="curve" smooth="yes"/>
      <point x="104" y="525" type="line" smooth="yes"/>
      <point x="70" y="525"/>
      <point x="58" y="519"/>
      <point x="56" y="508" type="curve"/>
      <point x="56" y="503"/>
      <point x="58" y="497"/>
      <point x="63" y="490" type="curve"/>
      <point x="189" y="268" type="line"/>
      <point x="2" y="33" type="line"/>
      <point x="-4" y="24"/>
      <point x="-7" y="19"/>
      <point x="-7" y="13" type="curve" smooth="yes"/>
      <point x="-7" y="2"/>
      <point x="6" y="-2"/>
    </contour>
  </outline>
</glyph>
<glyph name="z" format="2">
  <advance width="489"/>
  <unicode hex="007A"/>
  <anchor x="231" y="0" name="bottom"/>
  <anchor x="275" y="523" name="top"/>
  <outline>
    <contour>
      <point x="31" y="0" type="curve" smooth="yes"/>
      <point x="401" y="0" type="line" smooth="yes"/>
      <point x="423" y="0"/>
      <point x="426" y="28"/>
      <point x="426" y="42" type="curve" smooth="yes"/>
      <point x="426" y="45" type="line" smooth="yes"/>
      <point x="426" y="61"/>
      <point x="423" y="72"/>
      <point x="409" y="72" type="curve" smooth="yes"/>
      <point x="134" y="72" type="line"/>
      <point x="466" y="461" type="line" smooth="yes"/>
      <point x="468" y="463"/>
      <point x="470" y="468"/>
      <point x="470" y="475" type="curve" smooth="yes"/>
      <point x="470" y="494"/>
      <point x="464" y="523"/>
      <point x="455" y="523" type="curve" smooth="yes"/>
      <point x="104" y="523" type="line" smooth="yes"/>
      <point x="82" y="523"/>
      <point x="79" y="493"/>
      <point x="79" y="480" type="curve" smooth="yes"/>
      <point x="79" y="478" type="line" smooth="yes"/>
      <point x="79" y="462"/>
      <point x="82" y="451"/>
      <point x="96" y="451" type="curve" smooth="yes"/>
      <point x="352" y="451" type="line"/>
      <point x="19" y="62" type="line" smooth="yes"/>
      <point x="15" y="58"/>
      <point x="14" y="51"/>
      <point x="14" y="46" type="curve" smooth="yes"/>
      <point x="14" y="26"/>
      <point x="24" y="0"/>
    </contour>
  </outline>
</glyph>
<glyph name="braceleft" format="2">
  <advance width="274"/>
  <unicode hex="007B"/>
  <outline>
    <contour>
      <point x="126" y="-138" type="curve" smooth="yes"/>
      <point x="176" y="-138" type="line" smooth="yes"/>
      <point x="196" y="-138"/>
      <point x="200" y="-114"/>
      <point x="200" y="-97" type="curve" smooth="yes"/>
      <point x="200" y="-96" type="line" smooth="yes"/>
      <point x="200" y="-82"/>
      <point x="194" y="-76"/>
      <point x="182" y="-76" type="curve" smooth="yes"/>
      <point x="160" y="-76" type="line" smooth="yes"/>
      <point x="138" y="-76"/>
      <point x="131" y="-62"/>
      <point x="131" y="-38" type="curve" smooth="yes"/>
      <point x="131" y="13"/>
      <point x="152" y="144"/>
      <point x="152" y="186" type="curve" smooth="yes"/>
      <point x="152" y="269"/>
      <point x="103" y="307"/>
      <point x="89" y="314" type="curve"/>
      <point x="107" y="326"/>
      <point x="174" y="371"/>
      <point x="184" y="469" type="curve" smooth="yes"/>
      <point x="202" y="645" type="line" smooth="yes"/>
      <point x="206" y="684"/>
      <point x="215" y="706"/>
      <point x="243" y="706" type="curve" smooth="yes"/>
      <point x="265" y="706" type="line" smooth="yes"/>
      <point x="285" y="706"/>
      <point x="289" y="730"/>
      <point x="289" y="746" type="curve"/>
      <point x="289" y="748" type="line"/>
      <point x="289" y="762"/>
      <point x="283" y="768"/>
      <point x="271" y="768" type="curve" smooth="yes"/>
      <point x="221" y="768" type="line" smooth="yes"/>
      <point x="188" y="768"/>
      <point x="141" y="747"/>
      <point x="131" y="652" type="curve" smooth="yes"/>
      <point x="113" y="485" type="line" smooth="yes"/>
      <point x="106" y="418"/>
      <point x="94" y="374"/>
      <point x="49" y="356" type="curve" smooth="yes"/>
      <point x="23" y="345"/>
      <point x="19" y="337"/>
      <point x="19" y="305" type="curve"/>
      <point x="19" y="303" type="line"/>
      <point x="19" y="287"/>
      <point x="28" y="279"/>
      <point x="40" y="274" type="curve" smooth="yes"/>
      <point x="72" y="260"/>
      <point x="81" y="231"/>
      <point x="81" y="191" type="curve" smooth="yes"/>
      <point x="81" y="161"/>
      <point x="59" y="-1"/>
      <point x="59" y="-46" type="curve" smooth="yes"/>
      <point x="59" y="-122"/>
      <point x="81" y="-138"/>
    </contour>
  </outline>
</glyph>
<glyph name="bar" format="2">
  <advance width="250"/>
  <unicode hex="007C"/>
  <outline>
    <contour>
      <point x="130" y="770" type="curve" smooth="yes"/>
      <point x="120" y="770" type="line" smooth="yes"/>
      <point x="103" y="770"/>
      <point x="96" y="762"/>
      <point x="96" y="748" type="curve" smooth="yes"/>
      <point x="96" y="-118" type="line" smooth="yes"/>
      <point x="96" y="-132"/>
      <point x="103" y="-140"/>
      <point x="120" y="-140" type="curve" smooth="yes"/>
      <point x="130" y="-140" type="line" smooth="yes"/>
      <point x="147" y="-140"/>
      <point x="154" y="-132"/>
      <point x="154" y="-118" type="curve" smooth="yes"/>
      <point x="154" y="748" type="line" smooth="yes"/>
      <point x="154" y="762"/>
      <point x="147" y="770"/>
    </contour>
  </outline>
</glyph>
<glyph name="braceright" format="2">
  <advance width="274"/>
  <unicode hex="007D"/>
  <outline>
    <contour>
      <point x="1" y="-138" type="curve" smooth="yes"/>
      <point x="51" y="-138" type="line" smooth="yes"/>
      <point x="84" y="-138"/>
      <point x="131" y="-117"/>
      <point x="141" y="-22" type="curve" smooth="yes"/>
      <point x="159" y="145" type="line" smooth="yes"/>
      <point x="166" y="212"/>
      <point x="176" y="256"/>
      <point x="223" y="274" type="curve" smooth="yes"/>
      <point x="248" y="284"/>
      <point x="253" y="295"/>
      <point x="253" y="325" type="curve"/>
      <point x="253" y="327" type="line"/>
      <point x="253" y="343"/>
      <point x="244" y="351"/>
      <point x="232" y="356" type="curve" smooth="yes"/>
      <point x="200" y="370"/>
      <point x="191" y="399"/>
      <point x="191" y="439" type="curve" smooth="yes"/>
      <point x="191" y="469"/>
      <point x="213" y="631"/>
      <point x="213" y="676" type="curve" smooth="yes"/>
      <point x="213" y="752"/>
      <point x="170" y="768"/>
      <point x="146" y="768" type="curve" smooth="yes"/>
      <point x="96" y="768" type="line" smooth="yes"/>
      <point x="76" y="768"/>
      <point x="72" y="744"/>
      <point x="72" y="728" type="curve"/>
      <point x="72" y="726" type="line"/>
      <point x="72" y="712"/>
      <point x="78" y="706"/>
      <point x="90" y="706" type="curve" smooth="yes"/>
      <point x="112" y="706" type="line" smooth="yes"/>
      <point x="134" y="706"/>
      <point x="141" y="692"/>
      <point x="141" y="668" type="curve" smooth="yes"/>
      <point x="141" y="617"/>
      <point x="120" y="486"/>
      <point x="120" y="444" type="curve" smooth="yes"/>
      <point x="120" y="361"/>
      <point x="169" y="323"/>
      <point x="183" y="316" type="curve"/>
      <point x="165" y="304"/>
      <point x="98" y="259"/>
      <point x="88" y="161" type="curve" smooth="yes"/>
      <point x="70" y="-15" type="line" smooth="yes"/>
      <point x="66" y="-54"/>
      <point x="57" y="-76"/>
      <point x="29" y="-76" type="curve" smooth="yes"/>
      <point x="7" y="-76" type="line" smooth="yes"/>
      <point x="-13" y="-76"/>
      <point x="-17" y="-100"/>
      <point x="-17" y="-116" type="curve"/>
      <point x="-17" y="-118" type="line"/>
      <point x="-17" y="-132"/>
      <point x="-11" y="-138"/>
    </contour>
  </outline>
</glyph>
<glyph name="asciitilde" format="2">
  <advance width="547"/>
  <unicode hex="007E"/>
  <outline>
    <contour>
      <point x="405" y="216" type="curve" smooth="yes"/>
      <point x="443" y="216"/>
      <point x="474" y="233"/>
      <point x="491" y="285" type="curve" smooth="yes"/>
      <point x="493" y="291"/>
      <point x="495" y="296"/>
      <point x="495" y="299" type="curve" smooth="yes"/>
      <point x="495" y="304"/>
      <point x="491" y="307"/>
      <point x="485" y="310" type="curve" smooth="yes"/>
      <point x="478" y="314" type="line" smooth="yes"/>
      <point x="467" y="320"/>
      <point x="459" y="313"/>
      <point x="452" y="302" type="curve" smooth="yes"/>
      <point x="438" y="280"/>
      <point x="427" y="272"/>
      <point x="415" y="272" type="curve" smooth="yes"/>
      <point x="384" y="272"/>
      <point x="342" y="284"/>
      <point x="300" y="295" type="curve" smooth="yes"/>
      <point x="258" y="306"/>
      <point x="213" y="320"/>
      <point x="177" y="320" type="curve" smooth="yes"/>
      <point x="139" y="320"/>
      <point x="108" y="303"/>
      <point x="91" y="251" type="curve" smooth="yes"/>
      <point x="89" y="245"/>
      <point x="87" y="240"/>
      <point x="87" y="237" type="curve" smooth="yes"/>
      <point x="87" y="232"/>
      <point x="91" y="229"/>
      <point x="97" y="226" type="curve" smooth="yes"/>
      <point x="104" y="222" type="line" smooth="yes"/>
      <point x="115" y="216"/>
      <point x="123" y="223"/>
      <point x="130" y="234" type="curve" smooth="yes"/>
      <point x="144" y="256"/>
      <point x="155" y="264"/>
      <point x="167" y="264" type="curve" smooth="yes"/>
      <point x="198" y="264"/>
      <point x="240" y="252"/>
      <point x="282" y="241" type="curve" smooth="yes"/>
      <point x="324" y="230"/>
      <point x="369" y="216"/>
    </contour>
  </outline>
</glyph>
<glyph name="cent" format="2">
  <advance width="440"/>
  <unicode hex="00A2"/>
  <anchor x="293" y="523" name="top"/>
  <anchor x="263" y="0" name="bottom"/>
  <outline>
    <contour>
      <point x="276" y="-51" type="curve"/>
      <point x="341" y="558" type="line"/>
      <point x="341" y="572"/>
      <point x="337" y="578"/>
      <point x="323" y="578" type="curve"/>
      <point x="321" y="578" type="line"/>
      <point x="308" y="578"/>
      <point x="302" y="572"/>
      <point x="301" y="558" type="curve"/>
      <point x="236" y="-51" type="line"/>
      <point x="236" y="-65"/>
      <point x="239" y="-71"/>
      <point x="254" y="-71" type="curve"/>
      <point x="256" y="-71" type="line"/>
      <point x="268" y="-71"/>
      <point x="274" y="-64"/>
    </contour>
    <component base="c"/>
  </outline>
</glyph>
<glyph name="yen" format="2">
  <advance width="559"/>
  <unicode hex="00A5"/>
  <anchor x="320" y="700" name="top"/>
  <anchor x="241" y="0" name="bottom"/>
  <outline>
    <contour>
      <point x="66" y="355" type="curve"/>
      <point x="494" y="355" type="line"/>
      <point x="513" y="355"/>
      <point x="516" y="380"/>
      <point x="517" y="392" type="curve"/>
      <point x="517" y="397" type="line"/>
      <point x="517" y="412"/>
      <point x="514" y="422"/>
      <point x="501" y="422" type="curve"/>
      <point x="334" y="422" type="line"/>
      <point x="279" y="422" type="line"/>
      <point x="211" y="422" type="line"/>
      <point x="73" y="422" type="line"/>
      <point x="54" y="422"/>
      <point x="51" y="397"/>
      <point x="50" y="385" type="curve"/>
      <point x="50" y="380" type="line"/>
      <point x="50" y="365"/>
      <point x="53" y="355"/>
    </contour>
    <contour>
      <point x="49" y="192" type="curve"/>
      <point x="477" y="192" type="line"/>
      <point x="496" y="192"/>
      <point x="499" y="216"/>
      <point x="500" y="229" type="curve"/>
      <point x="500" y="234" type="line"/>
      <point x="500" y="249"/>
      <point x="497" y="259"/>
      <point x="484" y="259" type="curve"/>
      <point x="56" y="259" type="line"/>
      <point x="37" y="259"/>
      <point x="33" y="235"/>
      <point x="33" y="222" type="curve"/>
      <point x="33" y="217" type="line"/>
      <point x="33" y="202"/>
      <point x="36" y="192"/>
    </contour>
    <component base="Y"/>
  </outline>
</glyph>
<glyph name="section" format="2">
  <advance width="429"/>
  <unicode hex="00A7"/>
  <outline>
    <contour>
      <point x="167" y="-6" type="curve" smooth="yes"/>
      <point x="246" y="-6"/>
      <point x="342" y="38"/>
      <point x="342" y="154" type="curve" smooth="yes"/>
      <point x="342" y="186"/>
      <point x="329" y="210"/>
      <point x="311" y="227" type="curve"/>
      <point x="351" y="257"/>
      <point x="379" y="302"/>
      <point x="379" y="366" type="curve" smooth="yes"/>
      <point x="379" y="452"/>
      <point x="324" y="478"/>
      <point x="272" y="497" type="curve" smooth="yes"/>
      <point x="222" y="514"/>
      <point x="174" y="524"/>
      <point x="174" y="568" type="curve" smooth="yes"/>
      <point x="174" y="605"/>
      <point x="203" y="634"/>
      <point x="262" y="634" type="curve" smooth="yes"/>
      <point x="312" y="634"/>
      <point x="343" y="610"/>
      <point x="349" y="610" type="curve" smooth="yes"/>
      <point x="365" y="610"/>
      <point x="385" y="647"/>
      <point x="385" y="658" type="curve" smooth="yes"/>
      <point x="385" y="694"/>
      <point x="306" y="706"/>
      <point x="262" y="706" type="curve" smooth="yes"/>
      <point x="182" y="706"/>
      <point x="86" y="662"/>
      <point x="86" y="549" type="curve" smooth="yes"/>
      <point x="86" y="515"/>
      <point x="98" y="491"/>
      <point x="116" y="474" type="curve"/>
      <point x="78" y="444"/>
      <point x="49" y="398"/>
      <point x="49" y="338" type="curve" smooth="yes"/>
      <point x="49" y="243"/>
      <point x="114" y="219"/>
      <point x="170" y="200" type="curve" smooth="yes"/>
      <point x="215" y="184"/>
      <point x="255" y="172"/>
      <point x="255" y="131" type="curve" smooth="yes"/>
      <point x="255" y="96"/>
      <point x="225" y="66"/>
      <point x="166" y="66" type="curve" smooth="yes"/>
      <point x="113" y="66"/>
      <point x="75" y="95"/>
      <point x="66" y="95" type="curve" smooth="yes"/>
      <point x="57" y="95"/>
      <point x="50" y="73"/>
      <point x="50" y="41" type="curve" smooth="yes"/>
      <point x="50" y="7"/>
      <point x="122" y="-6"/>
    </contour>
    <contour>
      <point x="229" y="266" type="curve"/>
      <point x="179" y="281"/>
      <point x="134" y="296"/>
      <point x="134" y="349" type="curve" smooth="yes"/>
      <point x="134" y="403"/>
      <point x="170" y="427"/>
      <point x="199" y="435" type="curve"/>
      <point x="248" y="420"/>
      <point x="293" y="404"/>
      <point x="293" y="353" type="curve" smooth="yes"/>
      <point x="293" y="297"/>
      <point x="259" y="273"/>
    </contour>
  </outline>
</glyph>
<glyph name="dieresis" format="2">
  <advance width="256"/>
  <unicode hex="00A8"/>
  <anchor x="150" y="523" name="_top"/>
  <outline>
    <contour>
      <point x="226" y="607" type="curve" smooth="yes"/>
      <point x="256" y="607"/>
      <point x="270" y="616"/>
      <point x="272" y="629" type="curve" smooth="yes"/>
      <point x="277" y="680" type="line"/>
      <point x="277" y="694"/>
      <point x="268" y="702"/>
      <point x="239" y="702" type="curve" smooth="yes"/>
      <point x="207" y="702"/>
      <point x="194" y="693"/>
      <point x="193" y="680" type="curve" smooth="yes"/>
      <point x="188" y="629" type="line"/>
      <point x="188" y="615"/>
      <point x="196" y="607"/>
    </contour>
    <contour>
      <point x="82" y="607" type="curve" smooth="yes"/>
      <point x="112" y="607"/>
      <point x="126" y="616"/>
      <point x="128" y="629" type="curve" smooth="yes"/>
      <point x="133" y="680" type="line"/>
      <point x="133" y="694"/>
      <point x="124" y="702"/>
      <point x="95" y="702" type="curve" smooth="yes"/>
      <point x="63" y="702"/>
      <point x="51" y="693"/>
      <point x="49" y="680" type="curve" smooth="yes"/>
      <point x="44" y="629" type="line"/>
      <point x="44" y="615"/>
      <point x="52" y="607"/>
    </contour>
  </outline>
</glyph>
<glyph name="copyright" format="2">
  <advance width="739"/>
  <unicode hex="00A9"/>
  <outline>
    <contour>
      <point x="369" y="-7" type="curve" smooth="yes"/>
      <point x="568" y="-7"/>
      <point x="729" y="153"/>
      <point x="729" y="352" type="curve" smooth="yes"/>
      <point x="729" y="551"/>
      <point x="568" y="708"/>
      <point x="369" y="708" type="curve" smooth="yes"/>
      <point x="170" y="708"/>
      <point x="10" y="551"/>
      <point x="10" y="352" type="curve" smooth="yes"/>
      <point x="10" y="153"/>
      <point x="170" y="-7"/>
    </contour>
    <contour>
      <point x="385" y="135" type="curve" smooth="yes"/>
      <point x="455" y="135"/>
      <point x="509" y="162"/>
      <point x="509" y="178" type="curve" smooth="yes"/>
      <point x="509" y="185"/>
      <point x="496" y="210"/>
      <point x="488" y="210" type="curve" smooth="yes"/>
      <point x="480" y="210"/>
      <point x="447" y="180"/>
      <point x="385" y="180" type="curve" smooth="yes"/>
      <point x="292" y="180"/>
      <point x="247" y="232"/>
      <point x="247" y="347" type="curve" smooth="yes"/>
      <point x="247" y="464"/>
      <point x="292" y="515"/>
      <point x="388" y="515" type="curve" smooth="yes"/>
      <point x="445" y="515"/>
      <point x="474" y="488"/>
      <point x="480" y="488" type="curve" smooth="yes"/>
      <point x="488" y="488"/>
      <point x="501" y="513"/>
      <point x="501" y="523" type="curve" smooth="yes"/>
      <point x="501" y="539"/>
      <point x="446" y="560"/>
      <point x="387" y="560" type="curve" smooth="yes"/>
      <point x="259" y="560"/>
      <point x="193" y="490"/>
      <point x="193" y="347" type="curve" smooth="yes"/>
      <point x="193" y="202"/>
      <point x="255" y="135"/>
    </contour>
    <contour>
      <point x="369" y="41" type="curve" smooth="yes"/>
      <point x="198" y="41"/>
      <point x="58" y="181"/>
      <point x="58" y="352" type="curve" smooth="yes"/>
      <point x="58" y="524"/>
      <point x="198" y="660"/>
      <point x="369" y="660" type="curve" smooth="yes"/>
      <point x="541" y="660"/>
      <point x="681" y="524"/>
      <point x="681" y="352" type="curve" smooth="yes"/>
      <point x="681" y="181"/>
      <point x="541" y="41"/>
    </contour>
  </outline>
</glyph>
<glyph name="ordfeminine" format="2">
  <advance width="313"/>
  <unicode hex="00AA"/>
  <outline>
    <contour>
      <point x="144" y="439" type="curve" smooth="yes"/>
      <point x="171" y="439"/>
      <point x="197" y="451"/>
      <point x="216" y="483" type="curve"/>
      <point x="218" y="448"/>
      <point x="240" y="440"/>
      <point x="259" y="440" type="curve" smooth="yes"/>
      <point x="292" y="440"/>
      <point x="305" y="451"/>
      <point x="305" y="472" type="curve" smooth="yes"/>
      <point x="305" y="478"/>
      <point x="304" y="484"/>
      <point x="300" y="484" type="curve" smooth="yes"/>
      <point x="296" y="484"/>
      <point x="293" y="482"/>
      <point x="287" y="482" type="curve" smooth="yes"/>
      <point x="280" y="482"/>
      <point x="275" y="486"/>
      <point x="276" y="503" type="curve" smooth="yes"/>
      <point x="278" y="539"/>
      <point x="286" y="591"/>
      <point x="291" y="639" type="curve" smooth="yes"/>
      <point x="293" y="658"/>
      <point x="297" y="689"/>
      <point x="297" y="695" type="curve" smooth="yes"/>
      <point x="297" y="701"/>
      <point x="292" y="706"/>
      <point x="280" y="706" type="curve"/>
      <point x="266" y="706" type="line"/>
      <point x="249" y="706"/>
      <point x="246" y="696"/>
      <point x="241" y="681" type="curve"/>
      <point x="230" y="692"/>
      <point x="211" y="708"/>
      <point x="178" y="708" type="curve" smooth="yes"/>
      <point x="116" y="708"/>
      <point x="68" y="658"/>
      <point x="57" y="575" type="curve" smooth="yes"/>
      <point x="48" y="509"/>
      <point x="67" y="439"/>
    </contour>
    <contour>
      <point x="161" y="488" type="curve" smooth="yes"/>
      <point x="115" y="488"/>
      <point x="111" y="534"/>
      <point x="118" y="577" type="curve" smooth="yes"/>
      <point x="126" y="629"/>
      <point x="145" y="659"/>
      <point x="188" y="659" type="curve" smooth="yes"/>
      <point x="211" y="659"/>
      <point x="224" y="653"/>
      <point x="233" y="649" type="curve"/>
      <point x="231" y="641"/>
      <point x="230" y="632"/>
      <point x="229" y="621" type="curve" smooth="yes"/>
      <point x="220" y="538" type="line"/>
      <point x="206" y="501"/>
      <point x="181" y="488"/>
    </contour>
  </outline>
</glyph>
<glyph name="logicalnot" format="2">
  <advance width="560"/>
  <unicode hex="00AC"/>
  <outline>
    <contour>
      <point x="465" y="77" type="curve" smooth="yes"/>
      <point x="478" y="77" type="line" smooth="yes"/>
      <point x="498" y="77"/>
      <point x="508" y="85"/>
      <point x="510" y="99" type="curve" smooth="yes"/>
      <point x="532" y="308" type="line"/>
      <point x="532" y="328"/>
      <point x="527" y="338"/>
      <point x="505" y="338" type="curve" smooth="yes"/>
      <point x="71" y="338" type="line" smooth="yes"/>
      <point x="50" y="338"/>
      <point x="36" y="326"/>
      <point x="37" y="295" type="curve"/>
      <point x="37" y="292" type="line"/>
      <point x="37" y="274"/>
      <point x="43" y="265"/>
      <point x="64" y="265" type="curve" smooth="yes"/>
      <point x="455" y="265" type="line"/>
      <point x="437" y="99" type="line"/>
      <point x="437" y="85"/>
      <point x="443" y="77"/>
    </contour>
  </outline>
</glyph>
<glyph name="macron" format="2">
  <advance width="255"/>
  <unicode hex="00AF"/>
  <anchor x="157" y="523" name="_top"/>
  <outline>
    <contour>
      <point x="40" y="612" type="curve" smooth="yes"/>
      <point x="266" y="612" type="line" smooth="yes"/>
      <point x="287" y="612"/>
      <point x="291" y="637"/>
      <point x="291" y="651" type="curve" smooth="yes"/>
      <point x="291" y="657" type="line" smooth="yes"/>
      <point x="291" y="673"/>
      <point x="288" y="683"/>
      <point x="274" y="683" type="curve" smooth="yes"/>
      <point x="48" y="683" type="line" smooth="yes"/>
      <point x="28" y="683"/>
      <point x="24" y="660"/>
      <point x="23" y="646" type="curve" smooth="yes"/>
      <point x="23" y="639" type="line" smooth="yes"/>
      <point x="23" y="623"/>
      <point x="26" y="612"/>
    </contour>
  </outline>
</glyph>
<glyph name="acute" format="2">
  <advance width="256"/>
  <unicode hex="00B4"/>
  <anchor x="105" y="523" name="_top"/>
  <outline>
    <contour>
      <point x="89" y="585" type="curve" smooth="yes"/>
      <point x="109" y="585"/>
      <point x="130" y="591"/>
      <point x="142" y="603" type="curve" smooth="yes"/>
      <point x="237" y="700"/>
      <point x="248" y="709"/>
      <point x="248" y="720" type="curve" smooth="yes"/>
      <point x="248" y="729"/>
      <point x="232" y="732"/>
      <point x="201" y="732" type="curve" smooth="yes"/>
      <point x="169" y="732"/>
      <point x="149" y="725"/>
      <point x="136" y="706" type="curve" smooth="yes"/>
      <point x="79" y="623"/>
      <point x="67" y="603"/>
      <point x="67" y="594" type="curve" smooth="yes"/>
      <point x="67" y="588"/>
      <point x="74" y="585"/>
    </contour>
  </outline>
</glyph>
<glyph name="periodcentered" format="2">
  <advance width="267"/>
  <unicode hex="00B7"/>
  <anchor x="72" y="700" name="_caron"/>
  <outline>
    <contour>
      <point x="135" y="309" type="curve" smooth="yes"/>
      <point x="166" y="309"/>
      <point x="192" y="331"/>
      <point x="192" y="366" type="curve" smooth="yes"/>
      <point x="192" y="392"/>
      <point x="173" y="412"/>
      <point x="146" y="412" type="curve" smooth="yes"/>
      <point x="113" y="412"/>
      <point x="89" y="387"/>
      <point x="89" y="354" type="curve" smooth="yes"/>
      <point x="89" y="328"/>
      <point x="108" y="309"/>
    </contour>
  </outline>
</glyph>
<glyph name="cedilla" format="2">
  <advance width="256"/>
  <unicode hex="00B8"/>
  <anchor x="189" y="0" name="_bottom"/>
  <outline>
    <contour>
      <point x="148" y="-210" type="curve" smooth="yes"/>
      <point x="197" y="-210"/>
      <point x="273" y="-198"/>
      <point x="273" y="-111" type="curve" smooth="yes"/>
      <point x="273" y="-55"/>
      <point x="216" y="-49"/>
      <point x="195" y="-49" type="curve" smooth="yes"/>
      <point x="176" y="-49" type="line"/>
      <point x="186" y="-62" type="line"/>
      <point x="211" y="0" type="line"/>
      <point x="168" y="0" type="line"/>
      <point x="147" y="-51"/>
      <point x="141" y="-69"/>
      <point x="141" y="-69" type="curve" smooth="yes"/>
      <point x="141" y="-94"/>
      <point x="201" y="-83"/>
      <point x="201" y="-121" type="curve" smooth="yes"/>
      <point x="201" y="-157"/>
      <point x="166" y="-161"/>
      <point x="141" y="-161" type="curve" smooth="yes"/>
      <point x="94" y="-161"/>
      <point x="67" y="-136"/>
      <point x="63" y="-136" type="curve" smooth="yes"/>
      <point x="58" y="-136"/>
      <point x="51" y="-136"/>
      <point x="51" y="-169" type="curve" smooth="yes"/>
      <point x="51" y="-205"/>
      <point x="124" y="-210"/>
    </contour>
  </outline>
</glyph>
<glyph name="onesuperior" format="2">
  <advance width="300"/>
  <unicode hex="00B9"/>
  <outline>
    <contour>
      <point x="165" y="297" type="curve" smooth="yes"/>
      <point x="169" y="297" type="line" smooth="yes"/>
      <point x="184" y="297"/>
      <point x="191" y="301"/>
      <point x="192" y="309" type="curve" smooth="yes"/>
      <point x="232" y="690" type="line"/>
      <point x="232" y="697"/>
      <point x="225" y="702"/>
      <point x="215" y="702" type="curve"/>
      <point x="106" y="673" type="line" smooth="yes"/>
      <point x="96" y="670"/>
      <point x="94" y="667"/>
      <point x="94" y="656" type="curve" smooth="yes"/>
      <point x="94" y="645"/>
      <point x="96" y="633"/>
      <point x="103" y="633" type="curve"/>
      <point x="180" y="650" type="line"/>
      <point x="144" y="309" type="line"/>
      <point x="144" y="302"/>
      <point x="149" y="297"/>
    </contour>
  </outline>
</glyph>
<glyph name="ordmasculine" format="2">
  <advance width="337"/>
  <unicode hex="00BA"/>
  <outline>
    <contour>
      <point x="156" y="441" type="curve" smooth="yes"/>
      <point x="209" y="441"/>
      <point x="282" y="464"/>
      <point x="282" y="600" type="curve" smooth="yes"/>
      <point x="282" y="688"/>
      <point x="229" y="706"/>
      <point x="183" y="706" type="curve" smooth="yes"/>
      <point x="130" y="706"/>
      <point x="53" y="681"/>
      <point x="53" y="547" type="curve" smooth="yes"/>
      <point x="53" y="458"/>
      <point x="108" y="441"/>
    </contour>
    <contour>
      <point x="157" y="477" type="curve" smooth="yes"/>
      <point x="118" y="477"/>
      <point x="96" y="495"/>
      <point x="96" y="549" type="curve" smooth="yes"/>
      <point x="96" y="639"/>
      <point x="132" y="670"/>
      <point x="178" y="670" type="curve" smooth="yes"/>
      <point x="216" y="670"/>
      <point x="239" y="651"/>
      <point x="239" y="598" type="curve" smooth="yes"/>
      <point x="239" y="507"/>
      <point x="204" y="477"/>
    </contour>
  </outline>
</glyph>
<glyph name="onehalf" format="2">
  <advance width="728"/>
  <unicode hex="00BD"/>
  <outline>
    <contour>
      <point x="68" y="-2" type="curve" smooth="yes"/>
      <point x="81" y="-2" type="line" smooth="yes"/>
      <point x="94" y="-2"/>
      <point x="105" y="2"/>
      <point x="113" y="14" type="curve" smooth="yes"/>
      <point x="590" y="687" type="line" smooth="yes"/>
      <point x="593" y="691"/>
      <point x="595" y="694"/>
      <point x="595" y="697" type="curve" smooth="yes"/>
      <point x="595" y="701"/>
      <point x="591" y="703"/>
      <point x="582" y="703" type="curve" smooth="yes"/>
      <point x="569" y="703" type="line" smooth="yes"/>
      <point x="556" y="703"/>
      <point x="544" y="697"/>
      <point x="537" y="687" type="curve" smooth="yes"/>
      <point x="60" y="14" type="line"/>
      <point x="56" y="10"/>
      <point x="55" y="6"/>
      <point x="55" y="4" type="curve" smooth="yes"/>
      <point x="55" y="0"/>
      <point x="59" y="-2"/>
    </contour>
    <component base="onesuperior"/>
    <component base="two" xScale="0.584" yScale="0.584" xOffset="381"/>
  </outline>
</glyph>
<glyph name="threequarters" format="2">
  <advance width="738"/>
  <unicode hex="00BE"/>
  <outline>
    <contour>
      <point x="132" y="-2" type="curve" smooth="yes"/>
      <point x="145" y="-2" type="line" smooth="yes"/>
      <point x="158" y="-2"/>
      <point x="169" y="2"/>
      <point x="177" y="14" type="curve" smooth="yes"/>
      <point x="654" y="687" type="line" smooth="yes"/>
      <point x="657" y="691"/>
      <point x="659" y="694"/>
      <point x="659" y="697" type="curve" smooth="yes"/>
      <point x="659" y="701"/>
      <point x="655" y="703"/>
      <point x="646" y="703" type="curve" smooth="yes"/>
      <point x="633" y="703" type="line" smooth="yes"/>
      <point x="620" y="703"/>
      <point x="608" y="697"/>
      <point x="601" y="687" type="curve" smooth="yes"/>
      <point x="124" y="14" type="line"/>
      <point x="120" y="10"/>
      <point x="119" y="6"/>
      <point x="119" y="4" type="curve" smooth="yes"/>
      <point x="119" y="0"/>
      <point x="123" y="-2"/>
    </contour>
    <component base="three" xScale="0.587" yScale="0.587" xOffset="25" yOffset="293"/>
    <component base="four" xScale="0.585" yScale="0.585" xOffset="380" yOffset="-1"/>
  </outline>
</glyph>
<glyph name="AE" format="2">
  <advance width="915"/>
  <unicode hex="00C6"/>
  <anchor x="458" y="700" name="top"/>
  <outline>
    <contour>
      <point x="-9" y="-2" type="curve" smooth="yes"/>
      <point x="-4" y="-2" type="line" smooth="yes"/>
      <point x="14" y="-2"/>
      <point x="30" y="3"/>
      <point x="37" y="14" type="curve" smooth="yes"/>
      <point x="134" y="178" type="line"/>
      <point x="429" y="178" type="line"/>
      <point x="445" y="29" type="line" smooth="yes"/>
      <point x="447" y="9"/>
      <point x="457" y="0"/>
      <point x="478" y="0" type="curve" smooth="yes"/>
      <point x="770" y="0" type="line" smooth="yes"/>
      <point x="793" y="0"/>
      <point x="795" y="27"/>
      <point x="795" y="50" type="curve" smooth="yes"/>
      <point x="795" y="54" type="line" smooth="yes"/>
      <point x="795" y="69"/>
      <point x="790" y="76"/>
      <point x="778" y="76" type="curve" smooth="yes"/>
      <point x="530" y="76" type="line"/>
      <point x="502" y="320" type="line"/>
      <point x="771" y="320" type="line" smooth="yes"/>
      <point x="795" y="320"/>
      <point x="796" y="347"/>
      <point x="796" y="370" type="curve" smooth="yes"/>
      <point x="796" y="374" type="line" smooth="yes"/>
      <point x="796" y="389"/>
      <point x="791" y="396"/>
      <point x="779" y="396" type="curve" smooth="yes"/>
      <point x="494" y="396" type="line"/>
      <point x="468" y="624" type="line"/>
      <point x="834" y="624" type="line" smooth="yes"/>
      <point x="858" y="624"/>
      <point x="859" y="651"/>
      <point x="859" y="674" type="curve" smooth="yes"/>
      <point x="859" y="678" type="line" smooth="yes"/>
      <point x="859" y="693"/>
      <point x="854" y="700"/>
      <point x="842" y="700" type="curve" smooth="yes"/>
      <point x="392" y="700" type="line" smooth="yes"/>
      <point x="371" y="700"/>
      <point x="358" y="692"/>
      <point x="347" y="673" type="curve" smooth="yes"/>
      <point x="-41" y="31" type="line" smooth="yes"/>
      <point x="-45" y="24"/>
      <point x="-47" y="17"/>
      <point x="-47" y="13" type="curve" smooth="yes"/>
      <point x="-47" y="3"/>
      <point x="-38" y="-2"/>
    </contour>
    <contour>
      <point x="180" y="253" type="line"/>
      <point x="360" y="552" type="line"/>
      <point x="387" y="610" type="line"/>
      <point x="389" y="610" type="line"/>
      <point x="389" y="552" type="line"/>
      <point x="419" y="253" type="line"/>
    </contour>
  </outline>
</glyph>
<glyph name="Eth" format="2">
  <advance width="695"/>
  <unicode hex="00D0"/>
  <anchor x="348" y="700" name="top"/>
  <anchor x="348" y="350" name="center"/>
  <anchor x="291" y="0" name="bottom"/>
  <outline>
    <contour>
      <point x="16" y="320" type="curve"/>
      <point x="280" y="320" type="line"/>
      <point x="305" y="320"/>
      <point x="305" y="351"/>
      <point x="305" y="374" type="curve" smooth="yes"/>
      <point x="305" y="389"/>
      <point x="300" y="396"/>
      <point x="288" y="396" type="curve"/>
      <point x="24" y="396" type="line"/>
      <point x="-1" y="396"/>
      <point x="-1" y="365"/>
      <point x="-1" y="342" type="curve" smooth="yes"/>
      <point x="-1" y="327"/>
      <point x="4" y="320"/>
    </contour>
    <component base="D"/>
  </outline>
</glyph>
<glyph name="multiply" format="2">
  <advance width="560"/>
  <unicode hex="00D7"/>
  <outline>
    <contour>
      <point x="253" y="206" type="line"/>
      <point x="303" y="206" type="line"/>
      <point x="516" y="399" type="line" smooth="yes"/>
      <point x="521" y="404"/>
      <point x="524" y="408"/>
      <point x="524" y="413" type="curve" smooth="yes"/>
      <point x="524" y="417"/>
      <point x="523" y="422"/>
      <point x="519" y="427" type="curve" smooth="yes"/>
      <point x="502" y="447" type="line" smooth="yes"/>
      <point x="497" y="452"/>
      <point x="492" y="454"/>
      <point x="488" y="454" type="curve" smooth="yes"/>
      <point x="483" y="454"/>
      <point x="479" y="452"/>
      <point x="474" y="447" type="curve" smooth="yes"/>
      <point x="256" y="249" type="line"/>
      <point x="308" y="249" type="line"/>
      <point x="132" y="447" type="line" smooth="yes"/>
      <point x="127" y="452"/>
      <point x="122" y="454"/>
      <point x="118" y="454" type="curve" smooth="yes"/>
      <point x="113" y="454"/>
      <point x="109" y="452"/>
      <point x="104" y="447" type="curve" smooth="yes"/>
      <point x="83" y="427" type="line" smooth="yes"/>
      <point x="77" y="422"/>
      <point x="73" y="417"/>
      <point x="73" y="413" type="curve" smooth="yes"/>
      <point x="73" y="408"/>
      <point x="75" y="404"/>
      <point x="80" y="399" type="curve" smooth="yes"/>
    </contour>
    <contour>
      <point x="71" y="0" type="curve" smooth="yes"/>
      <point x="75" y="0"/>
      <point x="80" y="3"/>
      <point x="85" y="8" type="curve" smooth="yes"/>
      <point x="293" y="197" type="line"/>
      <point x="262" y="197" type="line"/>
      <point x="427" y="8" type="line" smooth="yes"/>
      <point x="432" y="3"/>
      <point x="436" y="0"/>
      <point x="441" y="0" type="curve" smooth="yes"/>
      <point x="445" y="0"/>
      <point x="450" y="3"/>
      <point x="455" y="8" type="curve" smooth="yes"/>
      <point x="477" y="28" type="line" smooth="yes"/>
      <point x="482" y="33"/>
      <point x="485" y="37"/>
      <point x="485" y="42" type="curve" smooth="yes"/>
      <point x="485" y="46"/>
      <point x="484" y="51"/>
      <point x="480" y="56" type="curve" smooth="yes"/>
      <point x="314" y="243" type="line"/>
      <point x="250" y="243" type="line"/>
      <point x="44" y="56" type="line" smooth="yes"/>
      <point x="38" y="51"/>
      <point x="34" y="46"/>
      <point x="34" y="42" type="curve" smooth="yes"/>
      <point x="34" y="37"/>
      <point x="36" y="33"/>
      <point x="41" y="28" type="curve" smooth="yes"/>
      <point x="57" y="8" type="line" smooth="yes"/>
      <point x="62" y="3"/>
      <point x="66" y="0"/>
    </contour>
  </outline>
</glyph>
<glyph name="Oslash" format="2">
  <advance width="731"/>
  <unicode hex="00D8"/>
  <anchor x="406" y="700" name="top"/>
  <anchor x="403" y="0" name="ogonek"/>
  <anchor x="503" y="682" name="horn"/>
  <anchor x="327" y="0" name="bottom"/>
  <outline>
    <contour>
      <point x="33" y="9" type="curve" smooth="yes"/>
      <point x="696" y="669" type="line" smooth="yes"/>
      <point x="701" y="674"/>
      <point x="703" y="678"/>
      <point x="703" y="683" type="curve" smooth="yes"/>
      <point x="703" y="692"/>
      <point x="692" y="702"/>
      <point x="683" y="702" type="curve" smooth="yes"/>
      <point x="678" y="702"/>
      <point x="674" y="700"/>
      <point x="669" y="695" type="curve"/>
      <point x="7" y="35" type="line"/>
      <point x="2" y="30"/>
      <point x="-1" y="25"/>
      <point x="-1" y="21" type="curve" smooth="yes"/>
      <point x="-1" y="12"/>
      <point x="11" y="1"/>
      <point x="19" y="1" type="curve" smooth="yes"/>
      <point x="23" y="1"/>
      <point x="28" y="4"/>
    </contour>
    <component base="O"/>
  </outline>
</glyph>
<glyph name="Thorn" format="2">
  <advance width="567"/>
  <unicode hex="00DE"/>
  <outline>
    <contour>
      <point x="88" y="-2" type="curve" smooth="yes"/>
      <point x="96" y="-2" type="line" smooth="yes"/>
      <point x="122" y="-2"/>
      <point x="136" y="6"/>
      <point x="138" y="20" type="curve" smooth="yes"/>
      <point x="154" y="176" type="line"/>
      <point x="309" y="176" type="line" smooth="yes"/>
      <point x="376" y="176"/>
      <point x="546" y="201"/>
      <point x="546" y="411" type="curve" smooth="yes"/>
      <point x="546" y="554"/>
      <point x="422" y="578"/>
      <point x="341" y="578" type="curve" smooth="yes"/>
      <point x="196" y="578" type="line"/>
      <point x="207" y="680" type="line"/>
      <point x="207" y="694"/>
      <point x="198" y="702"/>
      <point x="169" y="702" type="curve" smooth="yes"/>
      <point x="161" y="702" type="line" smooth="yes"/>
      <point x="133" y="702"/>
      <point x="121" y="694"/>
      <point x="119" y="680" type="curve" smooth="yes"/>
      <point x="50" y="20" type="line"/>
      <point x="50" y="6"/>
      <point x="58" y="-2"/>
    </contour>
    <contour>
      <point x="162" y="252" type="line"/>
      <point x="188" y="502" type="line"/>
      <point x="330" y="502" type="line" smooth="yes"/>
      <point x="385" y="502"/>
      <point x="454" y="483"/>
      <point x="454" y="399" type="curve" smooth="yes"/>
      <point x="454" y="275"/>
      <point x="357" y="252"/>
      <point x="318" y="252" type="curve" smooth="yes"/>
    </contour>
  </outline>
</glyph>
<glyph name="germandbls" format="2">
  <advance width="554"/>
  <unicode hex="00DF"/>
  <outline>
    <contour>
      <point x="92" y="-2" type="curve" smooth="yes"/>
      <point x="96" y="-2" type="line" smooth="yes"/>
      <point x="124" y="-2"/>
      <point x="136" y="6"/>
      <point x="138" y="20" type="curve" smooth="yes"/>
      <point x="191" y="521" type="line" smooth="yes"/>
      <point x="198" y="591"/>
      <point x="246" y="634"/>
      <point x="314" y="634" type="curve" smooth="yes"/>
      <point x="363" y="634"/>
      <point x="415" y="617"/>
      <point x="415" y="545" type="curve" smooth="yes"/>
      <point x="415" y="472"/>
      <point x="352" y="412"/>
      <point x="283" y="412" type="curve" smooth="yes"/>
      <point x="271" y="412" type="line" smooth="yes"/>
      <point x="251" y="412"/>
      <point x="247" y="387"/>
      <point x="246" y="373" type="curve"/>
      <point x="246" y="367" type="line"/>
      <point x="246" y="351"/>
      <point x="249" y="340"/>
      <point x="263" y="340" type="curve" smooth="yes"/>
      <point x="298" y="340" type="line" smooth="yes"/>
      <point x="362" y="340"/>
      <point x="411" y="297"/>
      <point x="411" y="225" type="curve" smooth="yes"/>
      <point x="411" y="128"/>
      <point x="344" y="72"/>
      <point x="270" y="72" type="curve" smooth="yes"/>
      <point x="235" y="72" type="line" smooth="yes"/>
      <point x="213" y="72"/>
      <point x="210" y="45"/>
      <point x="210" y="31" type="curve"/>
      <point x="210" y="27" type="line"/>
      <point x="210" y="11"/>
      <point x="213" y="0"/>
      <point x="227" y="0" type="curve" smooth="yes"/>
      <point x="261" y="0" type="line" smooth="yes"/>
      <point x="385" y="0"/>
      <point x="499" y="81"/>
      <point x="499" y="230" type="curve" smooth="yes"/>
      <point x="499" y="305"/>
      <point x="461" y="366"/>
      <point x="386" y="384" type="curve"/>
      <point x="386" y="387" type="line"/>
      <point x="463" y="418"/>
      <point x="505" y="496"/>
      <point x="505" y="561" type="curve" smooth="yes"/>
      <point x="505" y="669"/>
      <point x="425" y="706"/>
      <point x="324" y="706" type="curve" smooth="yes"/>
      <point x="205" y="706"/>
      <point x="118" y="630"/>
      <point x="107" y="521" type="curve" smooth="yes"/>
      <point x="54" y="20" type="line"/>
      <point x="54" y="6"/>
      <point x="63" y="-2"/>
    </contour>
  </outline>
</glyph>
<glyph name="eth" format="2">
  <advance width="569"/>
  <unicode hex="00F0"/>
  <outline>
    <contour>
      <point x="249" y="-6" type="curve" smooth="yes"/>
      <point x="410" y="-6"/>
      <point x="507" y="106"/>
      <point x="507" y="315" type="curve" smooth="yes"/>
      <point x="507" y="424"/>
      <point x="475" y="528"/>
      <point x="427" y="618" type="curve"/>
      <point x="488" y="626" type="line" smooth="yes"/>
      <point x="500" y="627"/>
      <point x="504" y="633"/>
      <point x="504" y="641" type="curve" smooth="yes"/>
      <point x="504" y="649"/>
      <point x="500" y="671"/>
      <point x="483" y="671" type="curve" smooth="yes"/>
      <point x="482" y="671"/>
      <point x="481" y="671"/>
      <point x="404" y="660" type="curve"/>
      <point x="395" y="673"/>
      <point x="387" y="685"/>
      <point x="378" y="698" type="curve" smooth="yes"/>
      <point x="371" y="707"/>
      <point x="363" y="713"/>
      <point x="349" y="713" type="curve" smooth="yes"/>
      <point x="337" y="713"/>
      <point x="318" y="710"/>
      <point x="312" y="709" type="curve" smooth="yes"/>
      <point x="304" y="708"/>
      <point x="300" y="704"/>
      <point x="300" y="699" type="curve" smooth="yes"/>
      <point x="300" y="696"/>
      <point x="301" y="693"/>
      <point x="304" y="689" type="curve" smooth="yes"/>
      <point x="312" y="676"/>
      <point x="313" y="675"/>
      <point x="327" y="650" type="curve"/>
      <point x="254" y="640" type="line" smooth="yes"/>
      <point x="242" y="638"/>
      <point x="237" y="633"/>
      <point x="237" y="625" type="curve" smooth="yes"/>
      <point x="237" y="611"/>
      <point x="247" y="595"/>
      <point x="260" y="595" type="curve" smooth="yes"/>
      <point x="262" y="595"/>
      <point x="264" y="596"/>
      <point x="347" y="607" type="curve"/>
      <point x="362" y="574"/>
      <point x="379" y="533"/>
      <point x="393" y="490" type="curve"/>
      <point x="407" y="508" type="line"/>
      <point x="376" y="522"/>
      <point x="343" y="529"/>
      <point x="305" y="529" type="curve" smooth="yes"/>
      <point x="145" y="529"/>
      <point x="42" y="412"/>
      <point x="42" y="207" type="curve" smooth="yes"/>
      <point x="42" y="68"/>
      <point x="114" y="-6"/>
    </contour>
    <contour>
      <point x="253" y="66" type="curve" smooth="yes"/>
      <point x="168" y="66"/>
      <point x="128" y="112"/>
      <point x="128" y="211" type="curve" smooth="yes"/>
      <point x="128" y="379"/>
      <point x="190" y="457"/>
      <point x="294" y="457" type="curve" smooth="yes"/>
      <point x="379" y="457"/>
      <point x="420" y="409"/>
      <point x="420" y="310" type="curve" smooth="yes"/>
      <point x="420" y="143"/>
      <point x="358" y="66"/>
    </contour>
  </outline>
</glyph>
<glyph name="divide" format="2">
  <advance width="560"/>
  <unicode hex="00F7"/>
  <outline>
    <contour>
      <point x="74" y="197" type="curve" smooth="yes"/>
      <point x="478" y="197" type="line" smooth="yes"/>
      <point x="498" y="197"/>
      <point x="512" y="208"/>
      <point x="512" y="234" type="curve"/>
      <point x="512" y="241" type="line"/>
      <point x="512" y="252"/>
      <point x="503" y="264"/>
      <point x="485" y="264" type="curve" smooth="yes"/>
      <point x="81" y="264" type="line" smooth="yes"/>
      <point x="62" y="264"/>
      <point x="47" y="254"/>
      <point x="47" y="227" type="curve"/>
      <point x="47" y="220" type="line"/>
      <point x="47" y="209"/>
      <point x="56" y="197"/>
    </contour>
    <contour>
      <point x="253" y="-2" type="curve" smooth="yes"/>
      <point x="257" y="-2" type="line" smooth="yes"/>
      <point x="285" y="-2"/>
      <point x="297" y="6"/>
      <point x="299" y="20" type="curve" smooth="yes"/>
      <point x="305" y="71" type="line"/>
      <point x="305" y="85"/>
      <point x="296" y="93"/>
      <point x="267" y="93" type="curve" smooth="yes"/>
      <point x="263" y="93" type="line" smooth="yes"/>
      <point x="235" y="93"/>
      <point x="222" y="85"/>
      <point x="221" y="71" type="curve" smooth="yes"/>
      <point x="215" y="20" type="line"/>
      <point x="215" y="6"/>
      <point x="224" y="-2"/>
    </contour>
    <contour>
      <point x="292" y="368" type="curve" smooth="yes"/>
      <point x="296" y="368" type="line" smooth="yes"/>
      <point x="324" y="368"/>
      <point x="336" y="376"/>
      <point x="338" y="390" type="curve" smooth="yes"/>
      <point x="344" y="441" type="line"/>
      <point x="344" y="455"/>
      <point x="335" y="463"/>
      <point x="306" y="463" type="curve" smooth="yes"/>
      <point x="302" y="463" type="line" smooth="yes"/>
      <point x="274" y="463"/>
      <point x="261" y="455"/>
      <point x="260" y="441" type="curve" smooth="yes"/>
      <point x="254" y="390" type="line"/>
      <point x="254" y="376"/>
      <point x="263" y="368"/>
    </contour>
  </outline>
</glyph>
<glyph name="oslash" format="2">
  <advance width="569"/>
  <unicode hex="00F8"/>
  <anchor x="285" y="523" name="top"/>
  <anchor x="318" y="0" name="ogonek"/>
  <anchor x="398" y="505" name="horn"/>
  <anchor x="256" y="0" name="bottom"/>
  <outline>
    <contour>
      <point x="59" y="0" type="curve" smooth="yes"/>
      <point x="62" y="0"/>
      <point x="65" y="2"/>
      <point x="69" y="6" type="curve"/>
      <point x="537" y="490" type="line"/>
      <point x="540" y="494"/>
      <point x="542" y="497"/>
      <point x="542" y="501" type="curve" smooth="yes"/>
      <point x="542" y="504"/>
      <point x="540" y="508"/>
      <point x="536" y="512" type="curve" smooth="yes"/>
      <point x="534" y="514"/>
      <point x="533" y="515"/>
      <point x="531" y="517" type="curve" smooth="yes"/>
      <point x="527" y="521"/>
      <point x="523" y="523"/>
      <point x="520" y="523" type="curve" smooth="yes"/>
      <point x="516" y="523"/>
      <point x="513" y="521"/>
      <point x="510" y="517" type="curve"/>
      <point x="42" y="33" type="line"/>
      <point x="38" y="29"/>
      <point x="37" y="26"/>
      <point x="37" y="22" type="curve" smooth="yes"/>
      <point x="37" y="19"/>
      <point x="39" y="15"/>
      <point x="43" y="11" type="curve" smooth="yes"/>
      <point x="45" y="9"/>
      <point x="46" y="8"/>
      <point x="48" y="6" type="curve" smooth="yes"/>
      <point x="52" y="2"/>
      <point x="55" y="0"/>
    </contour>
    <component base="o" xOffset="5"/>
  </outline>
</glyph>
<glyph name="thorn" format="2">
  <advance width="571"/>
  <unicode hex="00FE"/>
  <outline>
    <contour>
      <point x="74" y="-208" type="curve" smooth="yes"/>
      <point x="78" y="-208" type="line" smooth="yes"/>
      <point x="101" y="-208"/>
      <point x="118" y="-200"/>
      <point x="120" y="-186" type="curve" smooth="yes"/>
      <point x="144" y="45" type="line"/>
      <point x="167" y="25"/>
      <point x="213" y="-6"/>
      <point x="277" y="-6" type="curve" smooth="yes"/>
      <point x="421" y="-6"/>
      <point x="513" y="127"/>
      <point x="513" y="313" type="curve" smooth="yes"/>
      <point x="513" y="487"/>
      <point x="408" y="529"/>
      <point x="341" y="529" type="curve" smooth="yes"/>
      <point x="283" y="529"/>
      <point x="227" y="502"/>
      <point x="186" y="436" type="curve"/>
      <point x="217" y="731" type="line"/>
      <point x="217" y="743"/>
      <point x="206" y="752"/>
      <point x="179" y="752" type="curve" smooth="yes"/>
      <point x="175" y="752" type="line" smooth="yes"/>
      <point x="150" y="752"/>
      <point x="134" y="744"/>
      <point x="133" y="730" type="curve" smooth="yes"/>
      <point x="36" y="-187" type="line"/>
      <point x="36" y="-199"/>
      <point x="47" y="-208"/>
    </contour>
    <contour>
      <point x="265" y="66" type="curve" smooth="yes"/>
      <point x="208" y="66"/>
      <point x="169" y="94"/>
      <point x="151" y="110" type="curve"/>
      <point x="172" y="305" type="line"/>
      <point x="214" y="423"/>
      <point x="278" y="456"/>
      <point x="322" y="456" type="curve" smooth="yes"/>
      <point x="379" y="456"/>
      <point x="426" y="421"/>
      <point x="426" y="307" type="curve" smooth="yes"/>
      <point x="426" y="187"/>
      <point x="394" y="66"/>
    </contour>
  </outline>
</glyph>
<glyph name="idotless" format="2">
  <advance width="265"/>
  <unicode hex="0131"/>
  <anchor x="119" y="0" name="bottom"/>
  <anchor x="200" y="10" name="ogonek"/>
  <anchor x="146" y="523" name="top"/>
  <outline>
    <contour>
      <point x="152" y="-6" type="curve" smooth="yes"/>
      <point x="170" y="-6"/>
      <point x="207" y="2"/>
      <point x="212" y="27" type="curve" smooth="yes"/>
      <point x="216" y="49"/>
      <point x="216" y="63"/>
      <point x="216" y="64" type="curve" smooth="yes"/>
      <point x="216" y="70"/>
      <point x="213" y="71"/>
      <point x="210" y="71" type="curve" smooth="yes"/>
      <point x="204" y="71"/>
      <point x="195" y="66"/>
      <point x="183" y="66" type="curve" smooth="yes"/>
      <point x="167" y="66"/>
      <point x="148" y="66"/>
      <point x="148" y="107" type="curve" smooth="yes"/>
      <point x="148" y="137"/>
      <point x="188" y="503"/>
      <point x="188" y="503" type="curve"/>
      <point x="188" y="518"/>
      <point x="178" y="525"/>
      <point x="150" y="525" type="curve" smooth="yes"/>
      <point x="146" y="525" type="line" smooth="yes"/>
      <point x="120" y="525"/>
      <point x="106" y="519"/>
      <point x="104" y="503" type="curve"/>
      <point x="103" y="503"/>
      <point x="77" y="259"/>
      <point x="71" y="186" type="curve" smooth="yes"/>
      <point x="66" y="138"/>
      <point x="63" y="100"/>
      <point x="63" y="89" type="curve" smooth="yes"/>
      <point x="63" y="23"/>
      <point x="96" y="-6"/>
    </contour>
  </outline>
</glyph>
<glyph name="Lslash" format="2">
  <advance width="486"/>
  <unicode hex="0141"/>
  <anchor x="292" y="700" name="caron"/>
  <anchor x="168" y="702" name="top"/>
  <anchor x="242" y="0" name="bottom"/>
  <outline>
    <contour>
      <point x="2" y="304" type="curve" smooth="yes"/>
      <point x="4" y="304"/>
      <point x="8" y="306"/>
      <point x="12" y="308" type="curve" smooth="yes"/>
      <point x="292" y="465" type="line" smooth="yes"/>
      <point x="305" y="472"/>
      <point x="315" y="481"/>
      <point x="315" y="501" type="curve" smooth="yes"/>
      <point x="315" y="502" type="line" smooth="yes"/>
      <point x="315" y="511"/>
      <point x="313" y="515"/>
      <point x="308" y="515" type="curve" smooth="yes"/>
      <point x="305" y="515"/>
      <point x="301" y="513"/>
      <point x="297" y="511" type="curve" smooth="yes"/>
      <point x="17" y="354" type="line" smooth="yes"/>
      <point x="5" y="347"/>
      <point x="-5" y="338"/>
      <point x="-5" y="318" type="curve" smooth="yes"/>
      <point x="-5" y="317" type="line" smooth="yes"/>
      <point x="-5" y="309"/>
      <point x="-3" y="304"/>
    </contour>
    <component base="L"/>
  </outline>
</glyph>
<glyph name="lslash" format="2">
  <advance width="293"/>
  <unicode hex="0142"/>
  <anchor x="216" y="752" name="caron"/>
  <anchor x="192" y="720" name="top"/>
  <anchor x="287" y="335" name="center"/>
  <anchor x="157" y="0" name="bottom"/>
  <outline>
    <contour>
      <point x="66" y="327" type="curve"/>
      <point x="244" y="426" type="line"/>
      <point x="256" y="433"/>
      <point x="267" y="441"/>
      <point x="267" y="459" type="curve"/>
      <point x="267" y="462" type="line"/>
      <point x="267" y="471"/>
      <point x="265" y="476"/>
      <point x="260" y="476" type="curve" smooth="yes"/>
      <point x="257" y="476"/>
      <point x="253" y="474"/>
      <point x="249" y="472" type="curve"/>
      <point x="71" y="373" type="line"/>
      <point x="59" y="367"/>
      <point x="48" y="358"/>
      <point x="48" y="342" type="curve"/>
      <point x="48" y="337" type="line"/>
      <point x="48" y="328"/>
      <point x="50" y="323"/>
      <point x="55" y="323" type="curve" smooth="yes"/>
      <point x="57" y="323"/>
      <point x="62" y="325"/>
    </contour>
    <component base="l" xOffset="8"/>
  </outline>
</glyph>
<glyph name="Eng" format="2">
  <advance width="719"/>
  <unicode hex="014A"/>
  <outline>
    <contour>
      <point x="455" y="-212" type="curve" smooth="yes"/>
      <point x="506" y="-212"/>
      <point x="575" y="-190"/>
      <point x="587" y="-74" type="curve"/>
      <point x="666" y="680" type="line"/>
      <point x="666" y="694"/>
      <point x="657" y="702"/>
      <point x="628" y="702" type="curve" smooth="yes"/>
      <point x="621" y="702" type="line" smooth="yes"/>
      <point x="593" y="702"/>
      <point x="580" y="694"/>
      <point x="579" y="680" type="curve" smooth="yes"/>
      <point x="530" y="212" type="line" smooth="yes"/>
      <point x="527" y="188"/>
      <point x="526" y="166"/>
      <point x="526" y="146" type="curve"/>
      <point x="519" y="145" type="line"/>
      <point x="514" y="167"/>
      <point x="508" y="184"/>
      <point x="497" y="205" type="curve"/>
      <point x="224" y="683" type="line" smooth="yes"/>
      <point x="216" y="697"/>
      <point x="206" y="702"/>
      <point x="184" y="702" type="curve" smooth="yes"/>
      <point x="163" y="702" type="line" smooth="yes"/>
      <point x="135" y="702"/>
      <point x="122" y="694"/>
      <point x="121" y="680" type="curve" smooth="yes"/>
      <point x="52" y="20" type="line"/>
      <point x="52" y="6"/>
      <point x="60" y="-2"/>
      <point x="90" y="-2" type="curve" smooth="yes"/>
      <point x="97" y="-2" type="line" smooth="yes"/>
      <point x="123" y="-2"/>
      <point x="137" y="6"/>
      <point x="139" y="20" type="curve"/>
      <point x="189" y="494" type="line" smooth="yes"/>
      <point x="192" y="518"/>
      <point x="193" y="540"/>
      <point x="193" y="560" type="curve"/>
      <point x="200" y="561" type="line"/>
      <point x="205" y="539"/>
      <point x="211" y="522"/>
      <point x="222" y="501" type="curve"/>
      <point x="511" y="-5" type="line"/>
      <point x="504" y="-66" type="line" smooth="yes"/>
      <point x="498" y="-126"/>
      <point x="475" y="-140"/>
      <point x="444" y="-140" type="curve" smooth="yes"/>
      <point x="409" y="-140"/>
      <point x="396" y="-123"/>
      <point x="388" y="-123" type="curve" smooth="yes"/>
      <point x="383" y="-123"/>
      <point x="377" y="-129"/>
      <point x="377" y="-171" type="curve" smooth="yes"/>
      <point x="377" y="-195"/>
      <point x="409" y="-212"/>
    </contour>
  </outline>
</glyph>
<glyph name="eng" format="2">
  <advance width="557"/>
  <unicode hex="014B"/>
  <anchor x="289" y="523" name="top"/>
  <outline>
    <contour>
      <point x="290" y="-212" type="curve" smooth="yes"/>
      <point x="341" y="-212"/>
      <point x="410" y="-190"/>
      <point x="422" y="-74" type="curve" smooth="yes"/>
      <point x="471" y="399" type="line"/>
      <point x="471" y="473"/>
      <point x="436" y="529"/>
      <point x="339" y="529" type="curve" smooth="yes"/>
      <point x="278" y="529"/>
      <point x="216" y="502"/>
      <point x="162" y="428" type="curve"/>
      <point x="162" y="485"/>
      <point x="157" y="514"/>
      <point x="136" y="514" type="curve" smooth="yes"/>
      <point x="129" y="514"/>
      <point x="80" y="513"/>
      <point x="80" y="491" type="curve" smooth="yes"/>
      <point x="80" y="485"/>
      <point x="81" y="481"/>
      <point x="81" y="457" type="curve" smooth="yes"/>
      <point x="81" y="446"/>
      <point x="79" y="416"/>
      <point x="75" y="376" type="curve"/>
      <point x="37" y="19" type="line"/>
      <point x="37" y="7"/>
      <point x="48" y="-2"/>
      <point x="75" y="-2" type="curve" smooth="yes"/>
      <point x="79" y="-2" type="line" smooth="yes"/>
      <point x="105" y="-2"/>
      <point x="119" y="6"/>
      <point x="121" y="20" type="curve"/>
      <point x="150" y="295" type="line"/>
      <point x="193" y="424"/>
      <point x="265" y="456"/>
      <point x="309" y="456" type="curve" smooth="yes"/>
      <point x="360" y="456"/>
      <point x="385" y="430"/>
      <point x="385" y="380" type="curve"/>
      <point x="339" y="-66" type="line" smooth="yes"/>
      <point x="333" y="-126"/>
      <point x="310" y="-140"/>
      <point x="279" y="-140" type="curve" smooth="yes"/>
      <point x="244" y="-140"/>
      <point x="231" y="-123"/>
      <point x="223" y="-123" type="curve" smooth="yes"/>
      <point x="218" y="-123"/>
      <point x="212" y="-129"/>
      <point x="212" y="-171" type="curve" smooth="yes"/>
      <point x="212" y="-195"/>
      <point x="244" y="-212"/>
    </contour>
  </outline>
</glyph>
<glyph name="OE" format="2">
  <advance width="1021"/>
  <unicode hex="0152"/>
  <anchor x="520" y="0" name="bottom"/>
  <anchor x="934" y="10" name="ogonek"/>
  <anchor x="511" y="700" name="top"/>
  <outline>
    <contour>
      <point x="327" y="-6" type="curve" smooth="yes"/>
      <point x="429" y="-6"/>
      <point x="516" y="28"/>
      <point x="573" y="90" type="curve"/>
      <point x="569" y="177" type="line"/>
      <point x="551" y="24" type="line" smooth="yes"/>
      <point x="549" y="7"/>
      <point x="559" y="0"/>
      <point x="578" y="0" type="curve" smooth="yes"/>
      <point x="932" y="0" type="line" smooth="yes"/>
      <point x="956" y="0"/>
      <point x="957" y="27"/>
      <point x="957" y="50" type="curve" smooth="yes"/>
      <point x="957" y="54" type="line" smooth="yes"/>
      <point x="957" y="69"/>
      <point x="952" y="76"/>
      <point x="940" y="76" type="curve" smooth="yes"/>
      <point x="644" y="76" type="line"/>
      <point x="669" y="320" type="line"/>
      <point x="933" y="320" type="line" smooth="yes"/>
      <point x="955" y="320"/>
      <point x="958" y="345"/>
      <point x="958" y="366" type="curve"/>
      <point x="958" y="374" type="line"/>
      <point x="958" y="389"/>
      <point x="953" y="396"/>
      <point x="941" y="396" type="curve" smooth="yes"/>
      <point x="677" y="396" type="line"/>
      <point x="701" y="624" type="line"/>
      <point x="996" y="624" type="line" smooth="yes"/>
      <point x="1019" y="624"/>
      <point x="1021" y="650"/>
      <point x="1021" y="672" type="curve"/>
      <point x="1021" y="678" type="line"/>
      <point x="1021" y="693"/>
      <point x="1016" y="700"/>
      <point x="1004" y="700" type="curve" smooth="yes"/>
      <point x="651" y="700" type="line" smooth="yes"/>
      <point x="630" y="700"/>
      <point x="620" y="691"/>
      <point x="618" y="670" type="curve" smooth="yes"/>
      <point x="608" y="591" type="line"/>
      <point x="628" y="612" type="line"/>
      <point x="582" y="671"/>
      <point x="503" y="706"/>
      <point x="402" y="706" type="curve" smooth="yes"/>
      <point x="187" y="706"/>
      <point x="53" y="562"/>
      <point x="53" y="282" type="curve" smooth="yes"/>
      <point x="53" y="93"/>
      <point x="148" y="-6"/>
    </contour>
    <contour>
      <point x="335" y="70" type="curve" smooth="yes"/>
      <point x="210" y="70"/>
      <point x="144" y="146"/>
      <point x="144" y="291" type="curve" smooth="yes"/>
      <point x="144" y="515"/>
      <point x="242" y="630"/>
      <point x="394" y="630" type="curve" smooth="yes"/>
      <point x="519" y="630"/>
      <point x="586" y="556"/>
      <point x="586" y="410" type="curve" smooth="yes"/>
      <point x="586" y="189"/>
      <point x="485" y="70"/>
    </contour>
  </outline>
</glyph>
<glyph name="Ohorn" format="2">
  <advance width="731"/>
  <unicode hex="01A0"/>
  <anchor x="327" y="0" name="bottom"/>
  <anchor x="403" y="0" name="ogonek"/>
  <anchor x="402" y="700" name="top"/>
  <outline>
    <contour>
      <point x="327" y="-6" type="curve" smooth="yes"/>
      <point x="541" y="-6"/>
      <point x="678" y="142"/>
      <point x="678" y="420" type="curve" smooth="yes"/>
      <point x="678" y="526"/>
      <point x="648" y="603"/>
      <point x="590" y="650" type="curve"/>
      <point x="654" y="658"/>
      <point x="690" y="700"/>
      <point x="690" y="746" type="curve" smooth="yes"/>
      <point x="690" y="774"/>
      <point x="678" y="813"/>
      <point x="655" y="813" type="curve" smooth="yes"/>
      <point x="651" y="813"/>
      <point x="647" y="812"/>
      <point x="643" y="809" type="curve"/>
      <point x="617" y="793" type="line" smooth="yes"/>
      <point x="610" y="789"/>
      <point x="606" y="783"/>
      <point x="606" y="777" type="curve" smooth="yes"/>
      <point x="606" y="765"/>
      <point x="627" y="745"/>
      <point x="627" y="722" type="curve" smooth="yes"/>
      <point x="627" y="695"/>
      <point x="605" y="683"/>
      <point x="574" y="682" type="curve" smooth="yes"/>
      <point x="555" y="682"/>
      <point x="535" y="686"/>
      <point x="513" y="691" type="curve" smooth="yes"/>
      <point x="473" y="700"/>
      <point x="443" y="706"/>
      <point x="402" y="706" type="curve" smooth="yes"/>
      <point x="139" y="706"/>
      <point x="53" y="492"/>
      <point x="53" y="282" type="curve" smooth="yes"/>
      <point x="53" y="93"/>
      <point x="148" y="-6"/>
    </contour>
    <contour>
      <point x="335" y="70" type="curve" smooth="yes"/>
      <point x="210" y="70"/>
      <point x="144" y="146"/>
      <point x="144" y="291" type="curve" smooth="yes"/>
      <point x="144" y="515"/>
      <point x="242" y="630"/>
      <point x="394" y="630" type="curve" smooth="yes"/>
      <point x="519" y="630"/>
      <point x="586" y="556"/>
      <point x="586" y="410" type="curve" smooth="yes"/>
      <point x="586" y="189"/>
      <point x="485" y="70"/>
    </contour>
  </outline>
</glyph>
<glyph name="ohorn" format="2">
  <advance width="569"/>
  <unicode hex="01A1"/>
  <anchor x="251" y="0" name="bottom"/>
  <anchor x="313" y="0" name="ogonek"/>
  <anchor x="305" y="523" name="top"/>
  <outline>
    <contour>
      <point x="252" y="-6" type="curve" smooth="yes"/>
      <point x="412" y="-6"/>
      <point x="510" y="105"/>
      <point x="510" y="312" type="curve" smooth="yes"/>
      <point x="510" y="383"/>
      <point x="492" y="438"/>
      <point x="458" y="474" type="curve"/>
      <point x="517" y="484"/>
      <point x="550" y="525"/>
      <point x="550" y="569" type="curve" smooth="yes"/>
      <point x="550" y="597"/>
      <point x="538" y="636"/>
      <point x="515" y="636" type="curve" smooth="yes"/>
      <point x="511" y="636"/>
      <point x="507" y="635"/>
      <point x="503" y="632" type="curve"/>
      <point x="477" y="616" type="line" smooth="yes"/>
      <point x="470" y="612"/>
      <point x="466" y="606"/>
      <point x="466" y="600" type="curve" smooth="yes"/>
      <point x="466" y="588"/>
      <point x="487" y="568"/>
      <point x="487" y="545" type="curve" smooth="yes"/>
      <point x="487" y="522"/>
      <point x="475" y="505"/>
      <point x="444" y="505" type="curve" smooth="yes"/>
      <point x="431" y="505"/>
      <point x="407" y="512"/>
      <point x="390" y="517" type="curve" smooth="yes"/>
      <point x="366" y="525"/>
      <point x="339" y="529"/>
      <point x="309" y="529" type="curve" smooth="yes"/>
      <point x="121" y="529"/>
      <point x="45" y="375"/>
      <point x="45" y="209" type="curve" smooth="yes"/>
      <point x="45" y="69"/>
      <point x="116" y="-6"/>
    </contour>
    <contour>
      <point x="257" y="66" type="curve" smooth="yes"/>
      <point x="172" y="66"/>
      <point x="131" y="113"/>
      <point x="131" y="212" type="curve" smooth="yes"/>
      <point x="131" y="362"/>
      <point x="188" y="457"/>
      <point x="298" y="457" type="curve" smooth="yes"/>
      <point x="383" y="457"/>
      <point x="423" y="410"/>
      <point x="423" y="310" type="curve" smooth="yes"/>
      <point x="423" y="151"/>
      <point x="364" y="66"/>
    </contour>
  </outline>
</glyph>
<glyph name="LJ" format="2">
  <advance width="718"/>
  <unicode hex="01C7"/>
  <outline>
    <contour>
      <point x="168" y="702" type="curve" smooth="yes"/>
      <point x="160" y="702" type="line" smooth="yes"/>
      <point x="132" y="702"/>
      <point x="119" y="694"/>
      <point x="118" y="680" type="curve" smooth="yes"/>
      <point x="50" y="30" type="line"/>
      <point x="50" y="9"/>
      <point x="55" y="0"/>
      <point x="77" y="0" type="curve" smooth="yes"/>
      <point x="342" y="0" type="line" smooth="yes"/>
      <point x="367" y="0"/>
      <point x="367" y="31"/>
      <point x="367" y="54" type="curve" smooth="yes"/>
      <point x="367" y="69"/>
      <point x="362" y="76"/>
      <point x="350" y="76" type="curve" smooth="yes"/>
      <point x="143" y="76" type="line"/>
      <point x="206" y="680" type="line"/>
      <point x="206" y="694"/>
      <point x="197" y="702"/>
    </contour>
    <contour>
      <point x="619" y="702" type="curve" smooth="yes"/>
      <point x="611" y="702" type="line" smooth="yes"/>
      <point x="582" y="702"/>
      <point x="570" y="694"/>
      <point x="569" y="680" type="curve" smooth="yes"/>
      <point x="502" y="48" type="line" smooth="yes"/>
      <point x="493" y="-38"/>
      <point x="450" y="-77"/>
      <point x="357" y="-77" type="curve" smooth="yes"/>
      <point x="317" y="-77"/>
      <point x="300" y="-68"/>
      <point x="291" y="-68" type="curve" smooth="yes"/>
      <point x="282" y="-68"/>
      <point x="276" y="-83"/>
      <point x="276" y="-127" type="curve" smooth="yes"/>
      <point x="276" y="-152"/>
      <point x="321" y="-159"/>
      <point x="364" y="-159" type="curve" smooth="yes"/>
      <point x="511" y="-159"/>
      <point x="578" y="-74"/>
      <point x="591" y="52" type="curve" smooth="yes"/>
      <point x="657" y="680" type="line"/>
      <point x="657" y="694"/>
      <point x="648" y="702"/>
    </contour>
  </outline>
</glyph>
<glyph name="schwa" format="2">
  <advance width="539"/>
  <unicode hex="0259"/>
  <anchor x="229" y="0" name="bottom"/>
  <anchor x="188" y="523" name="ogonek"/>
  <anchor x="269" y="523" name="top"/>
  <outline>
    <contour>
      <point x="218" y="-6" type="curve" smooth="yes"/>
      <point x="414" y="-6"/>
      <point x="493" y="143"/>
      <point x="493" y="322" type="curve" smooth="yes"/>
      <point x="493" y="501"/>
      <point x="366" y="529"/>
      <point x="267" y="529" type="curve" smooth="yes"/>
      <point x="224" y="529"/>
      <point x="112" y="512"/>
      <point x="103" y="465" type="curve" smooth="yes"/>
      <point x="99" y="444"/>
      <point x="98" y="423"/>
      <point x="98" y="420" type="curve" smooth="yes"/>
      <point x="98" y="408"/>
      <point x="101" y="408"/>
      <point x="105" y="408" type="curve" smooth="yes"/>
      <point x="119" y="408"/>
      <point x="170" y="457"/>
      <point x="260" y="457" type="curve" smooth="yes"/>
      <point x="348" y="457"/>
      <point x="406" y="424"/>
      <point x="406" y="313" type="curve" smooth="yes"/>
      <point x="406" y="264" type="line"/>
      <point x="423" y="299" type="line"/>
      <point x="401" y="305"/>
      <point x="368" y="310"/>
      <point x="320" y="310" type="curve" smooth="yes"/>
      <point x="184" y="310"/>
      <point x="50" y="266"/>
      <point x="50" y="127" type="curve" smooth="yes"/>
      <point x="50" y="76"/>
      <point x="92" y="-6"/>
    </contour>
    <contour>
      <point x="227" y="66" type="curve" smooth="yes"/>
      <point x="170" y="66"/>
      <point x="137" y="98"/>
      <point x="137" y="135" type="curve" smooth="yes"/>
      <point x="137" y="238"/>
      <point x="301" y="238"/>
      <point x="330" y="238" type="curve" smooth="yes"/>
      <point x="401" y="238" type="line"/>
      <point x="388" y="145"/>
      <point x="343" y="66"/>
    </contour>
  </outline>
</glyph>
<glyph name="circumflex" format="2">
  <advance width="256"/>
  <unicode hex="02C6"/>
  <anchor x="151" y="523" name="_top"/>
  <anchor x="336" y="616" name="top"/>
  <anchor x="208" y="695" name="top2"/>
  <outline>
    <contour>
      <point x="51" y="576" type="curve"/>
      <point x="53" y="576" type="line"/>
      <point x="67" y="576"/>
      <point x="77" y="580"/>
      <point x="88" y="589" type="curve"/>
      <point x="157" y="663" type="line"/>
      <point x="212" y="589" type="line"/>
      <point x="221" y="580"/>
      <point x="231" y="576"/>
      <point x="244" y="576" type="curve"/>
      <point x="246" y="576" type="line"/>
      <point x="262" y="576"/>
      <point x="271" y="582"/>
      <point x="272" y="591" type="curve" smooth="yes"/>
      <point x="272" y="596"/>
      <point x="271" y="602"/>
      <point x="267" y="608" type="curve" smooth="yes"/>
      <point x="220" y="696" type="line" smooth="yes"/>
      <point x="212" y="711"/>
      <point x="195" y="718"/>
      <point x="176" y="718" type="curve" smooth="yes"/>
      <point x="151" y="718" type="line" smooth="yes"/>
      <point x="131" y="718"/>
      <point x="114" y="711"/>
      <point x="103" y="696" type="curve" smooth="yes"/>
      <point x="37" y="608" type="line"/>
      <point x="32" y="600"/>
      <point x="30" y="594"/>
      <point x="30" y="588" type="curve" smooth="yes"/>
      <point x="30" y="580"/>
      <point x="37" y="576"/>
    </contour>
  </outline>
</glyph>
<glyph name="caron" format="2">
  <advance width="256"/>
  <unicode hex="02C7"/>
  <anchor x="142" y="523" name="_top"/>
  <outline>
    <contour>
      <point x="135" y="582" type="curve" smooth="yes"/>
      <point x="160" y="582" type="line" smooth="yes"/>
      <point x="180" y="582"/>
      <point x="197" y="589"/>
      <point x="208" y="604" type="curve" smooth="yes"/>
      <point x="275" y="692" type="line" smooth="yes"/>
      <point x="280" y="699"/>
      <point x="282" y="705"/>
      <point x="282" y="710" type="curve" smooth="yes"/>
      <point x="282" y="719"/>
      <point x="275" y="724"/>
      <point x="260" y="724" type="curve"/>
      <point x="258" y="724" type="line"/>
      <point x="245" y="724"/>
      <point x="235" y="720"/>
      <point x="224" y="711" type="curve"/>
      <point x="153" y="637" type="line"/>
      <point x="100" y="711" type="line"/>
      <point x="91" y="720"/>
      <point x="81" y="724"/>
      <point x="67" y="724" type="curve"/>
      <point x="65" y="724" type="line"/>
      <point x="50" y="724"/>
      <point x="41" y="719"/>
      <point x="40" y="710" type="curve" smooth="yes"/>
      <point x="40" y="705"/>
      <point x="41" y="699"/>
      <point x="45" y="692" type="curve" smooth="yes"/>
      <point x="91" y="604" type="line" smooth="yes"/>
      <point x="99" y="589"/>
      <point x="116" y="582"/>
    </contour>
  </outline>
</glyph>
<glyph name="breve" format="2">
  <advance width="256"/>
  <unicode hex="02D8"/>
  <anchor x="146" y="523" name="_top"/>
  <anchor x="174" y="776" name="tilde"/>
  <anchor x="165" y="671" name="top"/>
  <outline>
    <contour>
      <point x="151" y="585" type="curve" smooth="yes"/>
      <point x="218" y="585"/>
      <point x="307" y="624"/>
      <point x="307" y="703" type="curve" smooth="yes"/>
      <point x="307" y="711"/>
      <point x="303" y="715"/>
      <point x="293" y="715" type="curve" smooth="yes"/>
      <point x="275" y="715"/>
      <point x="279" y="706"/>
      <point x="269" y="690" type="curve" smooth="yes"/>
      <point x="251" y="662"/>
      <point x="206" y="651"/>
      <point x="158" y="651" type="curve" smooth="yes"/>
      <point x="109" y="651"/>
      <point x="66" y="662"/>
      <point x="54" y="690" type="curve" smooth="yes"/>
      <point x="47" y="706"/>
      <point x="51" y="715"/>
      <point x="34" y="715" type="curve" smooth="yes"/>
      <point x="19" y="715"/>
      <point x="17" y="705"/>
      <point x="17" y="688" type="curve" smooth="yes"/>
      <point x="17" y="619"/>
      <point x="83" y="585"/>
    </contour>
  </outline>
</glyph>
<glyph name="dotaccent" format="2">
  <advance width="256"/>
  <unicode hex="02D9"/>
  <anchor x="151" y="523" name="_top"/>
  <outline>
    <contour>
      <point x="155" y="607" type="curve" smooth="yes"/>
      <point x="185" y="607"/>
      <point x="199" y="616"/>
      <point x="201" y="629" type="curve" smooth="yes"/>
      <point x="206" y="680" type="line"/>
      <point x="206" y="694"/>
      <point x="197" y="702"/>
      <point x="168" y="702" type="curve" smooth="yes"/>
      <point x="136" y="702"/>
      <point x="124" y="693"/>
      <point x="122" y="680" type="curve" smooth="yes"/>
      <point x="117" y="629" type="line"/>
      <point x="117" y="615"/>
      <point x="125" y="607"/>
    </contour>
  </outline>
</glyph>
<glyph name="ring" format="2">
  <advance width="256"/>
  <unicode hex="02DA"/>
  <anchor x="159.5" y="523" name="_top"/>
  <outline>
    <contour>
      <point x="151" y="564" type="curve" smooth="yes"/>
      <point x="201" y="564"/>
      <point x="244" y="606"/>
      <point x="244" y="657" type="curve" smooth="yes"/>
      <point x="244" y="700"/>
      <point x="212" y="733"/>
      <point x="168" y="733" type="curve" smooth="yes"/>
      <point x="119" y="733"/>
      <point x="75" y="691"/>
      <point x="75" y="640" type="curve" smooth="yes"/>
      <point x="75" y="597"/>
      <point x="106" y="564"/>
    </contour>
    <contour>
      <point x="154" y="599" type="curve" smooth="yes"/>
      <point x="127" y="599"/>
      <point x="110" y="618"/>
      <point x="110" y="644" type="curve" smooth="yes"/>
      <point x="110" y="674"/>
      <point x="136" y="698"/>
      <point x="165" y="698" type="curve" smooth="yes"/>
      <point x="191" y="698"/>
      <point x="209" y="679"/>
      <point x="209" y="654" type="curve" smooth="yes"/>
      <point x="209" y="623"/>
      <point x="185" y="599"/>
    </contour>
  </outline>
</glyph>
<glyph name="ogonek" format="2">
  <advance width="256"/>
  <unicode hex="02DB"/>
  <anchor x="141" y="0" name="_ogonek"/>
  <outline>
    <contour>
      <point x="161" y="-183" type="curve" smooth="yes"/>
      <point x="191" y="-183"/>
      <point x="222" y="-178"/>
      <point x="238" y="-154" type="curve" smooth="yes"/>
      <point x="246" y="-143"/>
      <point x="250" y="-128"/>
      <point x="250" y="-108" type="curve" smooth="yes"/>
      <point x="250" y="-99"/>
      <point x="248" y="-95"/>
      <point x="244" y="-95" type="curve" smooth="yes"/>
      <point x="235" y="-95"/>
      <point x="211" y="-113"/>
      <point x="180" y="-113" type="curve" smooth="yes"/>
      <point x="158" y="-113"/>
      <point x="122" y="-110"/>
      <point x="122" y="-70" type="curve" smooth="yes"/>
      <point x="122" y="-46"/>
      <point x="130" y="-19"/>
      <point x="141" y="0" type="curve"/>
      <point x="102" y="14" type="line"/>
      <point x="63" y="-22"/>
      <point x="53" y="-80"/>
      <point x="53" y="-103" type="curve" smooth="yes"/>
      <point x="53" y="-133"/>
      <point x="67" y="-183"/>
    </contour>
  </outline>
</glyph>
<glyph name="hungarumlaut" format="2">
  <advance width="307"/>
  <unicode hex="02DD"/>
  <anchor x="152" y="523" name="_top"/>
  <outline>
    <contour>
      <point x="220" y="585" type="curve" smooth="yes"/>
      <point x="240" y="585"/>
      <point x="261" y="591"/>
      <point x="273" y="603" type="curve" smooth="yes"/>
      <point x="368" y="700"/>
      <point x="379" y="709"/>
      <point x="379" y="720" type="curve" smooth="yes"/>
      <point x="379" y="729"/>
      <point x="363" y="732"/>
      <point x="332" y="732" type="curve" smooth="yes"/>
      <point x="300" y="732"/>
      <point x="280" y="725"/>
      <point x="267" y="706" type="curve" smooth="yes"/>
      <point x="210" y="623"/>
      <point x="198" y="603"/>
      <point x="198" y="594" type="curve" smooth="yes"/>
      <point x="198" y="588"/>
      <point x="205" y="585"/>
    </contour>
    <contour>
      <point x="74" y="585" type="curve" smooth="yes"/>
      <point x="94" y="585"/>
      <point x="115" y="591"/>
      <point x="127" y="603" type="curve" smooth="yes"/>
      <point x="222" y="700"/>
      <point x="233" y="709"/>
      <point x="233" y="720" type="curve" smooth="yes"/>
      <point x="233" y="729"/>
      <point x="217" y="732"/>
      <point x="186" y="732" type="curve" smooth="yes"/>
      <point x="154" y="732"/>
      <point x="134" y="725"/>
      <point x="121" y="706" type="curve" smooth="yes"/>
      <point x="64" y="623"/>
      <point x="52" y="603"/>
      <point x="52" y="594" type="curve" smooth="yes"/>
      <point x="52" y="588"/>
      <point x="59" y="585"/>
    </contour>
  </outline>
</glyph>
<glyph name="dotaccentcomb" format="2">
  <unicode hex="0307"/>
  <anchor x="25" y="523" name="_top"/>
  <anchor x="43" y="702" name="top"/>
  <outline>
    <contour>
      <point x="32" y="607" type="curve" smooth="yes"/>
      <point x="62" y="607"/>
      <point x="76" y="616"/>
      <point x="78" y="629" type="curve" smooth="yes"/>
      <point x="83" y="680" type="line"/>
      <point x="83" y="694"/>
      <point x="74" y="702"/>
      <point x="45" y="702" type="curve" smooth="yes"/>
      <point x="13" y="702"/>
      <point x="1" y="693"/>
      <point x="-1" y="680" type="curve" smooth="yes"/>
      <point x="-6" y="629" type="line"/>
      <point x="-6" y="615"/>
      <point x="2" y="607"/>
    </contour>
  </outline>
</glyph>
<glyph name="hookabovecomb" format="2">
  <advance width="240"/>
  <unicode hex="0309"/>
  <anchor x="28" y="523" name="_top"/>
  <anchor x="38" y="699" name="top"/>
  <outline>
    <contour>
      <point x="39" y="563" type="curve" smooth="yes"/>
      <point x="49" y="563"/>
      <point x="138" y="610"/>
      <point x="138" y="680" type="curve" smooth="yes"/>
      <point x="138" y="734"/>
      <point x="85" y="750"/>
      <point x="51" y="750" type="curve" smooth="yes"/>
      <point x="16" y="750"/>
      <point x="-30" y="732"/>
      <point x="-30" y="719" type="curve" smooth="yes"/>
      <point x="-30" y="709"/>
      <point x="-18" y="686"/>
      <point x="-10" y="686" type="curve" smooth="yes"/>
      <point x="-5" y="686"/>
      <point x="7" y="699"/>
      <point x="38" y="699" type="curve" smooth="yes"/>
      <point x="58" y="699"/>
      <point x="72" y="690"/>
      <point x="72" y="674" type="curve" smooth="yes"/>
      <point x="72" y="622"/>
      <point x="0" y="607"/>
      <point x="0" y="580" type="curve" smooth="yes"/>
      <point x="0" y="571"/>
      <point x="18" y="563"/>
    </contour>
  </outline>
</glyph>
<glyph name="horncomb" format="2">
  <advance width="480"/>
  <unicode hex="031B"/>
  <anchor x="364" y="510" name="_horn"/>
  <outline>
    <contour>
      <point x="399" y="477" type="line"/>
      <point x="477" y="477"/>
      <point x="521" y="523"/>
      <point x="521" y="574" type="curve" smooth="yes"/>
      <point x="521" y="602"/>
      <point x="509" y="641"/>
      <point x="486" y="641" type="curve" smooth="yes"/>
      <point x="482" y="641"/>
      <point x="478" y="640"/>
      <point x="474" y="637" type="curve" smooth="yes"/>
      <point x="448" y="621" type="line" smooth="yes"/>
      <point x="441" y="617"/>
      <point x="437" y="611"/>
      <point x="437" y="605" type="curve" smooth="yes"/>
      <point x="437" y="593"/>
      <point x="458" y="573"/>
      <point x="458" y="550" type="curve" smooth="yes"/>
      <point x="458" y="527"/>
      <point x="442" y="510"/>
      <point x="399" y="510" type="curve"/>
      <point x="364" y="510" type="line"/>
    </contour>
  </outline>
</glyph>
<glyph name="dotbelowcomb" format="2">
  <unicode hex="0323"/>
  <anchor x="-27" y="0" name="_bottom"/>
  <anchor x="-48" y="-203" name="bottom"/>
  <outline>
    <contour>
      <point x="-48" y="-175" type="curve" smooth="yes"/>
      <point x="-18" y="-175"/>
      <point x="-4" y="-166"/>
      <point x="-2" y="-153" type="curve" smooth="yes"/>
      <point x="3" y="-102" type="line"/>
      <point x="3" y="-88"/>
      <point x="-6" y="-80"/>
      <point x="-35" y="-80" type="curve" smooth="yes"/>
      <point x="-67" y="-80"/>
      <point x="-79" y="-89"/>
      <point x="-81" y="-102" type="curve" smooth="yes"/>
      <point x="-86" y="-153" type="line"/>
      <point x="-86" y="-167"/>
      <point x="-78" y="-175"/>
    </contour>
  </outline>
</glyph>
<glyph name="commaaccentcomb" format="2">
  <advance width="282"/>
  <unicode hex="0326"/>
  <anchor x="159" y="0" name="_bottom"/>
  <anchor x="149" y="-203" name="bottom"/>
  <outline>
    <contour>
      <point x="79" y="-235" type="curve" smooth="yes"/>
      <point x="112" y="-235"/>
      <point x="199" y="-137"/>
      <point x="199" y="-79" type="curve" smooth="yes"/>
      <point x="199" y="-62"/>
      <point x="187" y="-51"/>
      <point x="162" y="-51" type="curve" smooth="yes"/>
      <point x="153" y="-51" type="line" smooth="yes"/>
      <point x="126" y="-51"/>
      <point x="109" y="-64"/>
      <point x="109" y="-83" type="curve" smooth="yes"/>
      <point x="109" y="-147"/>
      <point x="52" y="-189"/>
      <point x="52" y="-220" type="curve" smooth="yes"/>
      <point x="52" y="-232"/>
      <point x="68" y="-235"/>
    </contour>
  </outline>
</glyph>
<glyph name="Delta" format="2">
  <advance width="708"/>
  <unicode hex="0394"/>
  <outline>
    <contour>
      <point x="404" y="710" type="curve" smooth="yes"/>
      <point x="378" y="710" type="line" smooth="yes"/>
      <point x="361" y="710"/>
      <point x="348" y="703"/>
      <point x="340" y="687" type="curve" smooth="yes"/>
      <point x="11" y="67" type="line" smooth="yes"/>
      <point x="3" y="53"/>
      <point x="0" y="42"/>
      <point x="0" y="27" type="curve" smooth="yes"/>
      <point x="0" y="26"/>
      <point x="0" y="26"/>
      <point x="0" y="25" type="curve" smooth="yes"/>
      <point x="0" y="9"/>
      <point x="9" y="0"/>
      <point x="26" y="0" type="curve" smooth="yes"/>
      <point x="605" y="0" type="line" smooth="yes"/>
      <point x="629" y="0"/>
      <point x="639" y="14"/>
      <point x="639" y="38" type="curve" smooth="yes"/>
      <point x="639" y="39"/>
      <point x="639" y="39"/>
      <point x="639" y="40" type="curve" smooth="yes"/>
      <point x="639" y="49"/>
      <point x="637" y="57"/>
      <point x="634" y="67" type="curve" smooth="yes"/>
      <point x="436" y="687" type="line" smooth="yes"/>
      <point x="431" y="703"/>
      <point x="421" y="710"/>
    </contour>
    <contour>
      <point x="382" y="619" type="line"/>
      <point x="556" y="68" type="line"/>
      <point x="85" y="68" type="line"/>
      <point x="377" y="619" type="line"/>
    </contour>
  </outline>
</glyph>
